<?xml version="1.0" encoding="UTF-8"?>
<svg xmlns="http://www.w3.org/2000/svg" xmlns:xlink="http://www.w3.org/1999/xlink" width="432pt" height="144pt" viewBox="0 0 432 144" version="1.1">
<g id="surface1">
<rect x="0" y="0" width="432" height="144" style="fill:rgb(100%,100%,100%);fill-opacity:1;stroke:none;"/>
<path style="fill:none;stroke-width:0.5;stroke-linecap:butt;stroke-linejoin:round;stroke:rgb(0%,0%,0%);stroke-opacity:0.5;stroke-miterlimit:10;" d="M 133.402344 -11.125 C 136.367188 -11.125 139.210938 -9.945313 141.308594 -7.847656 C 143.40625 -5.753906 144.582031 -2.910156 144.582031 0.0585938 C 144.582031 3.023438 143.40625 5.867188 141.308594 7.960938 C 139.210938 10.058594 136.367188 11.238281 133.402344 11.238281 C 130.4375 11.238281 127.59375 10.058594 125.496094 7.960938 C 123.398438 5.867188 122.222656 3.023438 122.222656 0.0585938 C 122.222656 -2.910156 123.398438 -5.753906 125.496094 -7.847656 C 127.59375 -9.945313 130.4375 -11.125 133.402344 -11.125 Z M 133.402344 -11.125 " transform="matrix(1,0,0,-1,0,144)"/>
<path style="fill:none;stroke-width:0.5;stroke-linecap:butt;stroke-linejoin:round;stroke:rgb(0%,0%,0%);stroke-opacity:0.51;stroke-miterlimit:10;" d="M 204.664063 1.804688 C 207.601563 1.804688 210.417969 2.96875 212.492188 5.046875 C 214.566406 7.121094 215.734375 9.9375 215.734375 12.871094 C 215.734375 15.808594 214.566406 18.621094 212.492188 20.699219 C 210.417969 22.773438 207.601563 23.941406 204.664063 23.941406 C 201.730469 23.941406 198.914063 22.773438 196.839844 20.699219 C 194.765625 18.621094 193.597656 15.808594 193.597656 12.871094 C 193.597656 9.9375 194.765625 7.121094 196.839844 5.046875 C 198.914063 2.96875 201.730469 1.804688 204.664063 1.804688 Z M 204.664063 1.804688 " transform="matrix(1,0,0,-1,0,144)"/>
<path style="fill:none;stroke-width:0.5;stroke-linecap:butt;stroke-linejoin:round;stroke:rgb(0%,0%,0%);stroke-opacity:0.52;stroke-miterlimit:10;" d="M 41.261719 47.675781 C 44.167969 47.675781 46.953125 48.832031 49.007813 50.882813 C 51.0625 52.9375 52.214844 55.726563 52.214844 58.628906 C 52.214844 61.535156 51.0625 64.324219 49.007813 66.375 C 46.953125 68.429688 44.167969 69.585938 41.261719 69.585938 C 38.355469 69.585938 35.570313 68.429688 33.515625 66.375 C 31.460938 64.324219 30.308594 61.535156 30.308594 58.628906 C 30.308594 55.726563 31.460938 52.9375 33.515625 50.882813 C 35.570313 48.832031 38.355469 47.675781 41.261719 47.675781 Z M 41.261719 47.675781 " transform="matrix(1,0,0,-1,0,144)"/>
<path style="fill:none;stroke-width:0.5;stroke-linecap:butt;stroke-linejoin:round;stroke:rgb(0%,0%,0%);stroke-opacity:0.53;stroke-miterlimit:10;" d="M 160.722656 106.941406 C 163.597656 106.941406 166.355469 108.085938 168.386719 110.117188 C 170.421875 112.148438 171.5625 114.90625 171.5625 117.78125 C 171.5625 120.65625 170.421875 123.414063 168.386719 125.445313 C 166.355469 127.480469 163.597656 128.621094 160.722656 128.621094 C 157.847656 128.621094 155.089844 127.480469 153.058594 125.445313 C 151.023438 123.414063 149.882813 120.65625 149.882813 117.78125 C 149.882813 114.90625 151.023438 112.148438 153.058594 110.117188 C 155.089844 108.085938 157.847656 106.941406 160.722656 106.941406 Z M 160.722656 106.941406 " transform="matrix(1,0,0,-1,0,144)"/>
<path style="fill:none;stroke-width:0.5;stroke-linecap:butt;stroke-linejoin:round;stroke:rgb(0%,0%,0%);stroke-opacity:0.54;stroke-miterlimit:10;" d="M 198.675781 132.996094 C 201.519531 132.996094 204.25 134.125 206.261719 136.136719 C 208.269531 138.144531 209.402344 140.875 209.402344 143.71875 C 209.402344 146.5625 208.269531 149.289063 206.261719 151.300781 C 204.25 153.3125 201.519531 154.441406 198.675781 154.441406 C 195.832031 154.441406 193.105469 153.3125 191.09375 151.300781 C 189.082031 149.289063 187.953125 146.5625 187.953125 143.71875 C 187.953125 140.875 189.082031 138.144531 191.09375 136.136719 C 193.105469 134.125 195.832031 132.996094 198.675781 132.996094 Z M 198.675781 132.996094 " transform="matrix(1,0,0,-1,0,144)"/>
<path style="fill:none;stroke-width:0.5;stroke-linecap:butt;stroke-linejoin:round;stroke:rgb(0%,0%,0%);stroke-opacity:0.55;stroke-miterlimit:10;" d="M 307.34375 32.964844 C 310.15625 32.964844 312.855469 34.082031 314.84375 36.070313 C 316.832031 38.058594 317.949219 40.757813 317.949219 43.570313 C 317.949219 46.382813 316.832031 49.082031 314.84375 51.070313 C 312.855469 53.058594 310.15625 54.179688 307.34375 54.179688 C 304.53125 54.179688 301.832031 53.058594 299.84375 51.070313 C 297.855469 49.082031 296.734375 46.382813 296.734375 43.570313 C 296.734375 40.757813 297.855469 38.058594 299.84375 36.070313 C 301.832031 34.082031 304.53125 32.964844 307.34375 32.964844 Z M 307.34375 32.964844 " transform="matrix(1,0,0,-1,0,144)"/>
<path style="fill:none;stroke-width:0.5;stroke-linecap:butt;stroke-linejoin:round;stroke:rgb(0%,0%,0%);stroke-opacity:0.56;stroke-miterlimit:10;" d="M 210.550781 37.394531 C 213.332031 37.394531 216 38.5 217.964844 40.46875 C 219.933594 42.433594 221.039063 45.101563 221.039063 47.882813 C 221.039063 50.664063 219.933594 53.332031 217.964844 55.300781 C 216 57.265625 213.332031 58.371094 210.550781 58.371094 C 207.769531 58.371094 205.101563 57.265625 203.132813 55.300781 C 201.167969 53.332031 200.0625 50.664063 200.0625 47.882813 C 200.0625 45.101563 201.167969 42.433594 203.132813 40.46875 C 205.101563 38.5 207.769531 37.394531 210.550781 37.394531 Z M 210.550781 37.394531 " transform="matrix(1,0,0,-1,0,144)"/>
<path style="fill:none;stroke-width:0.5;stroke-linecap:butt;stroke-linejoin:round;stroke:rgb(0%,0%,0%);stroke-opacity:0.57;stroke-miterlimit:10;" d="M 108.898438 24.078125 C 111.648438 24.078125 114.285156 25.171875 116.230469 27.113281 C 118.175781 29.058594 119.265625 31.695313 119.265625 34.445313 C 119.265625 37.195313 118.175781 39.832031 116.230469 41.777344 C 114.285156 43.722656 111.648438 44.8125 108.898438 44.8125 C 106.148438 44.8125 103.511719 43.722656 101.566406 41.777344 C 99.621094 39.832031 98.53125 37.195313 98.53125 34.445313 C 98.53125 31.695313 99.621094 29.058594 101.566406 27.113281 C 103.511719 25.171875 106.148438 24.078125 108.898438 24.078125 Z M 108.898438 24.078125 " transform="matrix(1,0,0,-1,0,144)"/>
<path style="fill:none;stroke-width:0.5;stroke-linecap:butt;stroke-linejoin:round;stroke:rgb(0%,0%,0%);stroke-opacity:0.58;stroke-miterlimit:10;" d="M 374.886719 111.277344 C 377.605469 111.277344 380.210938 112.359375 382.132813 114.28125 C 384.054688 116.203125 385.132813 118.808594 385.132813 121.527344 C 385.132813 124.242188 384.054688 126.851563 382.132813 128.773438 C 380.210938 130.691406 377.605469 131.773438 374.886719 131.773438 C 372.167969 131.773438 369.5625 130.691406 367.640625 128.773438 C 365.71875 126.851563 364.640625 124.242188 364.640625 121.527344 C 364.640625 118.808594 365.71875 116.203125 367.640625 114.28125 C 369.5625 112.359375 372.167969 111.277344 374.886719 111.277344 Z M 374.886719 111.277344 " transform="matrix(1,0,0,-1,0,144)"/>
<path style="fill:none;stroke-width:0.5;stroke-linecap:butt;stroke-linejoin:round;stroke:rgb(0%,0%,0%);stroke-opacity:0.59;stroke-miterlimit:10;" d="M 178.488281 -0.359375 C 181.171875 -0.359375 183.75 0.707031 185.648438 2.605469 C 187.546875 4.503906 188.613281 7.082031 188.613281 9.765625 C 188.613281 12.449219 187.546875 15.027344 185.648438 16.925781 C 183.75 18.824219 181.171875 19.890625 178.488281 19.890625 C 175.804688 19.890625 173.226563 18.824219 171.328125 16.925781 C 169.429688 15.027344 168.363281 12.449219 168.363281 9.765625 C 168.363281 7.082031 169.429688 4.503906 171.328125 2.605469 C 173.226563 0.707031 175.804688 -0.359375 178.488281 -0.359375 Z M 178.488281 -0.359375 " transform="matrix(1,0,0,-1,0,144)"/>
<path style="fill:none;stroke-width:0.5;stroke-linecap:butt;stroke-linejoin:round;stroke:rgb(0%,0%,0%);stroke-opacity:0.6;stroke-miterlimit:10;" d="M 151.925781 48.429688 C 154.578125 48.429688 157.125 49.484375 159 51.359375 C 160.875 53.234375 161.925781 55.777344 161.925781 58.429688 C 161.925781 61.082031 160.875 63.625 159 65.5 C 157.125 67.375 154.578125 68.429688 151.925781 68.429688 C 149.277344 68.429688 146.730469 67.375 144.855469 65.5 C 142.980469 63.625 141.925781 61.082031 141.925781 58.429688 C 141.925781 55.777344 142.980469 53.234375 144.855469 51.359375 C 146.730469 49.484375 149.277344 48.429688 151.925781 48.429688 Z M 151.925781 48.429688 " transform="matrix(1,0,0,-1,0,144)"/>
<path style="fill:none;stroke-width:0.5;stroke-linecap:butt;stroke-linejoin:round;stroke:rgb(0%,0%,0%);stroke-opacity:0.61;stroke-miterlimit:10;" d="M 396.992188 106.105469 C 399.609375 106.105469 402.121094 107.148438 403.972656 109 C 405.824219 110.851563 406.867188 113.363281 406.867188 115.980469 C 406.867188 118.597656 405.824219 121.109375 403.972656 122.960938 C 402.121094 124.8125 399.609375 125.855469 396.992188 125.855469 C 394.375 125.855469 391.863281 124.8125 390.011719 122.960938 C 388.160156 121.109375 387.117188 118.597656 387.117188 115.980469 C 387.117188 113.363281 388.160156 110.851563 390.011719 109 C 391.863281 107.148438 394.375 106.105469 396.992188 106.105469 Z M 396.992188 106.105469 " transform="matrix(1,0,0,-1,0,144)"/>
<path style="fill:none;stroke-width:0.5;stroke-linecap:butt;stroke-linejoin:round;stroke:rgb(0%,0%,0%);stroke-opacity:0.62;stroke-miterlimit:10;" d="M 5.425781 34.625 C 8.007813 34.625 10.488281 35.652344 12.316406 37.480469 C 14.144531 39.308594 15.171875 41.785156 15.171875 44.371094 C 15.171875 46.957031 14.144531 49.4375 12.316406 51.265625 C 10.488281 53.089844 8.007813 54.117188 5.425781 54.117188 C 2.839844 54.117188 0.359375 53.089844 -1.46875 51.265625 C -3.296875 49.4375 -4.320313 46.957031 -4.320313 44.371094 C -4.320313 41.785156 -3.296875 39.308594 -1.46875 37.480469 C 0.359375 35.652344 2.839844 34.625 5.425781 34.625 Z M 5.425781 34.625 " transform="matrix(1,0,0,-1,0,144)"/>
<path style="fill:none;stroke-width:0.5;stroke-linecap:butt;stroke-linejoin:round;stroke:rgb(0%,0%,0%);stroke-opacity:0.63;stroke-miterlimit:10;" d="M 293.222656 45.78125 C 295.773438 45.78125 298.21875 46.792969 300.023438 48.597656 C 301.828125 50.402344 302.839844 52.847656 302.839844 55.398438 C 302.839844 57.949219 301.828125 60.394531 300.023438 62.199219 C 298.21875 64.003906 295.773438 65.015625 293.222656 65.015625 C 290.671875 65.015625 288.226563 64.003906 286.421875 62.199219 C 284.617188 60.394531 283.605469 57.949219 283.605469 55.398438 C 283.605469 52.847656 284.617188 50.402344 286.421875 48.597656 C 288.226563 46.792969 290.671875 45.78125 293.222656 45.78125 Z M 293.222656 45.78125 " transform="matrix(1,0,0,-1,0,144)"/>
<path style="fill:none;stroke-width:0.5;stroke-linecap:butt;stroke-linejoin:round;stroke:rgb(0%,0%,0%);stroke-opacity:0.64;stroke-miterlimit:10;" d="M 232.949219 72.714844 C 235.464844 72.714844 237.878906 73.714844 239.65625 75.496094 C 241.4375 77.273438 242.4375 79.6875 242.4375 82.203125 C 242.4375 84.71875 241.4375 87.132813 239.65625 88.910156 C 237.878906 90.691406 235.464844 91.691406 232.949219 91.691406 C 230.433594 91.691406 228.019531 90.691406 226.242188 88.910156 C 224.460938 87.132813 223.464844 84.71875 223.464844 82.203125 C 223.464844 79.6875 224.460938 77.273438 226.242188 75.496094 C 228.019531 73.714844 230.433594 72.714844 232.949219 72.714844 Z M 232.949219 72.714844 " transform="matrix(1,0,0,-1,0,144)"/>
<path style="fill:none;stroke-width:0.5;stroke-linecap:butt;stroke-linejoin:round;stroke:rgb(0%,0%,0%);stroke-opacity:0.65;stroke-miterlimit:10;" d="M 238.398438 49.632813 C 240.878906 49.632813 243.257813 50.617188 245.011719 52.371094 C 246.765625 54.125 247.753906 56.503906 247.753906 58.984375 C 247.753906 61.464844 246.765625 63.847656 245.011719 65.601563 C 243.257813 67.355469 240.878906 68.339844 238.398438 68.339844 C 235.917969 68.339844 233.539063 67.355469 231.785156 65.601563 C 230.03125 63.847656 229.042969 61.464844 229.042969 58.984375 C 229.042969 56.503906 230.03125 54.125 231.785156 52.371094 C 233.539063 50.617188 235.917969 49.632813 238.398438 49.632813 Z M 238.398438 49.632813 " transform="matrix(1,0,0,-1,0,144)"/>
<path style="fill:none;stroke-width:0.5;stroke-linecap:butt;stroke-linejoin:round;stroke:rgb(0%,0%,0%);stroke-opacity:0.66;stroke-miterlimit:10;" d="M 307.292969 78.707031 C 309.738281 78.707031 312.085938 79.679688 313.8125 81.410156 C 315.542969 83.136719 316.515625 85.484375 316.515625 87.929688 C 316.515625 90.371094 315.542969 92.71875 313.8125 94.445313 C 312.085938 96.175781 309.738281 97.148438 307.292969 97.148438 C 304.851563 97.148438 302.503906 96.175781 300.777344 94.445313 C 299.046875 92.71875 298.074219 90.371094 298.074219 87.929688 C 298.074219 85.484375 299.046875 83.136719 300.777344 81.410156 C 302.503906 79.679688 304.851563 78.707031 307.292969 78.707031 Z M 307.292969 78.707031 " transform="matrix(1,0,0,-1,0,144)"/>
<path style="fill:none;stroke-width:0.5;stroke-linecap:butt;stroke-linejoin:round;stroke:rgb(0%,0%,0%);stroke-opacity:0.67;stroke-miterlimit:10;" d="M 181.167969 21.28125 C 183.574219 21.28125 185.886719 22.238281 187.589844 23.941406 C 189.292969 25.644531 190.25 27.953125 190.25 30.363281 C 190.25 32.773438 189.292969 35.082031 187.589844 36.785156 C 185.886719 38.488281 183.574219 39.445313 181.167969 39.445313 C 178.757813 39.445313 176.449219 38.488281 174.746094 36.785156 C 173.039063 35.082031 172.082031 32.773438 172.082031 30.363281 C 172.082031 27.953125 173.039063 25.644531 174.746094 23.941406 C 176.449219 22.238281 178.757813 21.28125 181.167969 21.28125 Z M 181.167969 21.28125 " transform="matrix(1,0,0,-1,0,144)"/>
<path style="fill:none;stroke-width:0.5;stroke-linecap:butt;stroke-linejoin:round;stroke:rgb(0%,0%,0%);stroke-opacity:0.68;stroke-miterlimit:10;" d="M 121 -4.898438 C 123.371094 -4.898438 125.648438 -3.957031 127.324219 -2.277344 C 129.003906 -0.601563 129.945313 1.675781 129.945313 4.046875 C 129.945313 6.417969 129.003906 8.691406 127.324219 10.371094 C 125.648438 12.046875 123.371094 12.992188 121 12.992188 C 118.628906 12.992188 116.355469 12.046875 114.675781 10.371094 C 113 8.691406 112.058594 6.417969 112.058594 4.046875 C 112.058594 1.675781 113 -0.601563 114.675781 -2.277344 C 116.355469 -3.957031 118.628906 -4.898438 121 -4.898438 Z M 121 -4.898438 " transform="matrix(1,0,0,-1,0,144)"/>
<path style="fill:none;stroke-width:0.5;stroke-linecap:butt;stroke-linejoin:round;stroke:rgb(0%,0%,0%);stroke-opacity:0.69;stroke-miterlimit:10;" d="M 175.574219 69.761719 C 177.90625 69.761719 180.148438 70.6875 181.796875 72.339844 C 183.449219 73.988281 184.375 76.230469 184.375 78.5625 C 184.375 80.898438 183.449219 83.136719 181.796875 84.789063 C 180.148438 86.4375 177.90625 87.367188 175.574219 87.367188 C 173.238281 87.367188 171 86.4375 169.347656 84.789063 C 167.695313 83.136719 166.769531 80.898438 166.769531 78.5625 C 166.769531 76.230469 167.695313 73.988281 169.347656 72.339844 C 171 70.6875 173.238281 69.761719 175.574219 69.761719 Z M 175.574219 69.761719 " transform="matrix(1,0,0,-1,0,144)"/>
<path style="fill:none;stroke-width:0.5;stroke-linecap:butt;stroke-linejoin:round;stroke:rgb(0%,0%,0%);stroke-opacity:0.7;stroke-miterlimit:10;" d="M 319.851563 20.066406 C 322.148438 20.066406 324.351563 20.980469 325.976563 22.605469 C 327.597656 24.226563 328.511719 26.429688 328.511719 28.726563 C 328.511719 31.023438 327.597656 33.226563 325.976563 34.851563 C 324.351563 36.476563 322.148438 37.386719 319.851563 37.386719 C 317.554688 37.386719 315.351563 36.476563 313.726563 34.851563 C 312.101563 33.226563 311.191406 31.023438 311.191406 28.726563 C 311.191406 26.429688 312.101563 24.226563 313.726563 22.605469 C 315.351563 20.980469 317.554688 20.066406 319.851563 20.066406 Z M 319.851563 20.066406 " transform="matrix(1,0,0,-1,0,144)"/>
<path style="fill:none;stroke-width:0.5;stroke-linecap:butt;stroke-linejoin:round;stroke:rgb(0%,0%,0%);stroke-opacity:0.71;stroke-miterlimit:10;" d="M 296.628906 132.292969 C 298.886719 132.292969 301.050781 133.191406 302.648438 134.789063 C 304.246094 136.386719 305.144531 138.550781 305.144531 140.808594 C 305.144531 143.066406 304.246094 145.234375 302.648438 146.832031 C 301.050781 148.425781 298.886719 149.324219 296.628906 149.324219 C 294.371094 149.324219 292.203125 148.425781 290.605469 146.832031 C 289.011719 145.234375 288.113281 143.066406 288.113281 140.808594 C 288.113281 138.550781 289.011719 136.386719 290.605469 134.789063 C 292.203125 133.191406 294.371094 132.292969 296.628906 132.292969 Z M 296.628906 132.292969 " transform="matrix(1,0,0,-1,0,144)"/>
<path style="fill:none;stroke-width:0.5;stroke-linecap:butt;stroke-linejoin:round;stroke:rgb(0%,0%,0%);stroke-opacity:0.72;stroke-miterlimit:10;" d="M 36.621094 104.195313 C 38.839844 104.195313 40.964844 105.078125 42.535156 106.648438 C 44.105469 108.214844 44.984375 110.34375 44.984375 112.5625 C 44.984375 114.78125 44.105469 116.910156 42.535156 118.480469 C 40.964844 120.046875 38.839844 120.929688 36.621094 120.929688 C 34.402344 120.929688 32.273438 120.046875 30.703125 118.480469 C 29.132813 116.910156 28.253906 114.78125 28.253906 112.5625 C 28.253906 110.34375 29.132813 108.214844 30.703125 106.648438 C 32.273438 105.078125 34.402344 104.195313 36.621094 104.195313 Z M 36.621094 104.195313 " transform="matrix(1,0,0,-1,0,144)"/>
<path style="fill:none;stroke-width:0.5;stroke-linecap:butt;stroke-linejoin:round;stroke:rgb(0%,0%,0%);stroke-opacity:0.73;stroke-miterlimit:10;" d="M 302.167969 35.5 C 304.34375 35.5 306.433594 36.367188 307.976563 37.90625 C 309.515625 39.449219 310.382813 41.539063 310.382813 43.71875 C 310.382813 45.894531 309.515625 47.984375 307.976563 49.527344 C 306.433594 51.066406 304.34375 51.933594 302.167969 51.933594 C 299.988281 51.933594 297.898438 51.066406 296.355469 49.527344 C 294.816406 47.984375 293.949219 45.894531 293.949219 43.71875 C 293.949219 41.539063 294.816406 39.449219 296.355469 37.90625 C 297.898438 36.367188 299.988281 35.5 302.167969 35.5 Z M 302.167969 35.5 " transform="matrix(1,0,0,-1,0,144)"/>
<path style="fill:none;stroke-width:0.5;stroke-linecap:butt;stroke-linejoin:round;stroke:rgb(0%,0%,0%);stroke-opacity:0.74;stroke-miterlimit:10;" d="M 94.800781 81.0625 C 96.941406 81.0625 98.992188 81.914063 100.503906 83.425781 C 102.015625 84.9375 102.863281 86.988281 102.863281 89.125 C 102.863281 91.265625 102.015625 93.316406 100.503906 94.828125 C 98.992188 96.339844 96.941406 97.1875 94.800781 97.1875 C 92.664063 97.1875 90.613281 96.339844 89.101563 94.828125 C 87.589844 93.316406 86.738281 91.265625 86.738281 89.125 C 86.738281 86.988281 87.589844 84.9375 89.101563 83.425781 C 90.613281 81.914063 92.664063 81.0625 94.800781 81.0625 Z M 94.800781 81.0625 " transform="matrix(1,0,0,-1,0,144)"/>
<path style="fill:none;stroke-width:0.5;stroke-linecap:butt;stroke-linejoin:round;stroke:rgb(0%,0%,0%);stroke-opacity:0.75;stroke-miterlimit:10;" d="M 249.851563 130.996094 C 251.949219 130.996094 253.960938 131.828125 255.441406 133.308594 C 256.925781 134.792969 257.757813 136.804688 257.757813 138.898438 C 257.757813 140.996094 256.925781 143.007813 255.441406 144.492188 C 253.960938 145.972656 251.949219 146.804688 249.851563 146.804688 C 247.757813 146.804688 245.746094 145.972656 244.261719 144.492188 C 242.78125 143.007813 241.945313 140.996094 241.945313 138.898438 C 241.945313 136.804688 242.78125 134.792969 244.261719 133.308594 C 245.746094 131.828125 247.757813 130.996094 249.851563 130.996094 Z M 249.851563 130.996094 " transform="matrix(1,0,0,-1,0,144)"/>
<path style="fill:none;stroke-width:0.5;stroke-linecap:butt;stroke-linejoin:round;stroke:rgb(0%,0%,0%);stroke-opacity:0.76;stroke-miterlimit:10;" d="M 103.40625 131.492188 C 105.460938 131.492188 107.429688 132.308594 108.882813 133.761719 C 110.335938 135.214844 111.152344 137.183594 111.152344 139.238281 C 111.152344 141.292969 110.335938 143.265625 108.882813 144.714844 C 107.429688 146.167969 105.460938 146.984375 103.40625 146.984375 C 101.351563 146.984375 99.378906 146.167969 97.925781 144.714844 C 96.476563 143.265625 95.660156 141.292969 95.660156 139.238281 C 95.660156 137.183594 96.476563 135.214844 97.925781 133.761719 C 99.378906 132.308594 101.351563 131.492188 103.40625 131.492188 Z M 103.40625 131.492188 " transform="matrix(1,0,0,-1,0,144)"/>
<path style="fill:none;stroke-width:0.5;stroke-linecap:butt;stroke-linejoin:round;stroke:rgb(0%,0%,0%);stroke-opacity:0.77;stroke-miterlimit:10;" d="M 72.667969 29.914063 C 74.679688 29.914063 76.609375 30.710938 78.03125 32.132813 C 79.453125 33.554688 80.25 35.484375 80.25 37.496094 C 80.25 39.507813 79.453125 41.433594 78.03125 42.855469 C 76.609375 44.277344 74.679688 45.078125 72.667969 45.078125 C 70.65625 45.078125 68.730469 44.277344 67.304688 42.855469 C 65.882813 41.433594 65.085938 39.507813 65.085938 37.496094 C 65.085938 35.484375 65.882813 33.554688 67.304688 32.132813 C 68.730469 30.710938 70.65625 29.914063 72.667969 29.914063 Z M 72.667969 29.914063 " transform="matrix(1,0,0,-1,0,144)"/>
<path style="fill:none;stroke-width:0.5;stroke-linecap:butt;stroke-linejoin:round;stroke:rgb(0%,0%,0%);stroke-opacity:0.78;stroke-miterlimit:10;" d="M 162.605469 127.984375 C 164.574219 127.984375 166.460938 128.765625 167.851563 130.15625 C 169.242188 131.546875 170.023438 133.433594 170.023438 135.402344 C 170.023438 137.367188 169.242188 139.253906 167.851563 140.644531 C 166.460938 142.035156 164.574219 142.816406 162.605469 142.816406 C 160.640625 142.816406 158.753906 142.035156 157.363281 140.644531 C 155.972656 139.253906 155.191406 137.367188 155.191406 135.402344 C 155.191406 133.433594 155.972656 131.546875 157.363281 130.15625 C 158.753906 128.765625 160.640625 127.984375 162.605469 127.984375 Z M 162.605469 127.984375 " transform="matrix(1,0,0,-1,0,144)"/>
<path style="fill:none;stroke-width:0.5;stroke-linecap:butt;stroke-linejoin:round;stroke:rgb(0%,0%,0%);stroke-opacity:0.79;stroke-miterlimit:10;" d="M 196.753906 80.390625 C 198.675781 80.390625 200.519531 81.15625 201.875 82.515625 C 203.234375 83.875 204 85.714844 204 87.636719 C 204 89.558594 203.234375 91.402344 201.875 92.761719 C 200.519531 94.121094 198.675781 94.882813 196.753906 94.882813 C 194.832031 94.882813 192.988281 94.121094 191.628906 92.761719 C 190.269531 91.402344 189.507813 89.558594 189.507813 87.636719 C 189.507813 85.714844 190.269531 83.875 191.628906 82.515625 C 192.988281 81.15625 194.832031 80.390625 196.753906 80.390625 Z M 196.753906 80.390625 " transform="matrix(1,0,0,-1,0,144)"/>
<path style="fill:none;stroke-width:0.5;stroke-linecap:butt;stroke-linejoin:round;stroke:rgb(0%,0%,0%);stroke-opacity:0.8;stroke-miterlimit:10;" d="M 287.707031 27.953125 C 289.582031 27.953125 291.378906 28.695313 292.707031 30.023438 C 294.03125 31.347656 294.777344 33.148438 294.777344 35.023438 C 294.777344 36.898438 294.03125 38.695313 292.707031 40.023438 C 291.378906 41.347656 289.582031 42.09375 287.707031 42.09375 C 285.828125 42.09375 284.03125 41.347656 282.707031 40.023438 C 281.378906 38.695313 280.632813 36.898438 280.632813 35.023438 C 280.632813 33.148438 281.378906 31.347656 282.707031 30.023438 C 284.03125 28.695313 285.828125 27.953125 287.707031 27.953125 Z M 287.707031 27.953125 " transform="matrix(1,0,0,-1,0,144)"/>
<path style="fill:none;stroke-width:0.5;stroke-linecap:butt;stroke-linejoin:round;stroke:rgb(0%,0%,0%);stroke-opacity:0.81;stroke-miterlimit:10;" d="M 202.183594 99.554688 C 204.007813 99.554688 205.761719 100.28125 207.054688 101.574219 C 208.347656 102.867188 209.074219 104.621094 209.074219 106.449219 C 209.074219 108.277344 208.347656 110.027344 207.054688 111.320313 C 205.761719 112.613281 204.007813 113.339844 202.183594 113.339844 C 200.355469 113.339844 198.601563 112.613281 197.308594 111.320313 C 196.015625 110.027344 195.289063 108.277344 195.289063 106.449219 C 195.289063 104.621094 196.015625 102.867188 197.308594 101.574219 C 198.601563 100.28125 200.355469 99.554688 202.183594 99.554688 Z M 202.183594 99.554688 " transform="matrix(1,0,0,-1,0,144)"/>
<path style="fill:none;stroke-width:0.5;stroke-linecap:butt;stroke-linejoin:round;stroke:rgb(0%,0%,0%);stroke-opacity:0.82;stroke-miterlimit:10;" d="M 430.664063 91.554688 C 432.441406 91.554688 434.148438 92.261719 435.40625 93.519531 C 436.664063 94.777344 437.371094 96.484375 437.371094 98.261719 C 437.371094 100.042969 436.664063 101.75 435.40625 103.007813 C 434.148438 104.265625 432.441406 104.972656 430.664063 104.972656 C 428.882813 104.972656 427.175781 104.265625 425.917969 103.007813 C 424.660156 101.75 423.953125 100.042969 423.953125 98.261719 C 423.953125 96.484375 424.660156 94.777344 425.917969 93.519531 C 427.175781 92.261719 428.882813 91.554688 430.664063 91.554688 Z M 430.664063 91.554688 " transform="matrix(1,0,0,-1,0,144)"/>
<path style="fill:none;stroke-width:0.5;stroke-linecap:butt;stroke-linejoin:round;stroke:rgb(0%,0%,0%);stroke-opacity:0.83;stroke-miterlimit:10;" d="M 25.046875 19.480469 C 26.773438 19.480469 28.433594 20.167969 29.65625 21.390625 C 30.878906 22.613281 31.566406 24.269531 31.566406 26 C 31.566406 27.730469 30.878906 29.386719 29.65625 30.609375 C 28.433594 31.832031 26.773438 32.519531 25.046875 32.519531 C 23.316406 32.519531 21.660156 31.832031 20.4375 30.609375 C 19.214844 29.386719 18.527344 27.730469 18.527344 26 C 18.527344 24.269531 19.214844 22.613281 20.4375 21.390625 C 21.660156 20.167969 23.316406 19.480469 25.046875 19.480469 Z M 25.046875 19.480469 " transform="matrix(1,0,0,-1,0,144)"/>
<path style="fill:none;stroke-width:0.5;stroke-linecap:butt;stroke-linejoin:round;stroke:rgb(0%,0%,0%);stroke-opacity:0.84;stroke-miterlimit:10;" d="M 339.335938 10.6875 C 341.011719 10.6875 342.621094 11.351563 343.808594 12.539063 C 344.992188 13.726563 345.660156 15.335938 345.660156 17.011719 C 345.660156 18.6875 344.992188 20.296875 343.808594 21.484375 C 342.621094 22.667969 341.011719 23.335938 339.335938 23.335938 C 337.660156 23.335938 336.050781 22.667969 334.863281 21.484375 C 333.675781 20.296875 333.011719 18.6875 333.011719 17.011719 C 333.011719 15.335938 333.675781 13.726563 334.863281 12.539063 C 336.050781 11.351563 337.660156 10.6875 339.335938 10.6875 Z M 339.335938 10.6875 " transform="matrix(1,0,0,-1,0,144)"/>
<path style="fill:none;stroke-width:0.5;stroke-linecap:butt;stroke-linejoin:round;stroke:rgb(0%,0%,0%);stroke-opacity:0.85;stroke-miterlimit:10;" d="M 363.664063 56.652344 C 365.289063 56.652344 366.847656 57.296875 367.996094 58.445313 C 369.144531 59.59375 369.789063 61.152344 369.789063 62.773438 C 369.789063 64.398438 369.144531 65.957031 367.996094 67.105469 C 366.847656 68.253906 365.289063 68.898438 363.664063 68.898438 C 362.042969 68.898438 360.484375 68.253906 359.335938 67.105469 C 358.1875 65.957031 357.542969 64.398438 357.542969 62.773438 C 357.542969 61.152344 358.1875 59.59375 359.335938 58.445313 C 360.484375 57.296875 362.042969 56.652344 363.664063 56.652344 Z M 363.664063 56.652344 " transform="matrix(1,0,0,-1,0,144)"/>
<path style="fill:none;stroke-width:0.5;stroke-linecap:butt;stroke-linejoin:round;stroke:rgb(0%,0%,0%);stroke-opacity:0.86;stroke-miterlimit:10;" d="M 179.203125 62.007813 C 180.773438 62.007813 182.277344 62.632813 183.386719 63.742188 C 184.496094 64.851563 185.121094 66.355469 185.121094 67.925781 C 185.121094 69.492188 184.496094 71 183.386719 72.109375 C 182.277344 73.21875 180.773438 73.839844 179.203125 73.839844 C 177.636719 73.839844 176.132813 73.21875 175.023438 72.109375 C 173.910156 71 173.289063 69.492188 173.289063 67.925781 C 173.289063 66.355469 173.910156 64.851563 175.023438 63.742188 C 176.132813 62.632813 177.636719 62.007813 179.203125 62.007813 Z M 179.203125 62.007813 " transform="matrix(1,0,0,-1,0,144)"/>
<path style="fill:none;stroke-width:0.5;stroke-linecap:butt;stroke-linejoin:round;stroke:rgb(0%,0%,0%);stroke-opacity:0.87;stroke-miterlimit:10;" d="M 245.9375 22.445313 C 247.449219 22.445313 248.898438 23.046875 249.96875 24.113281 C 251.039063 25.183594 251.636719 26.632813 251.636719 28.144531 C 251.636719 29.65625 251.039063 31.109375 249.96875 32.175781 C 248.898438 33.246094 247.449219 33.847656 245.9375 33.847656 C 244.425781 33.847656 242.976563 33.246094 241.90625 32.175781 C 240.835938 31.109375 240.238281 29.65625 240.238281 28.144531 C 240.238281 26.632813 240.835938 25.183594 241.90625 24.113281 C 242.976563 23.046875 244.425781 22.445313 245.9375 22.445313 Z M 245.9375 22.445313 " transform="matrix(1,0,0,-1,0,144)"/>
<path style="fill:none;stroke-width:0.5;stroke-linecap:butt;stroke-linejoin:round;stroke:rgb(0%,0%,0%);stroke-opacity:0.88;stroke-miterlimit:10;" d="M 429.429688 125.847656 C 430.882813 125.847656 432.277344 126.421875 433.304688 127.449219 C 434.332031 128.476563 434.90625 129.871094 434.90625 131.324219 C 434.90625 132.777344 434.332031 134.167969 433.304688 135.195313 C 432.277344 136.222656 430.882813 136.800781 429.429688 136.800781 C 427.976563 136.800781 426.585938 136.222656 425.558594 135.195313 C 424.53125 134.167969 423.953125 132.777344 423.953125 131.324219 C 423.953125 129.871094 424.53125 128.476563 425.558594 127.449219 C 426.585938 126.421875 427.976563 125.847656 429.429688 125.847656 Z M 429.429688 125.847656 " transform="matrix(1,0,0,-1,0,144)"/>
<path style="fill:none;stroke-width:0.5;stroke-linecap:butt;stroke-linejoin:round;stroke:rgb(0%,0%,0%);stroke-opacity:0.89;stroke-miterlimit:10;" d="M 271.398438 6.464844 C 272.789063 6.464844 274.121094 7.019531 275.105469 8.003906 C 276.089844 8.984375 276.640625 10.320313 276.640625 11.710938 C 276.640625 13.101563 276.089844 14.433594 275.105469 15.417969 C 274.121094 16.402344 272.789063 16.953125 271.398438 16.953125 C 270.007813 16.953125 268.671875 16.402344 267.6875 15.417969 C 266.707031 14.433594 266.152344 13.101563 266.152344 11.710938 C 266.152344 10.320313 266.707031 8.984375 267.6875 8.003906 C 268.671875 7.019531 270.007813 6.464844 271.398438 6.464844 Z M 271.398438 6.464844 " transform="matrix(1,0,0,-1,0,144)"/>
<path style="fill:none;stroke-width:0.5;stroke-linecap:butt;stroke-linejoin:round;stroke:rgb(0%,0%,0%);stroke-opacity:0.9;stroke-miterlimit:10;" d="M 346.003906 91.453125 C 347.332031 91.453125 348.601563 91.980469 349.539063 92.917969 C 350.476563 93.855469 351.003906 95.128906 351.003906 96.453125 C 351.003906 97.78125 350.476563 99.050781 349.539063 99.988281 C 348.601563 100.925781 347.332031 101.453125 346.003906 101.453125 C 344.679688 101.453125 343.40625 100.925781 342.46875 99.988281 C 341.53125 99.050781 341.003906 97.78125 341.003906 96.453125 C 341.003906 95.128906 341.53125 93.855469 342.46875 92.917969 C 343.40625 91.980469 344.679688 91.453125 346.003906 91.453125 Z M 346.003906 91.453125 " transform="matrix(1,0,0,-1,0,144)"/>
<path style="fill:none;stroke-width:0.5;stroke-linecap:butt;stroke-linejoin:round;stroke:rgb(0%,0%,0%);stroke-opacity:0.91;stroke-miterlimit:10;" d="M 301.6875 49.824219 C 302.945313 49.824219 304.152344 50.324219 305.042969 51.210938 C 305.929688 52.101563 306.429688 53.308594 306.429688 54.566406 C 306.429688 55.824219 305.929688 57.03125 305.042969 57.921875 C 304.152344 58.808594 302.945313 59.308594 301.6875 59.308594 C 300.429688 59.308594 299.222656 58.808594 298.332031 57.921875 C 297.441406 57.03125 296.945313 55.824219 296.945313 54.566406 C 296.945313 53.308594 297.441406 52.101563 298.332031 51.210938 C 299.222656 50.324219 300.429688 49.824219 301.6875 49.824219 Z M 301.6875 49.824219 " transform="matrix(1,0,0,-1,0,144)"/>
<path style="fill:none;stroke-width:0.5;stroke-linecap:butt;stroke-linejoin:round;stroke:rgb(0%,0%,0%);stroke-opacity:0.92;stroke-miterlimit:10;" d="M 123.371094 41.730469 C 124.558594 41.730469 125.695313 42.203125 126.535156 43.039063 C 127.371094 43.878906 127.84375 45.015625 127.84375 46.203125 C 127.84375 47.386719 127.371094 48.527344 126.535156 49.363281 C 125.695313 50.203125 124.558594 50.675781 123.371094 50.675781 C 122.183594 50.675781 121.046875 50.203125 120.207031 49.363281 C 119.371094 48.527344 118.898438 47.386719 118.898438 46.203125 C 118.898438 45.015625 119.371094 43.878906 120.207031 43.039063 C 121.046875 42.203125 122.183594 41.730469 123.371094 41.730469 Z M 123.371094 41.730469 " transform="matrix(1,0,0,-1,0,144)"/>
<path style="fill:none;stroke-width:0.5;stroke-linecap:butt;stroke-linejoin:round;stroke:rgb(0%,0%,0%);stroke-opacity:0.93;stroke-miterlimit:10;" d="M 193.140625 48.816406 C 194.25 48.816406 195.3125 49.257813 196.097656 50.042969 C 196.882813 50.828125 197.324219 51.890625 197.324219 53 C 197.324219 54.109375 196.882813 55.175781 196.097656 55.960938 C 195.3125 56.742188 194.25 57.183594 193.140625 57.183594 C 192.03125 57.183594 190.964844 56.742188 190.179688 55.960938 C 189.398438 55.175781 188.957031 54.109375 188.957031 53 C 188.957031 51.890625 189.398438 50.828125 190.179688 50.042969 C 190.964844 49.257813 192.03125 48.816406 193.140625 48.816406 Z M 193.140625 48.816406 " transform="matrix(1,0,0,-1,0,144)"/>
<path style="fill:none;stroke-width:0.5;stroke-linecap:butt;stroke-linejoin:round;stroke:rgb(0%,0%,0%);stroke-opacity:0.94;stroke-miterlimit:10;" d="M 403.113281 86.332031 C 404.140625 86.332031 405.125 86.738281 405.851563 87.464844 C 406.578125 88.191406 406.984375 89.175781 406.984375 90.203125 C 406.984375 91.230469 406.578125 92.214844 405.851563 92.941406 C 405.125 93.667969 404.140625 94.078125 403.113281 94.078125 C 402.085938 94.078125 401.101563 93.667969 400.375 92.941406 C 399.648438 92.214844 399.238281 91.230469 399.238281 90.203125 C 399.238281 89.175781 399.648438 88.191406 400.375 87.464844 C 401.101563 86.738281 402.085938 86.332031 403.113281 86.332031 Z M 403.113281 86.332031 " transform="matrix(1,0,0,-1,0,144)"/>
<path style="fill:none;stroke-width:0.5;stroke-linecap:butt;stroke-linejoin:round;stroke:rgb(0%,0%,0%);stroke-opacity:0.95;stroke-miterlimit:10;" d="M 0.6875 28.695313 C 1.625 28.695313 2.523438 29.066406 3.1875 29.730469 C 3.851563 30.394531 4.222656 31.292969 4.222656 32.230469 C 4.222656 33.167969 3.851563 34.066406 3.1875 34.730469 C 2.523438 35.394531 1.625 35.765625 0.6875 35.765625 C -0.25 35.765625 -1.148438 35.394531 -1.8125 34.730469 C -2.476563 34.066406 -2.847656 33.167969 -2.847656 32.230469 C -2.847656 31.292969 -2.476563 30.394531 -1.8125 29.730469 C -1.148438 29.066406 -0.25 28.695313 0.6875 28.695313 Z M 0.6875 28.695313 " transform="matrix(1,0,0,-1,0,144)"/>
<path style="fill:none;stroke-width:0.5;stroke-linecap:butt;stroke-linejoin:round;stroke:rgb(0%,0%,0%);stroke-opacity:0.96;stroke-miterlimit:10;" d="M 238.570313 23.082031 C 239.40625 23.082031 240.210938 23.414063 240.804688 24.007813 C 241.398438 24.601563 241.730469 25.40625 241.730469 26.246094 C 241.730469 27.082031 241.398438 27.886719 240.804688 28.480469 C 240.210938 29.074219 239.40625 29.40625 238.570313 29.40625 C 237.730469 29.40625 236.925781 29.074219 236.332031 28.480469 C 235.738281 27.886719 235.40625 27.082031 235.40625 26.246094 C 235.40625 25.40625 235.738281 24.601563 236.332031 24.007813 C 236.925781 23.414063 237.730469 23.082031 238.570313 23.082031 Z M 238.570313 23.082031 " transform="matrix(1,0,0,-1,0,144)"/>
<path style="fill:none;stroke-width:0.5;stroke-linecap:butt;stroke-linejoin:round;stroke:rgb(0%,0%,0%);stroke-opacity:0.97;stroke-miterlimit:10;" d="M 268.199219 21.109375 C 268.925781 21.109375 269.621094 21.398438 270.136719 21.914063 C 270.648438 22.425781 270.9375 23.125 270.9375 23.851563 C 270.9375 24.574219 270.648438 25.273438 270.136719 25.785156 C 269.621094 26.300781 268.925781 26.589844 268.199219 26.589844 C 267.472656 26.589844 266.777344 26.300781 266.261719 25.785156 C 265.75 25.273438 265.460938 24.574219 265.460938 23.851563 C 265.460938 23.125 265.75 22.425781 266.261719 21.914063 C 266.777344 21.398438 267.472656 21.109375 268.199219 21.109375 Z M 268.199219 21.109375 " transform="matrix(1,0,0,-1,0,144)"/>
<path style="fill:none;stroke-width:0.5;stroke-linecap:butt;stroke-linejoin:round;stroke:rgb(0%,0%,0%);stroke-opacity:0.98;stroke-miterlimit:10;" d="M 4.246094 121.152344 C 4.839844 121.152344 5.40625 121.386719 5.828125 121.804688 C 6.246094 122.226563 6.480469 122.792969 6.480469 123.386719 C 6.480469 123.980469 6.246094 124.550781 5.828125 124.96875 C 5.40625 125.386719 4.839844 125.625 4.246094 125.625 C 3.652344 125.625 3.082031 125.386719 2.664063 124.96875 C 2.246094 124.550781 2.007813 123.980469 2.007813 123.386719 C 2.007813 122.792969 2.246094 122.226563 2.664063 121.804688 C 3.082031 121.386719 3.652344 121.152344 4.246094 121.152344 Z M 4.246094 121.152344 " transform="matrix(1,0,0,-1,0,144)"/>
<path style="fill:none;stroke-width:0.5;stroke-linecap:butt;stroke-linejoin:round;stroke:rgb(0%,0%,0%);stroke-opacity:0.99;stroke-miterlimit:10;" d="M 307.296875 20.660156 C 307.714844 20.660156 308.117188 20.824219 308.414063 21.121094 C 308.710938 21.417969 308.875 21.820313 308.875 22.238281 C 308.875 22.660156 308.710938 23.0625 308.414063 23.359375 C 308.117188 23.65625 307.714844 23.820313 307.296875 23.820313 C 306.875 23.820313 306.472656 23.65625 306.175781 23.359375 C 305.878906 23.0625 305.714844 22.660156 305.714844 22.238281 C 305.714844 21.820313 305.878906 21.417969 306.175781 21.121094 C 306.472656 20.824219 306.875 20.660156 307.296875 20.660156 Z M 307.296875 20.660156 " transform="matrix(1,0,0,-1,0,144)"/>
<path style="fill:none;stroke-width:0.5;stroke-linecap:butt;stroke-linejoin:round;stroke:rgb(0%,0%,0%);stroke-opacity:1;stroke-miterlimit:10;" d="M 13.578125 67.367188 Z M 13.578125 67.367188 " transform="matrix(1,0,0,-1,0,144)"/>
<path style="fill:none;stroke-width:0.5;stroke-linecap:butt;stroke-linejoin:round;stroke:rgb(0%,0%,0%);stroke-opacity:0.01;stroke-miterlimit:10;" d="M 403.34375 50.5 C 407.515625 50.5 411.515625 52.15625 414.46875 55.109375 C 417.417969 58.058594 419.074219 62.058594 419.074219 66.230469 C 419.074219 70.402344 417.417969 74.40625 414.46875 77.355469 C 411.515625 80.304688 407.515625 81.964844 403.34375 81.964844 C 399.171875 81.964844 395.167969 80.304688 392.21875 77.355469 C 389.269531 74.40625 387.609375 70.402344 387.609375 66.230469 C 387.609375 62.058594 389.269531 58.058594 392.21875 55.109375 C 395.167969 52.15625 399.171875 50.5 403.34375 50.5 Z M 403.34375 50.5 " transform="matrix(1,0,0,-1,0,144)"/>
<path style="fill:none;stroke-width:0.5;stroke-linecap:butt;stroke-linejoin:round;stroke:rgb(0%,0%,0%);stroke-opacity:0.02;stroke-miterlimit:10;" d="M 297.144531 58.996094 C 301.296875 58.996094 305.277344 60.644531 308.214844 63.578125 C 311.148438 66.515625 312.796875 70.496094 312.796875 74.648438 C 312.796875 78.796875 311.148438 82.78125 308.214844 85.714844 C 305.277344 88.648438 301.296875 90.300781 297.144531 90.300781 C 292.996094 90.300781 289.011719 88.648438 286.078125 85.714844 C 283.144531 82.78125 281.492188 78.796875 281.492188 74.648438 C 281.492188 70.496094 283.144531 66.515625 286.078125 63.578125 C 289.011719 60.644531 292.996094 58.996094 297.144531 58.996094 Z M 297.144531 58.996094 " transform="matrix(1,0,0,-1,0,144)"/>
<path style="fill:none;stroke-width:0.5;stroke-linecap:butt;stroke-linejoin:round;stroke:rgb(0%,0%,0%);stroke-opacity:0.03;stroke-miterlimit:10;" d="M 12.296875 123.261719 C 16.429688 123.261719 20.390625 124.902344 23.308594 127.824219 C 26.230469 130.742188 27.871094 134.703125 27.871094 138.832031 C 27.871094 142.964844 26.230469 146.925781 23.308594 149.84375 C 20.390625 152.765625 16.429688 154.40625 12.296875 154.40625 C 8.167969 154.40625 4.207031 152.765625 1.289063 149.84375 C -1.632813 146.925781 -3.273438 142.964844 -3.273438 138.832031 C -3.273438 134.703125 -1.632813 130.742188 1.289063 127.824219 C 4.207031 124.902344 8.167969 123.261719 12.296875 123.261719 Z M 12.296875 123.261719 " transform="matrix(1,0,0,-1,0,144)"/>
<path style="fill:none;stroke-width:0.5;stroke-linecap:butt;stroke-linejoin:round;stroke:rgb(0%,0%,0%);stroke-opacity:0.04;stroke-miterlimit:10;" d="M 392.574219 60.667969 C 396.683594 60.667969 400.625 62.300781 403.53125 65.207031 C 406.433594 68.113281 408.066406 72.054688 408.066406 76.160156 C 408.066406 80.269531 406.433594 84.210938 403.53125 87.117188 C 400.625 90.019531 396.683594 91.652344 392.574219 91.652344 C 388.464844 91.652344 384.527344 90.019531 381.621094 87.117188 C 378.714844 84.210938 377.082031 80.269531 377.082031 76.160156 C 377.082031 72.054688 378.714844 68.113281 381.621094 65.207031 C 384.527344 62.300781 388.464844 60.667969 392.574219 60.667969 Z M 392.574219 60.667969 " transform="matrix(1,0,0,-1,0,144)"/>
<path style="fill:none;stroke-width:0.5;stroke-linecap:butt;stroke-linejoin:round;stroke:rgb(0%,0%,0%);stroke-opacity:0.05;stroke-miterlimit:10;" d="M 332.621094 68.375 C 336.707031 68.375 340.628906 70 343.519531 72.890625 C 346.40625 75.777344 348.03125 79.699219 348.03125 83.785156 C 348.03125 87.875 346.40625 91.792969 343.519531 94.683594 C 340.628906 97.574219 336.707031 99.199219 332.621094 99.199219 C 328.535156 99.199219 324.613281 97.574219 321.722656 94.683594 C 318.832031 91.792969 317.210938 87.875 317.210938 83.785156 C 317.210938 79.699219 318.832031 75.777344 321.722656 72.890625 C 324.613281 70 328.535156 68.375 332.621094 68.375 Z M 332.621094 68.375 " transform="matrix(1,0,0,-1,0,144)"/>
<path style="fill:none;stroke-width:0.5;stroke-linecap:butt;stroke-linejoin:round;stroke:rgb(0%,0%,0%);stroke-opacity:0.06;stroke-miterlimit:10;" d="M 286.644531 116.910156 C 290.710938 116.910156 294.609375 118.527344 297.484375 121.402344 C 300.359375 124.277344 301.976563 128.175781 301.976563 132.242188 C 301.976563 136.304688 300.359375 140.207031 297.484375 143.082031 C 294.609375 145.953125 290.710938 147.570313 286.644531 147.570313 C 282.578125 147.570313 278.679688 145.953125 275.804688 143.082031 C 272.929688 140.207031 271.316406 136.304688 271.316406 132.242188 C 271.316406 128.175781 272.929688 124.277344 275.804688 121.402344 C 278.679688 118.527344 282.578125 116.910156 286.644531 116.910156 Z M 286.644531 116.910156 " transform="matrix(1,0,0,-1,0,144)"/>
<path style="fill:none;stroke-width:0.5;stroke-linecap:butt;stroke-linejoin:round;stroke:rgb(0%,0%,0%);stroke-opacity:0.07;stroke-miterlimit:10;" d="M 249.660156 68.496094 C 253.703125 68.496094 257.582031 70.101563 260.441406 72.960938 C 263.300781 75.820313 264.910156 79.699219 264.910156 83.746094 C 264.910156 87.789063 263.300781 91.667969 260.441406 94.527344 C 257.582031 97.386719 253.703125 98.992188 249.660156 98.992188 C 245.617188 98.992188 241.738281 97.386719 238.878906 94.527344 C 236.019531 91.667969 234.414063 87.789063 234.414063 83.746094 C 234.414063 79.699219 236.019531 75.820313 238.878906 72.960938 C 241.738281 70.101563 245.617188 68.496094 249.660156 68.496094 Z M 249.660156 68.496094 " transform="matrix(1,0,0,-1,0,144)"/>
<path style="fill:none;stroke-width:0.5;stroke-linecap:butt;stroke-linejoin:round;stroke:rgb(0%,0%,0%);stroke-opacity:0.08;stroke-miterlimit:10;" d="M 426.164063 13.8125 C 430.183594 13.8125 434.042969 15.410156 436.886719 18.253906 C 439.730469 21.097656 441.328125 24.957031 441.328125 28.980469 C 441.328125 33 439.730469 36.859375 436.886719 39.703125 C 434.042969 42.546875 430.183594 44.144531 426.164063 44.144531 C 422.140625 44.144531 418.28125 42.546875 415.4375 39.703125 C 412.59375 36.859375 410.996094 33 410.996094 28.980469 C 410.996094 24.957031 412.59375 21.097656 415.4375 18.253906 C 418.28125 15.410156 422.140625 13.8125 426.164063 13.8125 Z M 426.164063 13.8125 " transform="matrix(1,0,0,-1,0,144)"/>
<path style="fill:none;stroke-width:0.5;stroke-linecap:butt;stroke-linejoin:round;stroke:rgb(0%,0%,0%);stroke-opacity:0.09;stroke-miterlimit:10;" d="M 360.773438 72.976563 C 364.777344 72.976563 368.613281 74.566406 371.441406 77.394531 C 374.269531 80.222656 375.859375 84.0625 375.859375 88.0625 C 375.859375 92.0625 374.269531 95.898438 371.441406 98.726563 C 368.613281 101.554688 364.777344 103.144531 360.773438 103.144531 C 356.773438 103.144531 352.9375 101.554688 350.109375 98.726563 C 347.28125 95.898438 345.691406 92.0625 345.691406 88.0625 C 345.691406 84.0625 347.28125 80.222656 350.109375 77.394531 C 352.9375 74.566406 356.773438 72.976563 360.773438 72.976563 Z M 360.773438 72.976563 " transform="matrix(1,0,0,-1,0,144)"/>
<path style="fill:none;stroke-width:0.5;stroke-linecap:butt;stroke-linejoin:round;stroke:rgb(0%,0%,0%);stroke-opacity:0.1;stroke-miterlimit:10;" d="M 71.550781 122.300781 C 75.527344 122.300781 79.34375 123.882813 82.15625 126.695313 C 84.96875 129.507813 86.550781 133.324219 86.550781 137.300781 C 86.550781 141.277344 84.96875 145.09375 82.15625 147.90625 C 79.34375 150.71875 75.527344 152.300781 71.550781 152.300781 C 67.570313 152.300781 63.757813 150.71875 60.941406 147.90625 C 58.128906 145.09375 56.550781 141.277344 56.550781 137.300781 C 56.550781 133.324219 58.128906 129.507813 60.941406 126.695313 C 63.757813 123.882813 67.570313 122.300781 71.550781 122.300781 Z M 71.550781 122.300781 " transform="matrix(1,0,0,-1,0,144)"/>
<path style="fill:none;stroke-width:0.5;stroke-linecap:butt;stroke-linejoin:round;stroke:rgb(0%,0%,0%);stroke-opacity:0.11;stroke-miterlimit:10;" d="M 187.75 15.949219 C 191.707031 15.949219 195.5 17.519531 198.296875 20.316406 C 201.09375 23.113281 202.667969 26.90625 202.667969 30.863281 C 202.667969 34.820313 201.09375 38.613281 198.296875 41.410156 C 195.5 44.207031 191.707031 45.78125 187.75 45.78125 C 183.792969 45.78125 180 44.207031 177.203125 41.410156 C 174.40625 38.613281 172.832031 34.820313 172.832031 30.863281 C 172.832031 26.90625 174.40625 23.113281 177.203125 20.316406 C 180 17.519531 183.792969 15.949219 187.75 15.949219 Z M 187.75 15.949219 " transform="matrix(1,0,0,-1,0,144)"/>
<path style="fill:none;stroke-width:0.5;stroke-linecap:butt;stroke-linejoin:round;stroke:rgb(0%,0%,0%);stroke-opacity:0.12;stroke-miterlimit:10;" d="M 381.484375 86.71875 C 385.417969 86.71875 389.191406 88.28125 391.972656 91.0625 C 394.753906 93.84375 396.316406 97.617188 396.316406 101.550781 C 396.316406 105.484375 394.753906 109.253906 391.972656 112.039063 C 389.191406 114.820313 385.417969 116.382813 381.484375 116.382813 C 377.550781 116.382813 373.777344 114.820313 370.996094 112.039063 C 368.214844 109.253906 366.652344 105.484375 366.652344 101.550781 C 366.652344 97.617188 368.214844 93.84375 370.996094 91.0625 C 373.777344 88.28125 377.550781 86.71875 381.484375 86.71875 Z M 381.484375 86.71875 " transform="matrix(1,0,0,-1,0,144)"/>
<path style="fill:none;stroke-width:0.5;stroke-linecap:butt;stroke-linejoin:round;stroke:rgb(0%,0%,0%);stroke-opacity:0.13;stroke-miterlimit:10;" d="M 32.207031 17.5 C 36.117188 17.5 39.867188 19.054688 42.632813 21.820313 C 45.398438 24.585938 46.953125 28.335938 46.953125 32.246094 C 46.953125 36.15625 45.398438 39.910156 42.632813 42.675781 C 39.867188 45.441406 36.117188 46.996094 32.207031 46.996094 C 28.296875 46.996094 24.542969 45.441406 21.777344 42.675781 C 19.011719 39.910156 17.457031 36.15625 17.457031 32.246094 C 17.457031 28.335938 19.011719 24.585938 21.777344 21.820313 C 24.542969 19.054688 28.296875 17.5 32.207031 17.5 Z M 32.207031 17.5 " transform="matrix(1,0,0,-1,0,144)"/>
<path style="fill:none;stroke-width:0.5;stroke-linecap:butt;stroke-linejoin:round;stroke:rgb(0%,0%,0%);stroke-opacity:0.14;stroke-miterlimit:10;" d="M 25.9375 -8.597656 C 29.828125 -8.597656 33.558594 -7.050781 36.308594 -4.300781 C 39.058594 -1.550781 40.601563 2.179688 40.601563 6.066406 C 40.601563 9.957031 39.058594 13.6875 36.308594 16.433594 C 33.558594 19.183594 29.828125 20.730469 25.9375 20.730469 C 22.050781 20.730469 18.320313 19.183594 15.570313 16.433594 C 12.820313 13.6875 11.277344 9.957031 11.277344 6.066406 C 11.277344 2.179688 12.820313 -1.550781 15.570313 -4.300781 C 18.320313 -7.050781 22.050781 -8.597656 25.9375 -8.597656 Z M 25.9375 -8.597656 " transform="matrix(1,0,0,-1,0,144)"/>
<path style="fill:none;stroke-width:0.5;stroke-linecap:butt;stroke-linejoin:round;stroke:rgb(0%,0%,0%);stroke-opacity:0.15;stroke-miterlimit:10;" d="M 64.585938 58.0625 C 68.453125 58.0625 72.160156 59.601563 74.894531 62.332031 C 77.628906 65.066406 79.164063 68.773438 79.164063 72.640625 C 79.164063 76.507813 77.628906 80.214844 74.894531 82.949219 C 72.160156 85.683594 68.453125 87.21875 64.585938 87.21875 C 60.722656 87.21875 57.011719 85.683594 54.277344 82.949219 C 51.546875 80.214844 50.007813 76.507813 50.007813 72.640625 C 50.007813 68.773438 51.546875 65.066406 54.277344 62.332031 C 57.011719 59.601563 60.722656 58.0625 64.585938 58.0625 Z M 64.585938 58.0625 " transform="matrix(1,0,0,-1,0,144)"/>
<path style="fill:none;stroke-width:0.5;stroke-linecap:butt;stroke-linejoin:round;stroke:rgb(0%,0%,0%);stroke-opacity:0.16;stroke-miterlimit:10;" d="M 404.132813 -5.402344 C 407.976563 -5.402344 411.664063 -3.875 414.382813 -1.160156 C 417.097656 1.558594 418.625 5.246094 418.625 9.089844 C 418.625 12.929688 417.097656 16.617188 414.382813 19.335938 C 411.664063 22.050781 407.976563 23.578125 404.132813 23.578125 C 400.289063 23.578125 396.605469 22.050781 393.886719 19.335938 C 391.167969 16.617188 389.644531 12.929688 389.644531 9.089844 C 389.644531 5.246094 391.167969 1.558594 393.886719 -1.160156 C 396.605469 -3.875 400.289063 -5.402344 404.132813 -5.402344 Z M 404.132813 -5.402344 " transform="matrix(1,0,0,-1,0,144)"/>
<path style="fill:none;stroke-width:0.5;stroke-linecap:butt;stroke-linejoin:round;stroke:rgb(0%,0%,0%);stroke-opacity:0.17;stroke-miterlimit:10;" d="M 87.59375 100.433594 C 91.414063 100.433594 95.078125 101.953125 97.78125 104.652344 C 100.480469 107.355469 102 111.019531 102 114.839844 C 102 118.660156 100.480469 122.324219 97.78125 125.023438 C 95.078125 127.726563 91.414063 129.242188 87.59375 129.242188 C 83.773438 129.242188 80.109375 127.726563 77.410156 125.023438 C 74.707031 122.324219 73.191406 118.660156 73.191406 114.839844 C 73.191406 111.019531 74.707031 107.355469 77.410156 104.652344 C 80.109375 101.953125 83.773438 100.433594 87.59375 100.433594 Z M 87.59375 100.433594 " transform="matrix(1,0,0,-1,0,144)"/>
<path style="fill:none;stroke-width:0.5;stroke-linecap:butt;stroke-linejoin:round;stroke:rgb(0%,0%,0%);stroke-opacity:0.18;stroke-miterlimit:10;" d="M 33.558594 74.164063 C 37.355469 74.164063 41 75.671875 43.683594 78.355469 C 46.371094 81.039063 47.878906 84.683594 47.878906 88.480469 C 47.878906 92.277344 46.371094 95.917969 43.683594 98.605469 C 41 101.289063 37.355469 102.796875 33.558594 102.796875 C 29.761719 102.796875 26.121094 101.289063 23.4375 98.605469 C 20.75 95.917969 19.242188 92.277344 19.242188 88.480469 C 19.242188 84.683594 20.75 81.039063 23.4375 78.355469 C 26.121094 75.671875 29.761719 74.164063 33.558594 74.164063 Z M 33.558594 74.164063 " transform="matrix(1,0,0,-1,0,144)"/>
<path style="fill:none;stroke-width:0.5;stroke-linecap:butt;stroke-linejoin:round;stroke:rgb(0%,0%,0%);stroke-opacity:0.19;stroke-miterlimit:10;" d="M 189.898438 48.371094 C 193.671875 48.371094 197.292969 49.871094 199.960938 52.539063 C 202.628906 55.207031 204.128906 58.828125 204.128906 62.601563 C 204.128906 66.375 202.628906 69.996094 199.960938 72.664063 C 197.292969 75.332031 193.671875 76.832031 189.898438 76.832031 C 186.125 76.832031 182.503906 75.332031 179.835938 72.664063 C 177.167969 69.996094 175.667969 66.375 175.667969 62.601563 C 175.667969 58.828125 177.167969 55.207031 179.835938 52.539063 C 182.503906 49.871094 186.125 48.371094 189.898438 48.371094 Z M 189.898438 48.371094 " transform="matrix(1,0,0,-1,0,144)"/>
<path style="fill:none;stroke-width:0.5;stroke-linecap:butt;stroke-linejoin:round;stroke:rgb(0%,0%,0%);stroke-opacity:0.2;stroke-miterlimit:10;" d="M 326.804688 33.695313 C 330.554688 33.695313 334.152344 35.183594 336.804688 37.835938 C 339.457031 40.488281 340.945313 44.085938 340.945313 47.835938 C 340.945313 51.585938 339.457031 55.183594 336.804688 57.835938 C 334.152344 60.488281 330.554688 61.976563 326.804688 61.976563 C 323.054688 61.976563 319.457031 60.488281 316.804688 57.835938 C 314.152344 55.183594 312.660156 51.585938 312.660156 47.835938 C 312.660156 44.085938 314.152344 40.488281 316.804688 37.835938 C 319.457031 35.183594 323.054688 33.695313 326.804688 33.695313 Z M 326.804688 33.695313 " transform="matrix(1,0,0,-1,0,144)"/>
<path style="fill:none;stroke-width:0.5;stroke-linecap:butt;stroke-linejoin:round;stroke:rgb(0%,0%,0%);stroke-opacity:0.21;stroke-miterlimit:10;" d="M 15.132813 108.746094 C 18.863281 108.746094 22.4375 110.226563 25.070313 112.859375 C 27.707031 115.496094 29.1875 119.070313 29.1875 122.796875 C 29.1875 126.523438 27.707031 130.101563 25.070313 132.734375 C 22.4375 135.371094 18.863281 136.851563 15.132813 136.851563 C 11.40625 136.851563 7.832031 135.371094 5.195313 132.734375 C 2.5625 130.101563 1.082031 126.523438 1.082031 122.796875 C 1.082031 119.070313 2.5625 115.496094 5.195313 112.859375 C 7.832031 110.226563 11.40625 108.746094 15.132813 108.746094 Z M 15.132813 108.746094 " transform="matrix(1,0,0,-1,0,144)"/>
<path style="fill:none;stroke-width:0.5;stroke-linecap:butt;stroke-linejoin:round;stroke:rgb(0%,0%,0%);stroke-opacity:0.22;stroke-miterlimit:10;" d="M 46.445313 65.617188 C 50.148438 65.617188 53.699219 67.085938 56.320313 69.707031 C 58.9375 72.324219 60.410156 75.875 60.410156 79.578125 C 60.410156 83.28125 58.9375 86.835938 56.320313 89.453125 C 53.699219 92.074219 50.148438 93.542969 46.445313 93.542969 C 42.742188 93.542969 39.191406 92.074219 36.570313 89.453125 C 33.953125 86.835938 32.480469 83.28125 32.480469 79.578125 C 32.480469 75.875 33.953125 72.324219 36.570313 69.707031 C 39.191406 67.085938 42.742188 65.617188 46.445313 65.617188 Z M 46.445313 65.617188 " transform="matrix(1,0,0,-1,0,144)"/>
<path style="fill:none;stroke-width:0.5;stroke-linecap:butt;stroke-linejoin:round;stroke:rgb(0%,0%,0%);stroke-opacity:0.23;stroke-miterlimit:10;" d="M 279.757813 -10.273438 C 283.4375 -10.273438 286.96875 -8.808594 289.570313 -6.207031 C 292.171875 -3.605469 293.632813 -0.078125 293.632813 3.601563 C 293.632813 7.28125 292.171875 10.8125 289.570313 13.414063 C 286.96875 16.015625 283.4375 17.476563 279.757813 17.476563 C 276.078125 17.476563 272.550781 16.015625 269.949219 13.414063 C 267.34375 10.8125 265.882813 7.28125 265.882813 3.601563 C 265.882813 -0.078125 267.34375 -3.605469 269.949219 -6.207031 C 272.550781 -8.808594 276.078125 -10.273438 279.757813 -10.273438 Z M 279.757813 -10.273438 " transform="matrix(1,0,0,-1,0,144)"/>
<path style="fill:none;stroke-width:0.5;stroke-linecap:butt;stroke-linejoin:round;stroke:rgb(0%,0%,0%);stroke-opacity:0.24;stroke-miterlimit:10;" d="M 126.0625 94.875 C 129.714844 94.875 133.222656 96.328125 135.808594 98.914063 C 138.390625 101.496094 139.84375 105.003906 139.84375 108.660156 C 139.84375 112.316406 138.390625 115.820313 135.808594 118.40625 C 133.222656 120.992188 129.714844 122.441406 126.0625 122.441406 C 122.40625 122.441406 118.898438 120.992188 116.3125 118.40625 C 113.730469 115.820313 112.277344 112.316406 112.277344 108.660156 C 112.277344 105.003906 113.730469 101.496094 116.3125 98.914063 C 118.898438 96.328125 122.40625 94.875 126.0625 94.875 Z M 126.0625 94.875 " transform="matrix(1,0,0,-1,0,144)"/>
<path style="fill:none;stroke-width:0.5;stroke-linecap:butt;stroke-linejoin:round;stroke:rgb(0%,0%,0%);stroke-opacity:0.25;stroke-miterlimit:10;" d="M 427.894531 -3.273438 C 431.527344 -3.273438 435.007813 -1.832031 437.578125 0.734375 C 440.144531 3.304688 441.585938 6.785156 441.585938 10.417969 C 441.585938 14.050781 440.144531 17.53125 437.578125 20.101563 C 435.007813 22.667969 431.527344 24.113281 427.894531 24.113281 C 424.261719 24.113281 420.78125 22.667969 418.210938 20.101563 C 415.644531 17.53125 414.203125 14.050781 414.203125 10.417969 C 414.203125 6.785156 415.644531 3.304688 418.210938 0.734375 C 420.78125 -1.832031 424.261719 -3.273438 427.894531 -3.273438 Z M 427.894531 -3.273438 " transform="matrix(1,0,0,-1,0,144)"/>
<path style="fill:none;stroke-width:0.5;stroke-linecap:butt;stroke-linejoin:round;stroke:rgb(0%,0%,0%);stroke-opacity:0.26;stroke-miterlimit:10;" d="M 391.78125 70.179688 C 395.386719 70.179688 398.847656 71.613281 401.398438 74.164063 C 403.949219 76.714844 405.378906 80.175781 405.378906 83.78125 C 405.378906 87.390625 403.949219 90.847656 401.398438 93.398438 C 398.847656 95.949219 395.386719 97.382813 391.78125 97.382813 C 388.171875 97.382813 384.710938 95.949219 382.160156 93.398438 C 379.609375 90.847656 378.179688 87.390625 378.179688 83.78125 C 378.179688 80.175781 379.609375 76.714844 382.160156 74.164063 C 384.710938 71.613281 388.171875 70.179688 391.78125 70.179688 Z M 391.78125 70.179688 " transform="matrix(1,0,0,-1,0,144)"/>
<path style="fill:none;stroke-width:0.5;stroke-linecap:butt;stroke-linejoin:round;stroke:rgb(0%,0%,0%);stroke-opacity:0.27;stroke-miterlimit:10;" d="M 316.566406 1.035156 C 320.152344 1.035156 323.585938 2.457031 326.121094 4.992188 C 328.652344 7.523438 330.078125 10.960938 330.078125 14.542969 C 330.078125 18.125 328.652344 21.5625 326.121094 24.09375 C 323.585938 26.628906 320.152344 28.050781 316.566406 28.050781 C 312.984375 28.050781 309.550781 26.628906 307.015625 24.09375 C 304.480469 21.5625 303.058594 18.125 303.058594 14.542969 C 303.058594 10.960938 304.480469 7.523438 307.015625 4.992188 C 309.550781 2.457031 312.984375 1.035156 316.566406 1.035156 Z M 316.566406 1.035156 " transform="matrix(1,0,0,-1,0,144)"/>
<path style="fill:none;stroke-width:0.5;stroke-linecap:butt;stroke-linejoin:round;stroke:rgb(0%,0%,0%);stroke-opacity:0.28;stroke-miterlimit:10;" d="M 260.214844 9.953125 C 263.769531 9.953125 267.183594 11.367188 269.699219 13.882813 C 272.214844 16.398438 273.628906 19.8125 273.628906 23.371094 C 273.628906 26.929688 272.214844 30.339844 269.699219 32.855469 C 267.183594 35.371094 263.769531 36.785156 260.214844 36.785156 C 256.65625 36.785156 253.242188 35.371094 250.726563 32.855469 C 248.210938 30.339844 246.796875 26.929688 246.796875 23.371094 C 246.796875 19.8125 248.210938 16.398438 250.726563 13.882813 C 253.242188 11.367188 256.65625 9.953125 260.214844 9.953125 Z M 260.214844 9.953125 " transform="matrix(1,0,0,-1,0,144)"/>
<path style="fill:none;stroke-width:0.5;stroke-linecap:butt;stroke-linejoin:round;stroke:rgb(0%,0%,0%);stroke-opacity:0.29;stroke-miterlimit:10;" d="M 138.730469 59.230469 C 142.265625 59.230469 145.652344 60.632813 148.152344 63.132813 C 150.652344 65.632813 152.054688 69.019531 152.054688 72.554688 C 152.054688 76.085938 150.652344 79.476563 148.152344 81.972656 C 145.652344 84.472656 142.265625 85.875 138.730469 85.875 C 135.199219 85.875 131.808594 84.472656 129.3125 81.972656 C 126.8125 79.476563 125.410156 76.085938 125.410156 72.554688 C 125.410156 69.019531 126.8125 65.632813 129.3125 63.132813 C 131.808594 60.632813 135.199219 59.230469 138.730469 59.230469 Z M 138.730469 59.230469 " transform="matrix(1,0,0,-1,0,144)"/>
<path style="fill:none;stroke-width:0.5;stroke-linecap:butt;stroke-linejoin:round;stroke:rgb(0%,0%,0%);stroke-opacity:0.3;stroke-miterlimit:10;" d="M 87.199219 95.730469 C 90.707031 95.730469 94.070313 97.125 96.550781 99.605469 C 99.035156 102.085938 100.425781 105.449219 100.425781 108.957031 C 100.425781 112.464844 99.035156 115.832031 96.550781 118.3125 C 94.070313 120.792969 90.707031 122.1875 87.199219 122.1875 C 83.691406 122.1875 80.324219 120.792969 77.84375 118.3125 C 75.363281 115.832031 73.96875 112.464844 73.96875 108.957031 C 73.96875 105.449219 75.363281 102.085938 77.84375 99.605469 C 80.324219 97.125 83.691406 95.730469 87.199219 95.730469 Z M 87.199219 95.730469 " transform="matrix(1,0,0,-1,0,144)"/>
<path style="fill:none;stroke-width:0.5;stroke-linecap:butt;stroke-linejoin:round;stroke:rgb(0%,0%,0%);stroke-opacity:0.31;stroke-miterlimit:10;" d="M 59.882813 96.707031 C 63.363281 96.707031 66.707031 98.089844 69.167969 100.550781 C 71.632813 103.015625 73.015625 106.355469 73.015625 109.839844 C 73.015625 113.320313 71.632813 116.664063 69.167969 119.125 C 66.707031 121.589844 63.363281 122.972656 59.882813 122.972656 C 56.398438 122.972656 53.058594 121.589844 50.59375 119.125 C 48.132813 116.664063 46.746094 113.320313 46.746094 109.839844 C 46.746094 106.355469 48.132813 103.015625 50.59375 100.550781 C 53.058594 98.089844 56.398438 96.707031 59.882813 96.707031 Z M 59.882813 96.707031 " transform="matrix(1,0,0,-1,0,144)"/>
<path style="fill:none;stroke-width:0.5;stroke-linecap:butt;stroke-linejoin:round;stroke:rgb(0%,0%,0%);stroke-opacity:0.32;stroke-miterlimit:10;" d="M 166.894531 32.550781 C 170.351563 32.550781 173.671875 33.925781 176.113281 36.371094 C 178.558594 38.816406 179.933594 42.132813 179.933594 45.589844 C 179.933594 49.046875 178.558594 52.363281 176.113281 54.808594 C 173.671875 57.253906 170.351563 58.628906 166.894531 58.628906 C 163.4375 58.628906 160.121094 57.253906 157.675781 54.808594 C 155.230469 52.363281 153.855469 49.046875 153.855469 45.589844 C 153.855469 42.132813 155.230469 38.816406 157.675781 36.371094 C 160.121094 33.925781 163.4375 32.550781 166.894531 32.550781 Z M 166.894531 32.550781 " transform="matrix(1,0,0,-1,0,144)"/>
<path style="fill:none;stroke-width:0.5;stroke-linecap:butt;stroke-linejoin:round;stroke:rgb(0%,0%,0%);stroke-opacity:0.33;stroke-miterlimit:10;" d="M 169.707031 124.738281 C 173.140625 124.738281 176.429688 126.105469 178.859375 128.53125 C 181.285156 130.957031 182.648438 134.25 182.648438 137.683594 C 182.648438 141.113281 181.285156 144.40625 178.859375 146.832031 C 176.429688 149.261719 173.140625 150.625 169.707031 150.625 C 166.273438 150.625 162.984375 149.261719 160.554688 146.832031 C 158.128906 144.40625 156.765625 141.113281 156.765625 137.683594 C 156.765625 134.25 158.128906 130.957031 160.554688 128.53125 C 162.984375 126.105469 166.273438 124.738281 169.707031 124.738281 Z M 169.707031 124.738281 " transform="matrix(1,0,0,-1,0,144)"/>
<path style="fill:none;stroke-width:0.5;stroke-linecap:butt;stroke-linejoin:round;stroke:rgb(0%,0%,0%);stroke-opacity:0.34;stroke-miterlimit:10;" d="M 306.972656 102.5625 C 310.378906 102.5625 313.644531 103.917969 316.054688 106.324219 C 318.464844 108.734375 319.816406 112.003906 319.816406 115.410156 C 319.816406 118.816406 318.464844 122.082031 316.054688 124.492188 C 313.644531 126.902344 310.378906 128.253906 306.972656 128.253906 C 303.566406 128.253906 300.296875 126.902344 297.890625 124.492188 C 295.480469 122.082031 294.128906 118.816406 294.128906 115.410156 C 294.128906 112.003906 295.480469 108.734375 297.890625 106.324219 C 300.296875 103.917969 303.566406 102.5625 306.972656 102.5625 Z M 306.972656 102.5625 " transform="matrix(1,0,0,-1,0,144)"/>
<path style="fill:none;stroke-width:0.5;stroke-linecap:butt;stroke-linejoin:round;stroke:rgb(0%,0%,0%);stroke-opacity:0.35;stroke-miterlimit:10;" d="M 202.761719 125.414063 C 206.140625 125.414063 209.386719 126.757813 211.777344 129.148438 C 214.164063 131.539063 215.507813 134.78125 215.507813 138.164063 C 215.507813 141.542969 214.164063 144.785156 211.777344 147.175781 C 209.386719 149.566406 206.140625 150.910156 202.761719 150.910156 C 199.382813 150.910156 196.136719 149.566406 193.746094 147.175781 C 191.355469 144.785156 190.015625 141.542969 190.015625 138.164063 C 190.015625 134.78125 191.355469 131.539063 193.746094 129.148438 C 196.136719 126.757813 199.382813 125.414063 202.761719 125.414063 Z M 202.761719 125.414063 " transform="matrix(1,0,0,-1,0,144)"/>
<path style="fill:none;stroke-width:0.5;stroke-linecap:butt;stroke-linejoin:round;stroke:rgb(0%,0%,0%);stroke-opacity:0.36;stroke-miterlimit:10;" d="M 371.390625 19.980469 C 374.746094 19.980469 377.964844 21.3125 380.335938 23.6875 C 382.707031 26.058594 384.039063 29.277344 384.039063 32.628906 C 384.039063 35.984375 382.707031 39.203125 380.335938 41.574219 C 377.964844 43.945313 374.746094 45.28125 371.390625 45.28125 C 368.035156 45.28125 364.820313 43.945313 362.445313 41.574219 C 360.074219 39.203125 358.742188 35.984375 358.742188 32.628906 C 358.742188 29.277344 360.074219 26.058594 362.445313 23.6875 C 364.820313 21.3125 368.035156 19.980469 371.390625 19.980469 Z M 371.390625 19.980469 " transform="matrix(1,0,0,-1,0,144)"/>
<path style="fill:none;stroke-width:0.5;stroke-linecap:butt;stroke-linejoin:round;stroke:rgb(0%,0%,0%);stroke-opacity:0.37;stroke-miterlimit:10;" d="M 59.828125 79.847656 C 63.15625 79.847656 66.351563 81.167969 68.703125 83.523438 C 71.058594 85.875 72.378906 89.066406 72.378906 92.394531 C 72.378906 95.722656 71.058594 98.917969 68.703125 101.269531 C 66.351563 103.625 63.15625 104.945313 59.828125 104.945313 C 56.5 104.945313 53.308594 103.625 50.957031 101.269531 C 48.601563 98.917969 47.28125 95.722656 47.28125 92.394531 C 47.28125 89.066406 48.601563 85.875 50.957031 83.523438 C 53.308594 81.167969 56.5 79.847656 59.828125 79.847656 Z M 59.828125 79.847656 " transform="matrix(1,0,0,-1,0,144)"/>
<path style="fill:none;stroke-width:0.5;stroke-linecap:butt;stroke-linejoin:round;stroke:rgb(0%,0%,0%);stroke-opacity:0.38;stroke-miterlimit:10;" d="M 281.628906 71.488281 C 284.929688 71.488281 288.097656 72.800781 290.429688 75.132813 C 292.765625 77.46875 294.078125 80.636719 294.078125 83.9375 C 294.078125 87.238281 292.765625 90.40625 290.429688 92.742188 C 288.097656 95.074219 284.929688 96.386719 281.628906 96.386719 C 278.324219 96.386719 275.160156 95.074219 272.824219 92.742188 C 270.488281 90.40625 269.175781 87.238281 269.175781 83.9375 C 269.175781 80.636719 270.488281 77.46875 272.824219 75.132813 C 275.160156 72.800781 278.324219 71.488281 281.628906 71.488281 Z M 281.628906 71.488281 " transform="matrix(1,0,0,-1,0,144)"/>
<path style="fill:none;stroke-width:0.5;stroke-linecap:butt;stroke-linejoin:round;stroke:rgb(0%,0%,0%);stroke-opacity:0.39;stroke-miterlimit:10;" d="M 343.664063 94.101563 C 346.9375 94.101563 350.082031 95.402344 352.394531 97.71875 C 354.710938 100.035156 356.011719 103.175781 356.011719 106.453125 C 356.011719 109.726563 354.710938 112.867188 352.394531 115.183594 C 350.082031 117.5 346.9375 118.800781 343.664063 118.800781 C 340.390625 118.800781 337.246094 117.5 334.933594 115.183594 C 332.617188 112.867188 331.316406 109.726563 331.316406 106.453125 C 331.316406 103.175781 332.617188 100.035156 334.933594 97.71875 C 337.246094 95.402344 340.390625 94.101563 343.664063 94.101563 Z M 343.664063 94.101563 " transform="matrix(1,0,0,-1,0,144)"/>
<path style="fill:none;stroke-width:0.5;stroke-linecap:butt;stroke-linejoin:round;stroke:rgb(0%,0%,0%);stroke-opacity:0.4;stroke-miterlimit:10;" d="M 173.136719 -2.792969 C 176.386719 -2.792969 179.5 -1.503906 181.796875 0.792969 C 184.09375 3.089844 185.386719 6.207031 185.386719 9.453125 C 185.386719 12.703125 184.09375 15.816406 181.796875 18.113281 C 179.5 20.410156 176.386719 21.703125 173.136719 21.703125 C 169.890625 21.703125 166.773438 20.410156 164.476563 18.113281 C 162.179688 15.816406 160.890625 12.703125 160.890625 9.453125 C 160.890625 6.207031 162.179688 3.089844 164.476563 0.792969 C 166.773438 -1.503906 169.890625 -2.792969 173.136719 -2.792969 Z M 173.136719 -2.792969 " transform="matrix(1,0,0,-1,0,144)"/>
<path style="fill:none;stroke-width:0.5;stroke-linecap:butt;stroke-linejoin:round;stroke:rgb(0%,0%,0%);stroke-opacity:0.41;stroke-miterlimit:10;" d="M 132.902344 72.644531 C 136.121094 72.644531 139.210938 73.925781 141.488281 76.203125 C 143.765625 78.480469 145.046875 81.570313 145.046875 84.789063 C 145.046875 88.011719 143.765625 91.101563 141.488281 93.378906 C 139.210938 95.65625 136.121094 96.933594 132.902344 96.933594 C 129.679688 96.933594 126.589844 95.65625 124.3125 93.378906 C 122.035156 91.101563 120.753906 88.011719 120.753906 84.789063 C 120.753906 81.570313 122.035156 78.480469 124.3125 76.203125 C 126.589844 73.925781 129.679688 72.644531 132.902344 72.644531 Z M 132.902344 72.644531 " transform="matrix(1,0,0,-1,0,144)"/>
<path style="fill:none;stroke-width:0.5;stroke-linecap:butt;stroke-linejoin:round;stroke:rgb(0%,0%,0%);stroke-opacity:0.42;stroke-miterlimit:10;" d="M 231.265625 3.375 C 234.457031 3.375 237.523438 4.644531 239.78125 6.902344 C 242.039063 9.160156 243.308594 12.222656 243.308594 15.414063 C 243.308594 18.609375 242.039063 21.671875 239.78125 23.929688 C 237.523438 26.1875 234.457031 27.457031 231.265625 27.457031 C 228.070313 27.457031 225.007813 26.1875 222.75 23.929688 C 220.492188 21.671875 219.222656 18.609375 219.222656 15.414063 C 219.222656 12.222656 220.492188 9.160156 222.75 6.902344 C 225.007813 4.644531 228.070313 3.375 231.265625 3.375 Z M 231.265625 3.375 " transform="matrix(1,0,0,-1,0,144)"/>
<path style="fill:none;stroke-width:0.5;stroke-linecap:butt;stroke-linejoin:round;stroke:rgb(0%,0%,0%);stroke-opacity:0.43;stroke-miterlimit:10;" d="M 47.140625 30.710938 C 50.304688 30.710938 53.34375 31.96875 55.582031 34.207031 C 57.820313 36.449219 59.078125 39.484375 59.078125 42.648438 C 59.078125 45.816406 57.820313 48.851563 55.582031 51.089844 C 53.34375 53.328125 50.304688 54.585938 47.140625 54.585938 C 43.976563 54.585938 40.9375 53.328125 38.699219 51.089844 C 36.460938 48.851563 35.203125 45.816406 35.203125 42.648438 C 35.203125 39.484375 36.460938 36.449219 38.699219 34.207031 C 40.9375 31.96875 43.976563 30.710938 47.140625 30.710938 Z M 47.140625 30.710938 " transform="matrix(1,0,0,-1,0,144)"/>
<path style="fill:none;stroke-width:0.5;stroke-linecap:butt;stroke-linejoin:round;stroke:rgb(0%,0%,0%);stroke-opacity:0.44;stroke-miterlimit:10;" d="M 322.671875 -4.953125 C 325.8125 -4.953125 328.820313 -3.707031 331.039063 -1.488281 C 333.257813 0.730469 334.503906 3.742188 334.503906 6.878906 C 334.503906 10.019531 333.257813 13.027344 331.039063 15.246094 C 328.820313 17.464844 325.8125 18.710938 322.671875 18.710938 C 319.535156 18.710938 316.527344 17.464844 314.308594 15.246094 C 312.089844 13.027344 310.839844 10.019531 310.839844 6.878906 C 310.839844 3.742188 312.089844 0.730469 314.308594 -1.488281 C 316.527344 -3.707031 319.535156 -4.953125 322.671875 -4.953125 Z M 322.671875 -4.953125 " transform="matrix(1,0,0,-1,0,144)"/>
<path style="fill:none;stroke-width:0.5;stroke-linecap:butt;stroke-linejoin:round;stroke:rgb(0%,0%,0%);stroke-opacity:0.45;stroke-miterlimit:10;" d="M 107.355469 11.917969 C 110.464844 11.917969 113.449219 13.152344 115.648438 15.351563 C 117.847656 17.550781 119.082031 20.535156 119.082031 23.644531 C 119.082031 26.753906 117.847656 29.738281 115.648438 31.933594 C 113.449219 34.132813 110.464844 35.371094 107.355469 35.371094 C 104.246094 35.371094 101.261719 34.132813 99.0625 31.933594 C 96.867188 29.738281 95.628906 26.753906 95.628906 23.644531 C 95.628906 20.535156 96.867188 17.550781 99.0625 15.351563 C 101.261719 13.152344 104.246094 11.917969 107.355469 11.917969 Z M 107.355469 11.917969 " transform="matrix(1,0,0,-1,0,144)"/>
<path style="fill:none;stroke-width:0.5;stroke-linecap:butt;stroke-linejoin:round;stroke:rgb(0%,0%,0%);stroke-opacity:0.46;stroke-miterlimit:10;" d="M 23.25 4.21875 C 26.328125 4.21875 29.285156 5.441406 31.464844 7.621094 C 33.644531 9.800781 34.867188 12.753906 34.867188 15.835938 C 34.867188 18.917969 33.644531 21.875 31.464844 24.050781 C 29.285156 26.230469 26.328125 27.457031 23.25 27.457031 C 20.167969 27.457031 17.210938 26.230469 15.03125 24.050781 C 12.855469 21.875 11.628906 18.917969 11.628906 15.835938 C 11.628906 12.753906 12.855469 9.800781 15.03125 7.621094 C 17.210938 5.441406 20.167969 4.21875 23.25 4.21875 Z M 23.25 4.21875 " transform="matrix(1,0,0,-1,0,144)"/>
<path style="fill:none;stroke-width:0.5;stroke-linecap:butt;stroke-linejoin:round;stroke:rgb(0%,0%,0%);stroke-opacity:0.47;stroke-miterlimit:10;" d="M 173.496094 26.070313 C 176.546875 26.070313 179.476563 27.285156 181.632813 29.441406 C 183.792969 31.601563 185.007813 34.527344 185.007813 37.582031 C 185.007813 40.632813 183.792969 43.5625 181.632813 45.722656 C 179.476563 47.878906 176.546875 49.09375 173.496094 49.09375 C 170.441406 49.09375 167.515625 47.878906 165.355469 45.722656 C 163.195313 43.5625 161.984375 40.632813 161.984375 37.582031 C 161.984375 34.527344 163.195313 31.601563 165.355469 29.441406 C 167.515625 27.285156 170.441406 26.070313 173.496094 26.070313 Z M 173.496094 26.070313 " transform="matrix(1,0,0,-1,0,144)"/>
<path style="fill:none;stroke-width:0.5;stroke-linecap:butt;stroke-linejoin:round;stroke:rgb(0%,0%,0%);stroke-opacity:0.48;stroke-miterlimit:10;" d="M 214.941406 33.609375 C 217.964844 33.609375 220.863281 34.8125 223.003906 36.949219 C 225.140625 39.089844 226.339844 41.988281 226.339844 45.011719 C 226.339844 48.035156 225.140625 50.9375 223.003906 53.074219 C 220.863281 55.214844 217.964844 56.414063 214.941406 56.414063 C 211.917969 56.414063 209.015625 55.214844 206.878906 53.074219 C 204.738281 50.9375 203.539063 48.035156 203.539063 45.011719 C 203.539063 41.988281 204.738281 39.089844 206.878906 36.949219 C 209.015625 34.8125 211.917969 33.609375 214.941406 33.609375 Z M 214.941406 33.609375 " transform="matrix(1,0,0,-1,0,144)"/>
</g>
</svg>
