<?xml version="1.0" encoding="UTF-8"?>
<svg xmlns="http://www.w3.org/2000/svg" xmlns:xlink="http://www.w3.org/1999/xlink" width="409pt" height="121pt" viewBox="0 0 409 121" version="1.1">
<defs>
<clipPath id="clip1">
  <rect width="409" height="121"/>
</clipPath>
<g id="surface4" clip-path="url(#clip1)">
<rect x="0" y="0" width="409" height="121" style="fill:rgb(100%,100%,100%);fill-opacity:1;stroke:none;"/>
<path style=" stroke:none;fill-rule:nonzero;fill:rgb(100%,100%,100%);fill-opacity:1;" d="M 1.300781 119.699219 L 197.601563 119.699219 L 197.601563 0.800781 L 1.300781 0.800781 Z M 1.300781 119.699219 "/>
<path style=" stroke:none;fill-rule:nonzero;fill:rgb(12.156677%,46.665955%,70.587158%);fill-opacity:0.25;" d="M 10.222656 33.042969 L 10.222656 9.496094 L 10.921875 9.242188 L 11.621094 6.652344 L 12.320313 7.207031 L 13.023438 8.316406 L 13.722656 9.984375 L 14.421875 11.191406 L 15.121094 10.175781 L 15.820313 11.335938 L 16.519531 9.433594 L 17.222656 12.320313 L 17.921875 9.960938 L 18.621094 9.097656 L 19.320313 12.125 L 20.019531 15.347656 L 20.71875 11.085938 L 21.417969 13.15625 L 22.121094 13.824219 L 22.820313 11.679688 L 23.519531 12.726563 L 24.21875 13.746094 L 24.917969 10.074219 L 25.617188 14.898438 L 26.320313 14.578125 L 27.019531 15.605469 L 27.71875 16.570313 L 28.417969 16.761719 L 29.117188 18.277344 L 29.816406 18.660156 L 30.515625 22.386719 L 31.21875 23.515625 L 31.917969 18.734375 L 32.617188 21.257813 L 33.316406 19.539063 L 34.015625 21.667969 L 34.714844 21.367188 L 35.417969 22.976563 L 36.117188 27.320313 L 36.816406 23.828125 L 37.515625 27.398438 L 38.214844 27.804688 L 38.914063 25.050781 L 39.617188 28.679688 L 40.316406 29.535156 L 41.015625 27.234375 L 41.714844 30.636719 L 42.414063 35.054688 L 43.113281 34.46875 L 43.8125 33.863281 L 44.515625 34.148438 L 45.214844 36.265625 L 45.914063 35.75 L 46.613281 37.121094 L 47.3125 37.96875 L 48.011719 38.164063 L 48.714844 39.15625 L 49.414063 41.179688 L 50.113281 46.230469 L 50.8125 43.507813 L 51.511719 46.460938 L 52.210938 46.167969 L 52.910156 46.789063 L 53.613281 47.671875 L 54.3125 46.207031 L 55.011719 52.59375 L 55.710938 51.789063 L 56.410156 48.300781 L 57.109375 51.539063 L 57.8125 52.070313 L 58.511719 56.902344 L 59.210938 58.578125 L 59.910156 55.007813 L 60.609375 57.046875 L 61.308594 58.472656 L 62.007813 56.460938 L 62.710938 60.578125 L 63.410156 60.640625 L 64.109375 66.929688 L 64.808594 63.714844 L 65.507813 65.128906 L 66.207031 63.554688 L 66.910156 65.980469 L 67.609375 63.902344 L 68.308594 67.230469 L 69.007813 65.703125 L 69.707031 67.078125 L 70.40625 70.25 L 71.105469 69.679688 L 71.808594 72.53125 L 72.507813 71.191406 L 73.207031 71.65625 L 73.90625 73.785156 L 74.605469 77.527344 L 75.304688 73.640625 L 76.007813 75.925781 L 76.707031 75.519531 L 77.40625 74.757813 L 78.105469 75.632813 L 78.804688 78.882813 L 79.503906 79.886719 L 80.203125 79.132813 L 80.90625 81.707031 L 81.605469 83.925781 L 82.304688 82.546875 L 83.003906 83.011719 L 83.703125 83.824219 L 84.402344 82.597656 L 85.105469 83.707031 L 85.804688 84.457031 L 86.503906 84.917969 L 87.203125 83.636719 L 87.902344 85.316406 L 88.601563 87.4375 L 89.300781 86.285156 L 90.003906 86.84375 L 90.703125 86.117188 L 91.402344 88.046875 L 92.101563 87.425781 L 92.800781 88.625 L 93.5 87.761719 L 94.203125 88.203125 L 94.902344 87.84375 L 95.601563 85.152344 L 96.300781 91.558594 L 97 89.699219 L 97.699219 86.03125 L 98.398438 88.875 L 99.101563 86.554688 L 99.800781 91.300781 L 100.5 87.726563 L 101.199219 91.773438 L 101.898438 87.429688 L 102.597656 88.191406 L 103.300781 87.65625 L 104 88 L 104.699219 88.675781 L 105.398438 88.972656 L 106.097656 87.65625 L 106.796875 87.507813 L 107.496094 86.734375 L 108.199219 89.53125 L 108.898438 88.179688 L 109.597656 88.214844 L 110.296875 87.257813 L 110.996094 82.746094 L 111.695313 88.132813 L 112.398438 85.222656 L 113.097656 85.527344 L 113.796875 83.648438 L 114.496094 84.628906 L 115.195313 81.183594 L 115.894531 82.449219 L 116.59375 81.851563 L 117.296875 84.945313 L 117.996094 80.398438 L 118.695313 75.394531 L 119.394531 77.042969 L 120.09375 79.582031 L 120.792969 77.777344 L 121.496094 77.878906 L 122.195313 77.378906 L 122.894531 77.039063 L 123.59375 76 L 124.292969 71.414063 L 124.992188 70.019531 L 125.691406 69.953125 L 126.394531 71.804688 L 127.09375 71.484375 L 127.792969 68.703125 L 128.492188 74.1875 L 129.191406 67.453125 L 129.890625 65.5 L 130.59375 67.957031 L 131.292969 66.847656 L 131.992188 64.410156 L 132.691406 64.089844 L 133.390625 63.835938 L 134.089844 63.445313 L 134.789063 61.78125 L 135.492188 63.941406 L 136.191406 60.152344 L 136.890625 59.304688 L 137.589844 57.144531 L 138.289063 56.339844 L 138.988281 55.742188 L 139.691406 56.410156 L 140.390625 54.441406 L 141.089844 55.910156 L 141.789063 51.886719 L 142.488281 48.609375 L 143.1875 49.8125 L 143.890625 48.167969 L 144.589844 48.308594 L 145.289063 47.339844 L 145.988281 43.386719 L 146.6875 45.542969 L 147.386719 48.34375 L 148.085938 41.496094 L 148.789063 39.671875 L 149.488281 43.410156 L 150.1875 41.234375 L 150.886719 38.652344 L 151.585938 39.578125 L 152.285156 36.570313 L 152.988281 34.589844 L 153.6875 33.59375 L 154.386719 36.496094 L 155.085938 33.371094 L 155.785156 31.171875 L 156.484375 34.464844 L 157.183594 29.574219 L 157.886719 32.632813 L 158.585938 26.585938 L 159.285156 27.804688 L 159.984375 27.910156 L 160.683594 25.507813 L 161.382813 26.828125 L 162.085938 26.617188 L 162.785156 23.648438 L 163.484375 25.210938 L 164.183594 24.699219 L 164.882813 19.902344 L 165.582031 19.65625 L 166.28125 21.4375 L 166.984375 16.371094 L 167.683594 19.460938 L 168.382813 16.359375 L 169.082031 16.617188 L 169.78125 16.859375 L 170.480469 18.289063 L 171.183594 17.871094 L 171.882813 14.453125 L 172.582031 16.09375 L 173.28125 14.0625 L 173.980469 13.359375 L 174.679688 13.964844 L 175.378906 14.050781 L 176.082031 12.949219 L 176.78125 15.492188 L 177.480469 12.042969 L 178.179688 10.074219 L 178.878906 12.6875 L 179.578125 8.785156 L 180.28125 10.6875 L 180.980469 8.480469 L 181.679688 10.878906 L 182.378906 11.453125 L 183.078125 10.308594 L 183.777344 11.445313 L 184.476563 11.261719 L 185.179688 6.203125 L 185.878906 11.367188 L 186.578125 9.480469 L 187.277344 8.417969 L 187.976563 8.753906 L 188.675781 8.589844 L 188.675781 32.386719 L 187.976563 33.175781 L 187.277344 30.453125 L 186.578125 31.003906 L 185.878906 34.191406 L 185.179688 29.476563 L 184.476563 35.292969 L 183.777344 33.21875 L 183.078125 32.722656 L 182.378906 34.027344 L 181.679688 32.777344 L 180.980469 33.65625 L 180.28125 33.199219 L 179.578125 31.109375 L 178.878906 36.8125 L 178.179688 34.453125 L 177.480469 35.671875 L 176.78125 37.421875 L 176.082031 36.753906 L 175.378906 36.429688 L 174.679688 37.726563 L 173.980469 34.332031 L 173.28125 39.761719 L 172.582031 36.566406 L 171.882813 38.164063 L 171.183594 42.242188 L 170.480469 41.863281 L 169.78125 41.445313 L 169.082031 38.476563 L 168.382813 38.984375 L 167.683594 41.695313 L 166.984375 38.804688 L 166.28125 43.863281 L 165.582031 43.75 L 164.882813 42.730469 L 164.183594 45.558594 L 163.484375 47.34375 L 162.785156 48.265625 L 162.085938 48.421875 L 161.382813 49.488281 L 160.683594 46.777344 L 159.984375 50.707031 L 159.285156 51.003906 L 158.585938 53.097656 L 157.886719 54.289063 L 157.183594 52.292969 L 156.484375 57.242188 L 155.785156 53.894531 L 155.085938 56.117188 L 154.386719 57.984375 L 153.6875 56.515625 L 152.988281 55.96875 L 152.285156 58.585938 L 151.585938 63.371094 L 150.886719 61.890625 L 150.1875 63.53125 L 149.488281 64.867188 L 148.789063 61.289063 L 148.085938 64.464844 L 147.386719 67.5625 L 146.6875 69.25 L 145.988281 68.035156 L 145.289063 70.964844 L 144.589844 70.519531 L 143.890625 73.21875 L 143.1875 72.347656 L 142.488281 71 L 141.789063 75.644531 L 141.089844 78.097656 L 140.390625 77.71875 L 139.691406 79.828125 L 138.988281 78.273438 L 138.289063 78.722656 L 137.589844 80.976563 L 136.890625 82.375 L 136.191406 84.023438 L 135.492188 87.300781 L 134.789063 84.652344 L 134.089844 84.683594 L 133.390625 84.257813 L 132.691406 86.035156 L 131.992188 86.660156 L 131.292969 90.875 L 130.59375 89.160156 L 129.890625 90.105469 L 129.191406 89.078125 L 128.492188 96.148438 L 127.792969 89.484375 L 127.09375 94.453125 L 126.394531 94.976563 L 125.691406 96.964844 L 124.992188 96.378906 L 124.292969 95.960938 L 123.59375 97.785156 L 122.894531 101.949219 L 122.195313 101.710938 L 121.496094 102.128906 L 120.792969 101.265625 L 120.09375 100.175781 L 119.394531 100.292969 L 118.695313 97.878906 L 117.996094 104.96875 L 117.296875 106.398438 L 116.59375 104.371094 L 115.894531 104.0625 L 115.195313 103.941406 L 114.496094 104.3125 L 113.796875 106.519531 L 113.097656 106.414063 L 112.398438 108.46875 L 111.695313 110.695313 L 110.996094 107.824219 L 110.296875 108.722656 L 109.597656 111.976563 L 108.898438 110.851563 L 108.199219 110.101563 L 107.496094 109.976563 L 106.796875 110.496094 L 106.097656 110.257813 L 105.398438 110.253906 L 104.699219 111.707031 L 104 112.234375 L 103.300781 113.355469 L 102.597656 110.464844 L 101.898438 110.292969 L 101.199219 113.121094 L 100.5 109.679688 L 99.800781 112.269531 L 99.101563 109.996094 L 98.398438 110.246094 L 97.699219 111.101563 L 97 113.476563 L 96.300781 113.457031 L 95.601563 108.453125 L 94.902344 110.675781 L 94.203125 111.953125 L 93.5 107.664063 L 92.800781 112.53125 L 92.101563 109.453125 L 91.402344 110.070313 L 90.703125 109.667969 L 90.003906 111.867188 L 89.300781 108.9375 L 88.601563 108.964844 L 87.902344 109.75 L 87.203125 107.628906 L 86.503906 108.449219 L 85.804688 106.703125 L 85.105469 104.292969 L 84.402344 105.753906 L 83.703125 106.5 L 83.003906 105.792969 L 82.304688 106.871094 L 81.605469 104.183594 L 80.90625 105.886719 L 80.203125 103.015625 L 79.503906 101.59375 L 78.804688 100.722656 L 78.105469 99.488281 L 77.40625 100.566406 L 76.707031 98.789063 L 76.007813 99.773438 L 75.304688 97.632813 L 74.605469 99.097656 L 73.90625 96.984375 L 73.207031 94.523438 L 72.507813 95.117188 L 71.808594 94.519531 L 71.105469 93.46875 L 70.40625 94.1875 L 69.707031 88.078125 L 69.007813 88.621094 L 68.308594 90.664063 L 67.609375 86.828125 L 66.910156 88.902344 L 66.207031 86 L 65.507813 86.140625 L 64.808594 88.589844 L 64.109375 88.824219 L 63.410156 84.789063 L 62.710938 82.195313 L 62.007813 81.886719 L 61.308594 78.914063 L 60.609375 77.90625 L 59.910156 79.179688 L 59.210938 79.898438 L 58.511719 77.738281 L 57.8125 75.394531 L 57.109375 74.808594 L 56.410156 72.191406 L 55.710938 74.457031 L 55.011719 75.800781 L 54.3125 66.800781 L 53.613281 69.351563 L 52.910156 72.183594 L 52.210938 68.894531 L 51.511719 68.808594 L 50.8125 68.238281 L 50.113281 68.074219 L 49.414063 62.296875 L 48.714844 62.78125 L 48.011719 62.550781 L 47.3125 58.851563 L 46.613281 60.507813 L 45.914063 57.457031 L 45.214844 56.675781 L 44.515625 56.292969 L 43.8125 52.894531 L 43.113281 58.070313 L 42.414063 58.207031 L 41.714844 54.558594 L 41.015625 54.292969 L 40.316406 52.746094 L 39.617188 51.6875 L 38.914063 50.265625 L 38.214844 50.542969 L 37.515625 48.828125 L 36.816406 47.699219 L 36.117188 48.59375 L 35.417969 47.289063 L 34.714844 43.238281 L 34.015625 45.648438 L 33.316406 44.539063 L 32.617188 43.328125 L 31.917969 40.203125 L 31.21875 43.238281 L 30.515625 42.878906 L 29.816406 41.371094 L 29.117188 39.140625 L 28.417969 40.621094 L 27.71875 41.039063 L 27.019531 38.054688 L 26.320313 37.132813 L 25.617188 38.296875 L 24.917969 30.171875 L 24.21875 35.503906 L 23.519531 37.53125 L 22.820313 34.339844 L 22.121094 34.214844 L 21.417969 35.882813 L 20.71875 35.21875 L 20.019531 35.875 L 19.320313 34.488281 L 18.621094 30.253906 L 17.921875 31.738281 L 17.222656 36.609375 L 16.519531 31.234375 L 15.820313 34.65625 L 15.121094 31.164063 L 14.421875 31.492188 L 13.722656 29.839844 L 13.023438 30.777344 L 12.320313 31.210938 L 11.621094 30.722656 L 10.921875 33.179688 Z M 10.222656 33.042969 "/>
<path style="fill:none;stroke-width:1.5;stroke-linecap:square;stroke-linejoin:round;stroke:rgb(12.156677%,46.665955%,70.587158%);stroke-opacity:1;stroke-miterlimit:10;" d="M 23.222656 112.730469 L 23.921875 112.789063 L 24.621094 115.3125 L 25.320313 114.792969 L 26.722656 114.089844 L 27.421875 112.660156 L 28.121094 113.328125 L 28.820313 111.003906 L 29.519531 113.667969 L 30.222656 109.535156 L 30.921875 113.152344 L 31.621094 114.324219 L 32.320313 110.695313 L 33.019531 108.390625 L 33.71875 110.847656 L 34.417969 109.480469 L 35.121094 109.980469 L 35.820313 110.988281 L 36.519531 108.871094 L 37.21875 109.375 L 37.917969 113.878906 L 38.617188 107.402344 L 39.320313 108.144531 L 40.019531 107.167969 L 40.71875 105.195313 L 41.417969 105.308594 L 42.117188 105.292969 L 42.816406 103.984375 L 43.515625 101.367188 L 44.21875 100.621094 L 44.917969 104.53125 L 45.617188 101.707031 L 46.316406 101.960938 L 47.015625 100.34375 L 47.714844 101.699219 L 49.117188 96.042969 L 49.816406 98.234375 L 50.515625 95.886719 L 51.214844 94.824219 L 51.914063 96.339844 L 52.617188 93.816406 L 53.316406 92.859375 L 54.015625 93.234375 L 54.714844 91.402344 L 55.414063 87.371094 L 56.113281 87.730469 L 56.8125 90.621094 L 57.515625 88.78125 L 58.214844 87.527344 L 58.914063 87.394531 L 59.613281 85.183594 L 60.3125 85.589844 L 61.011719 83.640625 L 61.714844 83.03125 L 62.414063 82.261719 L 63.113281 76.847656 L 63.8125 78.128906 L 64.511719 76.367188 L 65.210938 76.46875 L 65.910156 74.511719 L 66.613281 75.488281 L 67.3125 77.496094 L 68.011719 69.800781 L 68.710938 70.878906 L 69.410156 73.753906 L 70.109375 70.828125 L 70.8125 70.265625 L 71.511719 66.679688 L 72.210938 64.761719 L 72.910156 66.90625 L 73.609375 66.523438 L 74.308594 65.304688 L 75.007813 64.824219 L 75.710938 62.613281 L 76.410156 61.285156 L 77.109375 56.125 L 77.808594 57.847656 L 78.507813 58.363281 L 79.207031 59.222656 L 79.910156 56.558594 L 80.609375 58.632813 L 81.308594 55.050781 L 82.007813 56.835938 L 82.707031 56.421875 L 83.40625 51.78125 L 84.105469 52.425781 L 84.808594 50.476563 L 85.507813 50.847656 L 86.207031 50.910156 L 86.90625 48.613281 L 87.605469 45.6875 L 88.304688 48.363281 L 89.007813 46.152344 L 89.707031 46.84375 L 90.40625 46.339844 L 91.105469 46.4375 L 91.804688 44.195313 L 92.503906 43.261719 L 93.203125 42.925781 L 93.90625 40.203125 L 94.605469 39.945313 L 95.304688 39.289063 L 96.003906 39.597656 L 96.703125 38.839844 L 97.402344 39.824219 L 98.105469 40 L 98.804688 38.417969 L 99.503906 37.316406 L 100.203125 38.367188 L 100.902344 36.464844 L 101.601563 35.796875 L 102.300781 36.386719 L 103.003906 34.644531 L 103.703125 36.109375 L 104.402344 34.941406 L 105.101563 35.558594 L 105.800781 33.421875 L 106.5 36.289063 L 107.203125 33.921875 L 107.902344 34.738281 L 108.601563 37.199219 L 109.300781 31.492188 L 110 32.410156 L 110.699219 35.433594 L 111.398438 34.4375 L 112.101563 35.722656 L 112.800781 32.214844 L 113.5 35.296875 L 114.199219 31.550781 L 114.898438 35.136719 L 115.597656 34.671875 L 116.300781 33.492188 L 117 33.882813 L 117.699219 33.808594 L 119.097656 35.042969 L 119.796875 34.996094 L 120.496094 35.644531 L 121.199219 34.183594 L 121.898438 34.484375 L 122.597656 33.90625 L 123.296875 36.007813 L 123.996094 38.714844 L 124.695313 34.585938 L 125.398438 37.15625 L 126.796875 38.914063 L 127.496094 39.527344 L 128.195313 41.4375 L 128.894531 40.746094 L 129.59375 40.890625 L 130.296875 38.328125 L 130.996094 41.316406 L 131.695313 47.363281 L 132.394531 45.332031 L 133.09375 44.121094 L 133.792969 44.476563 L 134.496094 43.996094 L 135.195313 44.457031 L 135.894531 44.507813 L 136.59375 47.109375 L 137.292969 50.3125 L 137.992188 50.800781 L 138.691406 50.542969 L 139.394531 50.609375 L 140.09375 51.03125 L 140.792969 54.90625 L 141.492188 48.832031 L 142.191406 55.734375 L 142.890625 56.195313 L 143.59375 55.441406 L 144.292969 55.136719 L 144.992188 58.464844 L 145.691406 58.9375 L 146.390625 59.953125 L 147.089844 59.9375 L 147.789063 60.785156 L 148.492188 58.378906 L 149.191406 61.914063 L 149.890625 63.160156 L 151.289063 66.46875 L 151.988281 66.992188 L 152.691406 65.878906 L 153.390625 67.921875 L 154.089844 66.996094 L 154.789063 70.234375 L 155.488281 74.195313 L 156.1875 72.921875 L 156.890625 73.308594 L 157.589844 74.585938 L 158.289063 74.847656 L 158.988281 78.289063 L 159.6875 76.605469 L 160.386719 76.046875 L 161.085938 81.019531 L 161.789063 83.519531 L 162.488281 79.863281 L 163.1875 81.617188 L 163.886719 83.726563 L 164.585938 82.523438 L 165.285156 86.421875 L 165.988281 88.722656 L 166.6875 88.945313 L 167.386719 86.761719 L 168.785156 91.46875 L 169.484375 88.148438 L 170.183594 93.066406 L 170.886719 90.539063 L 171.585938 94.160156 L 172.285156 94.59375 L 172.984375 94.691406 L 173.683594 97.859375 L 174.382813 95.839844 L 175.085938 96.480469 L 175.785156 98.042969 L 176.484375 97.722656 L 177.183594 98.871094 L 177.882813 102.683594 L 178.582031 102.296875 L 179.28125 101.351563 L 179.984375 106.414063 L 180.683594 103.421875 L 181.382813 106.328125 L 182.082031 106.453125 L 182.78125 104.847656 L 183.480469 103.925781 L 184.183594 103.945313 L 184.882813 107.691406 L 185.582031 107.667969 L 186.28125 107.085938 L 186.980469 110.152344 L 187.679688 108.152344 L 188.378906 108.761719 L 189.082031 109.148438 L 189.78125 107.542969 L 190.480469 110.144531 L 191.179688 111.738281 L 191.878906 109.25 L 192.578125 114.050781 L 193.28125 112.054688 L 193.980469 112.933594 L 195.378906 111.261719 L 196.078125 112.484375 L 197.476563 110.722656 L 198.179688 116.160156 L 198.878906 111.222656 L 199.578125 113.757813 L 200.277344 114.566406 L 200.976563 113.035156 L 201.675781 113.511719 " transform="matrix(1,0,0,-1,-13,134)"/>
<path style=" stroke:none;fill-rule:nonzero;fill:rgb(100%,49.803162%,5.490112%);fill-opacity:0.25;" d="M 10.222656 71.664063 L 10.222656 49.796875 L 10.921875 45.148438 L 11.621094 49.652344 L 12.320313 44.984375 L 13.023438 45.496094 L 13.722656 41.480469 L 14.421875 42.589844 L 15.121094 40.171875 L 15.820313 41.039063 L 16.519531 37.898438 L 17.222656 38.355469 L 17.921875 38.851563 L 18.621094 40.175781 L 19.320313 37.703125 L 20.019531 37.433594 L 20.71875 36.640625 L 21.417969 31.542969 L 22.121094 31.695313 L 22.820313 29.042969 L 23.519531 29.609375 L 24.21875 28.140625 L 24.917969 32.992188 L 25.617188 28.75 L 26.320313 27.769531 L 27.019531 25.253906 L 27.71875 24.472656 L 28.417969 27.636719 L 29.117188 21.929688 L 29.816406 25.292969 L 30.515625 22 L 31.21875 24.671875 L 31.917969 21.914063 L 32.617188 21.683594 L 33.316406 20.582031 L 34.015625 17.664063 L 34.714844 20.769531 L 35.417969 19.832031 L 36.117188 14.019531 L 36.816406 18.0625 L 37.515625 15.882813 L 38.214844 16.144531 L 38.914063 14.972656 L 39.617188 16.746094 L 40.316406 14.789063 L 41.015625 16.207031 L 41.714844 8.871094 L 42.414063 10.308594 L 43.113281 11.945313 L 43.8125 13.457031 L 44.515625 10.90625 L 45.214844 11.761719 L 45.914063 8.378906 L 46.613281 13.941406 L 47.3125 14.324219 L 48.011719 7.164063 L 48.714844 7.542969 L 49.414063 14.589844 L 50.113281 11.941406 L 50.8125 9.863281 L 51.511719 10.941406 L 52.210938 8.105469 L 52.910156 6.484375 L 53.613281 8.480469 L 54.3125 8.546875 L 55.011719 9.890625 L 55.710938 11.667969 L 56.410156 7.011719 L 57.109375 10.90625 L 57.8125 10.515625 L 58.511719 7.5625 L 59.210938 11.121094 L 59.910156 10.109375 L 60.609375 11.015625 L 61.308594 10.542969 L 62.007813 11.332031 L 62.710938 9.046875 L 63.410156 9.488281 L 64.109375 13.054688 L 64.808594 8.539063 L 65.507813 11.78125 L 66.207031 9.214844 L 66.910156 13.9375 L 67.609375 15.492188 L 68.308594 14.160156 L 69.007813 12.792969 L 69.707031 13.09375 L 70.40625 13.089844 L 71.105469 16.539063 L 71.808594 16.972656 L 72.507813 13.601563 L 73.207031 15.140625 L 73.90625 16.441406 L 74.605469 14.695313 L 75.304688 19.851563 L 76.007813 18.4375 L 76.707031 17.847656 L 77.40625 20.277344 L 78.105469 20.496094 L 78.804688 24.210938 L 79.503906 21.808594 L 80.203125 24.960938 L 80.90625 22.878906 L 81.605469 25.429688 L 82.304688 26.375 L 83.003906 25.003906 L 83.703125 29.355469 L 84.402344 28.089844 L 85.105469 29.046875 L 85.804688 31.429688 L 86.503906 33.707031 L 87.203125 32.464844 L 87.902344 35.402344 L 88.601563 35.925781 L 89.300781 32.988281 L 90.003906 35.621094 L 90.703125 37.011719 L 91.402344 35.605469 L 92.101563 40.164063 L 92.800781 40.144531 L 93.5 41.871094 L 94.203125 45.695313 L 94.902344 40.128906 L 95.601563 45.410156 L 96.300781 43.964844 L 97 47.039063 L 97.699219 48.082031 L 98.398438 49.363281 L 99.101563 52.398438 L 99.800781 45.871094 L 100.5 50.203125 L 101.199219 50.4375 L 101.898438 52.015625 L 102.597656 50.078125 L 103.300781 53.242188 L 104 58.027344 L 104.699219 53.441406 L 105.398438 56.148438 L 106.097656 58.230469 L 106.796875 63.660156 L 107.496094 63.289063 L 108.199219 58.136719 L 108.898438 62.761719 L 109.597656 60.78125 L 110.296875 65.429688 L 110.996094 63.445313 L 111.695313 64.722656 L 112.398438 65.988281 L 113.097656 66.0625 L 113.796875 68.796875 L 114.496094 70.957031 L 115.195313 69.089844 L 115.894531 68.101563 L 116.59375 73.039063 L 117.296875 74.792969 L 117.996094 73.921875 L 118.695313 70.992188 L 119.394531 73.238281 L 120.09375 77.933594 L 120.792969 76.023438 L 121.496094 75.097656 L 122.195313 76.390625 L 122.894531 79.855469 L 123.59375 79.019531 L 124.292969 76.613281 L 124.992188 80.195313 L 125.691406 82.128906 L 126.394531 77.929688 L 127.09375 80.613281 L 127.792969 85.105469 L 128.492188 83.296875 L 129.191406 84.839844 L 129.890625 84.648438 L 130.59375 79.820313 L 131.292969 82.175781 L 131.992188 83.980469 L 132.691406 87.828125 L 133.390625 86.636719 L 134.089844 83.414063 L 134.789063 86.59375 L 135.492188 87.117188 L 136.191406 86.652344 L 136.890625 85.5625 L 137.589844 86.292969 L 138.289063 89.664063 L 138.988281 88.601563 L 139.691406 88.859375 L 140.390625 86.667969 L 141.089844 86.042969 L 141.789063 87.949219 L 142.488281 90.15625 L 143.1875 87.207031 L 143.890625 89.5625 L 144.589844 89.378906 L 145.289063 90.765625 L 145.988281 87.542969 L 146.6875 89.84375 L 147.386719 89.738281 L 148.085938 86.265625 L 148.789063 90.171875 L 149.488281 86.21875 L 150.1875 88.6875 L 150.886719 89.042969 L 151.585938 87.871094 L 152.285156 85.695313 L 152.988281 85.371094 L 153.6875 83.679688 L 154.386719 85.195313 L 155.085938 84.503906 L 155.785156 86.382813 L 156.484375 86.542969 L 157.183594 82.472656 L 157.886719 84.90625 L 158.585938 85.078125 L 159.285156 82.578125 L 159.984375 79.082031 L 160.683594 82.269531 L 161.382813 79.972656 L 162.085938 81.222656 L 162.785156 80.835938 L 163.484375 79.554688 L 164.183594 80.160156 L 164.882813 78.078125 L 165.582031 79.214844 L 166.28125 78.210938 L 166.984375 75.539063 L 167.683594 76.390625 L 168.382813 73.292969 L 169.082031 74.226563 L 169.78125 71.648438 L 170.480469 75.859375 L 171.183594 71.972656 L 171.882813 72.136719 L 172.582031 73.160156 L 173.28125 71.316406 L 173.980469 68.460938 L 174.679688 67.996094 L 175.378906 66.351563 L 176.082031 67.265625 L 176.78125 63.519531 L 177.480469 62.011719 L 178.179688 63.242188 L 178.878906 59.710938 L 179.578125 60.074219 L 180.28125 61.550781 L 180.980469 60.058594 L 181.679688 57.746094 L 182.378906 57.109375 L 183.078125 56.566406 L 183.777344 53.234375 L 184.476563 55.605469 L 185.179688 52.730469 L 185.878906 53.480469 L 186.578125 49.101563 L 187.277344 51.980469 L 187.976563 48.140625 L 188.675781 49.011719 L 188.675781 70.871094 L 187.976563 71.421875 L 187.277344 72.828125 L 186.578125 72.8125 L 185.878906 73.269531 L 185.179688 76.261719 L 184.476563 77.339844 L 183.777344 78.296875 L 183.078125 78.316406 L 182.378906 80.605469 L 181.679688 80.132813 L 180.980469 84.128906 L 180.28125 84.171875 L 179.578125 83.59375 L 178.878906 83.589844 L 178.179688 86.394531 L 177.480469 85.109375 L 176.78125 86.257813 L 176.082031 89.269531 L 175.378906 91.011719 L 174.679688 90.21875 L 173.980469 91.660156 L 173.28125 91.535156 L 172.582031 92.773438 L 171.882813 96.113281 L 171.183594 94.429688 L 170.480469 96.765625 L 169.78125 94.386719 L 169.082031 97.738281 L 168.382813 94.554688 L 167.683594 94.914063 L 166.984375 99.808594 L 166.28125 98.632813 L 165.582031 101.707031 L 164.882813 101.308594 L 164.183594 101.3125 L 163.484375 101.578125 L 162.785156 103.15625 L 162.085938 103.300781 L 161.382813 103.839844 L 160.683594 105.871094 L 159.984375 102.328125 L 159.285156 104.089844 L 158.585938 107.183594 L 157.886719 108.125 L 157.183594 106.832031 L 156.484375 106.269531 L 155.785156 110.128906 L 155.085938 107.089844 L 154.386719 108.300781 L 153.6875 108.46875 L 152.988281 108.945313 L 152.285156 108.386719 L 151.585938 110.386719 L 150.886719 110.925781 L 150.1875 113.378906 L 149.488281 110.042969 L 148.789063 114.035156 L 148.085938 110.390625 L 147.386719 112.398438 L 146.6875 112.988281 L 145.988281 109.769531 L 145.289063 113.269531 L 144.589844 111.261719 L 143.890625 112.066406 L 143.1875 110.613281 L 142.488281 114.296875 L 141.789063 111.53125 L 141.089844 109.949219 L 140.390625 108.984375 L 139.691406 112.980469 L 138.988281 109.6875 L 138.289063 112.96875 L 137.589844 106.371094 L 136.890625 108.316406 L 136.191406 109.476563 L 135.492188 110.074219 L 134.789063 109.816406 L 134.089844 106.273438 L 133.390625 109.777344 L 132.691406 109.875 L 131.992188 107.460938 L 131.292969 108.410156 L 130.59375 102.390625 L 129.890625 107.273438 L 129.191406 106.863281 L 128.492188 107.972656 L 127.792969 106.820313 L 127.09375 104.679688 L 126.394531 103.777344 L 125.691406 106.007813 L 124.992188 102.800781 L 124.292969 100.464844 L 123.59375 102.445313 L 122.894531 100.636719 L 122.195313 99.25 L 121.496094 101.460938 L 120.792969 97.515625 L 120.09375 98.332031 L 119.394531 97.707031 L 118.695313 97.226563 L 117.996094 95.847656 L 117.296875 95.097656 L 116.59375 95.855469 L 115.894531 90.75 L 115.195313 93.011719 L 114.496094 91.621094 L 113.796875 93.21875 L 113.097656 86.808594 L 112.398438 87.992188 L 111.695313 87.03125 L 110.996094 86.957031 L 110.296875 89.378906 L 109.597656 86.078125 L 108.898438 83.679688 L 108.199219 81.800781 L 107.496094 81.804688 L 106.796875 84.78125 L 106.097656 80.996094 L 105.398438 78.324219 L 104.699219 74.984375 L 104 79.402344 L 103.300781 78.957031 L 102.597656 72.761719 L 101.898438 74.988281 L 101.199219 75.363281 L 100.5 74.859375 L 99.800781 67.335938 L 99.101563 73.042969 L 98.398438 71.683594 L 97.699219 71.496094 L 97 69.796875 L 96.300781 66.53125 L 95.601563 68.515625 L 94.902344 66.039063 L 94.203125 66.785156 L 93.5 63.339844 L 92.800781 63.519531 L 92.101563 64.300781 L 91.402344 58.414063 L 90.703125 61.960938 L 90.003906 57.050781 L 89.300781 58.25 L 88.601563 56.027344 L 87.902344 57.199219 L 87.203125 54.515625 L 86.503906 54.261719 L 85.804688 55.796875 L 85.105469 52.46875 L 84.402344 50.789063 L 83.703125 51.011719 L 83.003906 46.59375 L 82.304688 50.84375 L 81.605469 47.929688 L 80.90625 46.261719 L 80.203125 46.519531 L 79.503906 46.210938 L 78.804688 48.785156 L 78.105469 43.628906 L 77.40625 42.128906 L 76.707031 43.25 L 76.007813 43.277344 L 75.304688 41.996094 L 74.605469 38.496094 L 73.90625 42.59375 L 73.207031 38.277344 L 72.507813 34.039063 L 71.808594 40.300781 L 71.105469 37.769531 L 70.40625 36.1875 L 69.707031 37.636719 L 69.007813 36.28125 L 68.308594 35.777344 L 67.609375 40.589844 L 66.910156 36.238281 L 66.207031 33.988281 L 65.507813 35.183594 L 64.808594 33.9375 L 64.109375 36.996094 L 63.410156 30.863281 L 62.710938 30.296875 L 62.007813 33.648438 L 61.308594 33.839844 L 60.609375 32.855469 L 59.910156 33.847656 L 59.210938 33.957031 L 58.511719 31.695313 L 57.8125 31.96875 L 57.109375 32.488281 L 56.410156 28.96875 L 55.710938 32.160156 L 55.011719 34.660156 L 54.3125 32.273438 L 53.613281 30.464844 L 52.910156 30.359375 L 52.210938 33.640625 L 51.511719 33.597656 L 50.8125 33.910156 L 50.113281 31.613281 L 49.414063 35.734375 L 48.714844 32.910156 L 48.011719 33.214844 L 47.3125 36.074219 L 46.613281 35.222656 L 45.914063 32.648438 L 45.214844 33.996094 L 44.515625 33.054688 L 43.8125 35.496094 L 43.113281 33.265625 L 42.414063 34.847656 L 41.714844 32.261719 L 41.015625 35.542969 L 40.316406 34.9375 L 39.617188 38.496094 L 38.914063 39.804688 L 38.214844 35.449219 L 37.515625 40.402344 L 36.816406 40.890625 L 36.117188 38.511719 L 35.417969 41.683594 L 34.714844 39.847656 L 34.015625 42.15625 L 33.316406 41.53125 L 32.617188 42.441406 L 31.917969 45.449219 L 31.21875 44.917969 L 30.515625 44.863281 L 29.816406 46.320313 L 29.117188 45.464844 L 28.417969 49.371094 L 27.71875 48.359375 L 27.019531 49.335938 L 26.320313 51.175781 L 25.617188 50.179688 L 24.917969 56.691406 L 24.21875 52.1875 L 23.519531 54.40625 L 22.820313 54.152344 L 22.121094 52.066406 L 21.417969 53.082031 L 20.71875 58.808594 L 20.019531 58.539063 L 19.320313 61.011719 L 18.621094 64.484375 L 17.921875 62.574219 L 17.222656 60.371094 L 16.519531 60.933594 L 15.820313 62.0625 L 15.121094 62.492188 L 14.421875 65.339844 L 13.722656 62.175781 L 13.023438 69.921875 L 12.320313 68.523438 L 11.621094 71.40625 L 10.921875 67.523438 Z M 10.222656 71.664063 "/>
<path style="fill:none;stroke-width:1.5;stroke-linecap:square;stroke-linejoin:round;stroke:rgb(100%,49.803162%,5.490112%);stroke-opacity:1;stroke-miterlimit:10;" d="M 23.222656 73.269531 L 23.921875 77.664063 L 24.621094 73.46875 L 25.320313 77.246094 L 26.023438 76.292969 L 26.722656 82.171875 L 27.421875 80.035156 L 28.121094 82.667969 L 28.820313 82.449219 L 29.519531 84.585938 L 30.222656 84.636719 L 30.921875 83.285156 L 31.621094 81.667969 L 32.320313 84.640625 L 33.019531 86.015625 L 33.71875 86.277344 L 34.417969 91.6875 L 35.121094 92.121094 L 35.820313 92.402344 L 36.519531 91.992188 L 37.21875 93.835938 L 37.917969 89.160156 L 38.617188 94.535156 L 39.320313 94.527344 L 40.019531 96.703125 L 40.71875 97.582031 L 41.417969 95.496094 L 42.117188 100.300781 L 42.816406 98.191406 L 43.515625 100.570313 L 44.21875 99.203125 L 44.917969 100.320313 L 45.617188 101.9375 L 47.015625 104.089844 L 48.417969 103.242188 L 49.117188 107.734375 L 49.816406 104.523438 L 50.515625 105.859375 L 51.214844 108.203125 L 51.914063 106.609375 L 52.617188 106.378906 L 53.316406 109.136719 L 54.015625 108.125 L 54.714844 113.433594 L 55.414063 111.421875 L 56.113281 111.394531 L 56.8125 109.523438 L 57.515625 112.019531 L 58.214844 111.121094 L 58.914063 113.488281 L 59.613281 109.417969 L 60.3125 108.800781 L 61.011719 113.8125 L 61.714844 113.773438 L 62.414063 108.835938 L 63.113281 112.222656 L 63.8125 112.113281 L 64.511719 111.730469 L 65.210938 113.128906 L 65.910156 115.578125 L 67.3125 113.589844 L 68.011719 111.726563 L 68.710938 112.085938 L 69.410156 116.007813 L 70.109375 112.300781 L 70.8125 112.757813 L 71.511719 114.371094 L 72.210938 111.460938 L 72.910156 112.023438 L 73.609375 112.066406 L 75.007813 111.507813 L 75.710938 114.328125 L 76.410156 113.824219 L 77.109375 108.976563 L 77.808594 112.761719 L 78.507813 110.519531 L 79.207031 112.398438 L 80.609375 105.957031 L 81.308594 109.03125 L 82.007813 109.464844 L 82.707031 108.632813 L 83.40625 109.363281 L 84.105469 106.847656 L 84.808594 105.363281 L 85.507813 110.179688 L 86.90625 104.484375 L 87.605469 107.402344 L 88.304688 103.078125 L 89.007813 103.144531 L 89.707031 103.449219 L 90.40625 102.796875 L 91.105469 101.9375 L 91.804688 97.5 L 92.503906 99.988281 L 93.203125 98.261719 L 93.90625 99.429688 L 95.304688 95.390625 L 96.003906 98.203125 L 96.703125 93.816406 L 97.402344 94.558594 L 98.105469 93.242188 L 98.804688 90.386719 L 99.503906 90.015625 L 100.203125 90.507813 L 100.902344 87.699219 L 102.300781 88.378906 L 103.003906 87.664063 L 103.703125 84.511719 L 104.402344 86.992188 L 105.101563 81.765625 L 105.800781 82.167969 L 106.5 81.394531 L 107.203125 77.761719 L 107.902344 80.917969 L 108.601563 77.035156 L 109.300781 78.753906 L 110 75.582031 L 110.699219 74.210938 L 111.398438 73.476563 L 112.101563 71.28125 L 112.800781 77.394531 L 113.5 71.46875 L 114.199219 71.101563 L 114.898438 70.496094 L 115.597656 72.578125 L 116.300781 67.902344 L 117 65.285156 L 117.699219 69.785156 L 118.398438 66.765625 L 119.097656 64.386719 L 119.796875 59.78125 L 120.496094 61.453125 L 121.199219 64.03125 L 121.898438 60.78125 L 122.597656 60.570313 L 123.296875 56.59375 L 123.996094 58.800781 L 124.695313 58.125 L 125.398438 57.011719 L 126.097656 57.5625 L 126.796875 52.992188 L 127.496094 52.710938 L 128.195313 52.949219 L 128.894531 54.574219 L 129.59375 49.550781 L 130.296875 49.054688 L 130.996094 49.113281 L 131.695313 49.890625 L 132.394531 48.527344 L 133.09375 45.867188 L 133.792969 47.230469 L 134.496094 45.722656 L 135.195313 46.179688 L 135.894531 43.753906 L 136.59375 43.269531 L 137.292969 45.460938 L 138.691406 39.929688 L 139.394531 43.144531 L 140.09375 41.351563 L 140.792969 38.035156 L 141.492188 38.363281 L 142.890625 38.039063 L 143.59375 42.894531 L 144.292969 38.707031 L 144.992188 38.277344 L 145.691406 35.148438 L 146.390625 35.792969 L 147.089844 39.15625 L 147.789063 35.792969 L 148.492188 35.40625 L 149.191406 35.9375 L 149.890625 37.058594 L 150.589844 37.667969 L 151.289063 32.683594 L 151.988281 34.855469 L 152.691406 33.082031 L 153.390625 36.171875 L 154.089844 36.003906 L 154.789063 34.261719 L 155.488281 31.773438 L 156.1875 35.089844 L 156.890625 33.1875 L 157.589844 33.679688 L 158.289063 31.984375 L 158.988281 35.34375 L 159.6875 32.585938 L 160.386719 32.933594 L 161.085938 35.671875 L 161.789063 31.898438 L 162.488281 35.867188 L 163.1875 32.964844 L 164.585938 34.871094 L 165.285156 36.960938 L 165.988281 36.84375 L 166.6875 37.925781 L 167.386719 37.253906 L 168.085938 38.203125 L 168.785156 35.746094 L 170.183594 39.347656 L 170.886719 37.484375 L 171.585938 37.867188 L 172.984375 43.296875 L 173.683594 39.929688 L 174.382813 42.09375 L 175.085938 41.738281 L 175.785156 42.003906 L 176.484375 43.433594 L 177.183594 43.265625 L 177.882813 44.308594 L 178.582031 43.539063 L 179.28125 45.578125 L 179.984375 46.324219 L 181.382813 50.078125 L 182.082031 48.015625 L 182.78125 50.980469 L 183.480469 47.6875 L 184.183594 50.800781 L 184.882813 49.875 L 185.582031 51.035156 L 186.980469 53.9375 L 187.679688 54.894531 L 189.082031 55.734375 L 189.78125 59.113281 L 190.480469 60.441406 L 191.179688 59.179688 L 191.878906 62.347656 L 192.578125 62.167969 L 193.28125 61.136719 L 193.980469 61.90625 L 194.679688 65.058594 L 195.378906 65.144531 L 196.078125 66.558594 L 196.777344 68.234375 L 197.476563 67.527344 L 198.179688 69.503906 L 198.878906 70.625 L 199.578125 73.042969 L 200.277344 71.59375 L 200.976563 74.21875 L 201.675781 74.058594 " transform="matrix(1,0,0,-1,-13,134)"/>
<path style="fill:none;stroke-width:0.8;stroke-linecap:square;stroke-linejoin:miter;stroke:rgb(0%,0%,0%);stroke-opacity:1;stroke-miterlimit:10;" d="M 14.300781 14.300781 L 14.300781 133.199219 " transform="matrix(1,0,0,-1,-13,134)"/>
<path style="fill:none;stroke-width:0.8;stroke-linecap:square;stroke-linejoin:miter;stroke:rgb(0%,0%,0%);stroke-opacity:1;stroke-miterlimit:10;" d="M 210.601563 14.300781 L 210.601563 133.199219 " transform="matrix(1,0,0,-1,-13,134)"/>
<path style="fill:none;stroke-width:0.8;stroke-linecap:square;stroke-linejoin:miter;stroke:rgb(0%,0%,0%);stroke-opacity:1;stroke-miterlimit:10;" d="M 14.300781 14.300781 L 210.601563 14.300781 " transform="matrix(1,0,0,-1,-13,134)"/>
<path style="fill:none;stroke-width:0.8;stroke-linecap:square;stroke-linejoin:miter;stroke:rgb(0%,0%,0%);stroke-opacity:1;stroke-miterlimit:10;" d="M 14.300781 133.199219 L 210.601563 133.199219 " transform="matrix(1,0,0,-1,-13,134)"/>
<path style=" stroke:none;fill-rule:nonzero;fill:rgb(100%,100%,100%);fill-opacity:1;" d="M 211.898438 119.699219 L 408.199219 119.699219 L 408.199219 0.800781 L 211.898438 0.800781 Z M 211.898438 119.699219 "/>
<path style=" stroke:none;fill-rule:nonzero;fill:rgb(81.567383%,92.155457%,100%);fill-opacity:1;" d="M 220.824219 33.042969 L 220.824219 9.496094 L 221.523438 9.242188 L 222.222656 6.652344 L 222.921875 7.207031 L 223.621094 8.316406 L 224.320313 9.984375 L 225.023438 11.191406 L 225.722656 10.175781 L 226.421875 11.335938 L 227.121094 9.433594 L 227.820313 12.320313 L 228.519531 9.960938 L 229.21875 9.097656 L 229.921875 12.125 L 230.621094 15.347656 L 231.320313 11.085938 L 232.019531 13.15625 L 232.71875 13.824219 L 233.417969 11.679688 L 234.121094 12.726563 L 234.820313 13.746094 L 235.519531 10.074219 L 236.21875 14.898438 L 236.917969 14.578125 L 237.617188 15.605469 L 238.316406 16.570313 L 239.019531 16.761719 L 239.71875 18.277344 L 240.417969 18.660156 L 241.117188 22.386719 L 241.816406 23.515625 L 242.515625 18.734375 L 243.21875 21.257813 L 243.917969 19.539063 L 244.617188 21.667969 L 245.316406 21.367188 L 246.015625 22.976563 L 246.714844 27.320313 L 247.414063 23.828125 L 248.117188 27.398438 L 248.816406 27.804688 L 249.515625 25.050781 L 250.214844 28.679688 L 250.914063 29.535156 L 251.613281 27.234375 L 252.316406 30.636719 L 253.015625 35.054688 L 253.714844 34.46875 L 254.414063 33.863281 L 255.113281 34.148438 L 255.8125 36.265625 L 256.511719 35.75 L 257.214844 37.121094 L 257.914063 37.96875 L 258.613281 38.164063 L 259.3125 39.15625 L 260.011719 41.179688 L 260.710938 46.230469 L 261.414063 43.507813 L 262.113281 46.460938 L 262.8125 46.167969 L 263.511719 46.789063 L 264.210938 47.671875 L 264.910156 46.207031 L 265.609375 52.59375 L 266.3125 51.789063 L 267.011719 48.300781 L 267.710938 51.539063 L 268.410156 52.070313 L 269.109375 56.902344 L 269.808594 58.578125 L 270.511719 55.007813 L 271.210938 57.046875 L 271.910156 58.472656 L 272.609375 56.460938 L 273.308594 60.578125 L 274.007813 60.640625 L 274.710938 66.929688 L 275.410156 63.714844 L 276.109375 65.128906 L 276.808594 63.554688 L 277.507813 65.980469 L 278.207031 63.902344 L 278.90625 67.230469 L 279.609375 65.703125 L 280.308594 67.078125 L 281.007813 70.25 L 281.707031 69.679688 L 282.40625 72.53125 L 283.105469 71.191406 L 283.808594 71.65625 L 284.507813 73.785156 L 285.207031 77.527344 L 285.90625 73.640625 L 286.605469 75.925781 L 287.304688 75.519531 L 288.003906 74.757813 L 288.707031 75.632813 L 289.40625 78.882813 L 290.105469 79.886719 L 290.804688 79.132813 L 291.503906 81.707031 L 292.203125 83.925781 L 292.90625 82.546875 L 293.605469 83.011719 L 294.304688 83.824219 L 295.003906 82.597656 L 295.703125 83.707031 L 296.402344 84.457031 L 297.101563 84.917969 L 297.804688 83.636719 L 298.503906 85.316406 L 299.203125 87.4375 L 299.902344 86.285156 L 300.601563 86.84375 L 301.300781 86.117188 L 302.003906 88.046875 L 302.703125 87.425781 L 303.402344 88.625 L 304.101563 87.761719 L 304.800781 88.203125 L 305.5 87.84375 L 306.199219 85.152344 L 306.902344 91.558594 L 307.601563 89.699219 L 308.300781 86.03125 L 309 88.875 L 309.699219 86.554688 L 310.398438 91.300781 L 311.101563 87.726563 L 311.800781 91.773438 L 312.5 87.429688 L 313.199219 88.191406 L 313.898438 87.65625 L 314.597656 88 L 315.296875 88.675781 L 316 88.972656 L 316.699219 87.65625 L 317.398438 87.507813 L 318.097656 86.734375 L 318.796875 89.53125 L 319.496094 88.179688 L 320.199219 88.214844 L 320.898438 87.257813 L 321.597656 82.746094 L 322.296875 88.132813 L 322.996094 85.222656 L 323.695313 85.527344 L 324.394531 83.648438 L 325.097656 84.628906 L 325.796875 81.183594 L 326.496094 82.449219 L 327.195313 81.851563 L 327.894531 84.945313 L 328.59375 80.398438 L 329.296875 75.394531 L 329.996094 77.042969 L 330.695313 79.582031 L 331.394531 77.777344 L 332.09375 77.878906 L 332.792969 77.378906 L 333.492188 77.039063 L 334.195313 76 L 334.894531 71.414063 L 335.59375 70.019531 L 336.292969 69.953125 L 336.992188 71.804688 L 337.691406 71.484375 L 338.394531 68.703125 L 339.09375 74.1875 L 339.792969 67.453125 L 340.492188 65.5 L 341.191406 67.957031 L 341.890625 66.847656 L 342.589844 64.410156 L 343.292969 64.089844 L 343.992188 63.835938 L 344.691406 63.445313 L 345.390625 61.78125 L 346.089844 63.941406 L 346.789063 60.152344 L 347.492188 59.304688 L 348.191406 57.144531 L 348.890625 56.339844 L 349.589844 55.742188 L 350.289063 56.410156 L 350.988281 54.441406 L 351.6875 55.910156 L 352.390625 51.886719 L 353.089844 48.609375 L 353.789063 49.8125 L 354.488281 48.167969 L 355.1875 48.308594 L 355.886719 47.339844 L 356.589844 43.386719 L 357.289063 45.542969 L 357.988281 48.34375 L 358.6875 41.496094 L 359.386719 39.671875 L 360.085938 43.410156 L 360.785156 41.234375 L 361.488281 38.652344 L 362.1875 39.578125 L 362.886719 36.570313 L 363.585938 34.589844 L 364.285156 33.59375 L 364.984375 36.496094 L 365.6875 33.371094 L 366.386719 31.171875 L 367.085938 34.464844 L 367.785156 29.574219 L 368.484375 32.632813 L 369.183594 26.585938 L 369.882813 27.804688 L 370.585938 27.910156 L 371.285156 25.507813 L 371.984375 26.828125 L 372.683594 26.617188 L 373.382813 23.648438 L 374.082031 25.210938 L 374.785156 24.699219 L 375.484375 19.902344 L 376.183594 19.65625 L 376.882813 21.4375 L 377.582031 16.371094 L 378.28125 19.460938 L 378.984375 16.359375 L 379.683594 16.617188 L 380.382813 16.859375 L 381.082031 18.289063 L 381.78125 17.871094 L 382.480469 14.453125 L 383.179688 16.09375 L 383.882813 14.0625 L 384.582031 13.359375 L 385.28125 13.964844 L 385.980469 14.050781 L 386.679688 12.949219 L 387.378906 15.492188 L 388.082031 12.042969 L 388.78125 10.074219 L 389.480469 12.6875 L 390.179688 8.785156 L 390.878906 10.6875 L 391.578125 8.480469 L 392.277344 10.878906 L 392.980469 11.453125 L 393.679688 10.308594 L 394.378906 11.445313 L 395.078125 11.261719 L 395.777344 6.203125 L 396.476563 11.367188 L 397.179688 9.480469 L 397.878906 8.417969 L 398.578125 8.753906 L 399.277344 8.589844 L 399.277344 32.386719 L 398.578125 33.175781 L 397.878906 30.453125 L 397.179688 31.003906 L 396.476563 34.191406 L 395.777344 29.476563 L 395.078125 35.292969 L 394.378906 33.21875 L 393.679688 32.722656 L 392.980469 34.027344 L 392.277344 32.777344 L 391.578125 33.65625 L 390.878906 33.199219 L 390.179688 31.109375 L 389.480469 36.8125 L 388.78125 34.453125 L 388.082031 35.671875 L 387.378906 37.421875 L 386.679688 36.753906 L 385.980469 36.429688 L 385.28125 37.726563 L 384.582031 34.332031 L 383.882813 39.761719 L 383.179688 36.566406 L 382.480469 38.164063 L 381.78125 42.242188 L 381.082031 41.863281 L 380.382813 41.445313 L 379.683594 38.476563 L 378.984375 38.984375 L 378.28125 41.695313 L 377.582031 38.804688 L 376.882813 43.863281 L 376.183594 43.75 L 375.484375 42.730469 L 374.785156 45.558594 L 374.082031 47.34375 L 373.382813 48.265625 L 372.683594 48.421875 L 371.984375 49.488281 L 371.285156 46.777344 L 370.585938 50.707031 L 369.882813 51.003906 L 369.183594 53.097656 L 368.484375 54.289063 L 367.785156 52.292969 L 367.085938 57.242188 L 366.386719 53.894531 L 365.6875 56.117188 L 364.984375 57.984375 L 364.285156 56.515625 L 363.585938 55.96875 L 362.886719 58.585938 L 362.1875 63.371094 L 361.488281 61.890625 L 360.785156 63.53125 L 360.085938 64.867188 L 359.386719 61.289063 L 358.6875 64.464844 L 357.988281 67.5625 L 357.289063 69.25 L 356.589844 68.035156 L 355.886719 70.964844 L 355.1875 70.519531 L 354.488281 73.21875 L 353.789063 72.347656 L 353.089844 71 L 352.390625 75.644531 L 351.6875 78.097656 L 350.988281 77.71875 L 350.289063 79.828125 L 349.589844 78.273438 L 348.890625 78.722656 L 348.191406 80.976563 L 347.492188 82.375 L 346.789063 84.023438 L 346.089844 87.300781 L 345.390625 84.652344 L 344.691406 84.683594 L 343.992188 84.257813 L 343.292969 86.035156 L 342.589844 86.660156 L 341.890625 90.875 L 341.191406 89.160156 L 340.492188 90.105469 L 339.792969 89.078125 L 339.09375 96.148438 L 338.394531 89.484375 L 337.691406 94.453125 L 336.992188 94.976563 L 336.292969 96.964844 L 335.59375 96.378906 L 334.894531 95.960938 L 334.195313 97.785156 L 333.492188 101.949219 L 332.792969 101.710938 L 332.09375 102.128906 L 331.394531 101.265625 L 330.695313 100.175781 L 329.996094 100.292969 L 329.296875 97.878906 L 328.59375 104.96875 L 327.894531 106.398438 L 327.195313 104.371094 L 326.496094 104.0625 L 325.796875 103.941406 L 325.097656 104.3125 L 324.394531 106.519531 L 323.695313 106.414063 L 322.996094 108.46875 L 322.296875 110.695313 L 321.597656 107.824219 L 320.898438 108.722656 L 320.199219 111.976563 L 319.496094 110.851563 L 318.796875 110.101563 L 318.097656 109.976563 L 317.398438 110.496094 L 316.699219 110.257813 L 316 110.253906 L 315.296875 111.707031 L 314.597656 112.234375 L 313.898438 113.355469 L 313.199219 110.464844 L 312.5 110.292969 L 311.800781 113.121094 L 311.101563 109.679688 L 310.398438 112.269531 L 309.699219 109.996094 L 309 110.246094 L 308.300781 111.101563 L 307.601563 113.476563 L 306.902344 113.457031 L 306.199219 108.453125 L 305.5 110.675781 L 304.800781 111.953125 L 304.101563 107.664063 L 303.402344 112.53125 L 302.703125 109.453125 L 302.003906 110.070313 L 301.300781 109.667969 L 300.601563 111.867188 L 299.902344 108.9375 L 299.203125 108.964844 L 298.503906 109.75 L 297.804688 107.628906 L 297.101563 108.449219 L 296.402344 106.703125 L 295.703125 104.292969 L 295.003906 105.753906 L 294.304688 106.5 L 293.605469 105.792969 L 292.90625 106.871094 L 292.203125 104.183594 L 291.503906 105.886719 L 290.804688 103.015625 L 290.105469 101.59375 L 289.40625 100.722656 L 288.707031 99.488281 L 288.003906 100.566406 L 287.304688 98.789063 L 286.605469 99.773438 L 285.90625 97.632813 L 285.207031 99.097656 L 284.507813 96.984375 L 283.808594 94.523438 L 283.105469 95.117188 L 282.40625 94.519531 L 281.707031 93.46875 L 281.007813 94.1875 L 280.308594 88.078125 L 279.609375 88.621094 L 278.90625 90.664063 L 278.207031 86.828125 L 277.507813 88.902344 L 276.808594 86 L 276.109375 86.140625 L 275.410156 88.589844 L 274.710938 88.824219 L 274.007813 84.789063 L 273.308594 82.195313 L 272.609375 81.886719 L 271.910156 78.914063 L 271.210938 77.90625 L 270.511719 79.179688 L 269.808594 79.898438 L 269.109375 77.738281 L 268.410156 75.394531 L 267.710938 74.808594 L 267.011719 72.191406 L 266.3125 74.457031 L 265.609375 75.800781 L 264.910156 66.800781 L 264.210938 69.351563 L 263.511719 72.183594 L 262.8125 68.894531 L 262.113281 68.808594 L 261.414063 68.238281 L 260.710938 68.074219 L 260.011719 62.296875 L 259.3125 62.78125 L 258.613281 62.550781 L 257.914063 58.851563 L 257.214844 60.507813 L 256.511719 57.457031 L 255.8125 56.675781 L 255.113281 56.292969 L 254.414063 52.894531 L 253.714844 58.070313 L 253.015625 58.207031 L 252.316406 54.558594 L 251.613281 54.292969 L 250.914063 52.746094 L 250.214844 51.6875 L 249.515625 50.265625 L 248.816406 50.542969 L 248.117188 48.828125 L 247.414063 47.699219 L 246.714844 48.59375 L 246.015625 47.289063 L 245.316406 43.238281 L 244.617188 45.648438 L 243.917969 44.539063 L 243.21875 43.328125 L 242.515625 40.203125 L 241.816406 43.238281 L 241.117188 42.878906 L 240.417969 41.371094 L 239.71875 39.140625 L 239.019531 40.621094 L 238.316406 41.039063 L 237.617188 38.054688 L 236.917969 37.132813 L 236.21875 38.296875 L 235.519531 30.171875 L 234.820313 35.503906 L 234.121094 37.53125 L 233.417969 34.339844 L 232.71875 34.214844 L 232.019531 35.882813 L 231.320313 35.21875 L 230.621094 35.875 L 229.921875 34.488281 L 229.21875 30.253906 L 228.519531 31.738281 L 227.820313 36.609375 L 227.121094 31.234375 L 226.421875 34.65625 L 225.722656 31.164063 L 225.023438 31.492188 L 224.320313 29.839844 L 223.621094 30.777344 L 222.921875 31.210938 L 222.222656 30.722656 L 221.523438 33.179688 Z M 220.824219 33.042969 "/>
<path style="fill:none;stroke-width:1.5;stroke-linecap:square;stroke-linejoin:round;stroke:rgb(10.980225%,49.411011%,83.920288%);stroke-opacity:1;stroke-miterlimit:10;" d="M 233.824219 112.730469 L 234.523438 112.789063 L 235.222656 115.3125 L 235.921875 114.792969 L 237.320313 114.089844 L 238.023438 112.660156 L 238.722656 113.328125 L 239.421875 111.003906 L 240.121094 113.667969 L 240.820313 109.535156 L 241.519531 113.152344 L 242.21875 114.324219 L 242.921875 110.695313 L 243.621094 108.390625 L 244.320313 110.847656 L 245.019531 109.480469 L 245.71875 109.980469 L 246.417969 110.988281 L 247.121094 108.871094 L 247.820313 109.375 L 248.519531 113.878906 L 249.21875 107.402344 L 249.917969 108.144531 L 250.617188 107.167969 L 251.316406 105.195313 L 252.019531 105.308594 L 252.71875 105.292969 L 253.417969 103.984375 L 254.117188 101.367188 L 254.816406 100.621094 L 255.515625 104.53125 L 256.21875 101.707031 L 256.917969 101.960938 L 257.617188 100.34375 L 258.316406 101.699219 L 259.714844 96.042969 L 260.414063 98.234375 L 261.117188 95.886719 L 261.816406 94.824219 L 262.515625 96.339844 L 263.214844 93.816406 L 263.914063 92.859375 L 264.613281 93.234375 L 265.316406 91.402344 L 266.015625 87.371094 L 266.714844 87.730469 L 267.414063 90.621094 L 268.113281 88.78125 L 268.8125 87.527344 L 269.511719 87.394531 L 270.214844 85.183594 L 270.914063 85.589844 L 271.613281 83.640625 L 272.3125 83.03125 L 273.011719 82.261719 L 273.710938 76.847656 L 274.414063 78.128906 L 275.113281 76.367188 L 275.8125 76.46875 L 276.511719 74.511719 L 277.210938 75.488281 L 277.910156 77.496094 L 278.609375 69.800781 L 279.3125 70.878906 L 280.011719 73.753906 L 280.710938 70.828125 L 281.410156 70.265625 L 282.109375 66.679688 L 282.808594 64.761719 L 283.511719 66.90625 L 284.210938 66.523438 L 284.910156 65.304688 L 285.609375 64.824219 L 286.308594 62.613281 L 287.007813 61.285156 L 287.710938 56.125 L 288.410156 57.847656 L 289.109375 58.363281 L 289.808594 59.222656 L 290.507813 56.558594 L 291.207031 58.632813 L 291.90625 55.050781 L 292.609375 56.835938 L 293.308594 56.421875 L 294.007813 51.78125 L 294.707031 52.425781 L 295.40625 50.476563 L 296.105469 50.847656 L 296.808594 50.910156 L 297.507813 48.613281 L 298.207031 45.6875 L 298.90625 48.363281 L 299.605469 46.152344 L 300.304688 46.84375 L 301.003906 46.339844 L 301.707031 46.4375 L 302.40625 44.195313 L 303.105469 43.261719 L 303.804688 42.925781 L 304.503906 40.203125 L 305.203125 39.945313 L 305.90625 39.289063 L 306.605469 39.597656 L 307.304688 38.839844 L 308.003906 39.824219 L 308.703125 40 L 309.402344 38.417969 L 310.101563 37.316406 L 310.804688 38.367188 L 311.503906 36.464844 L 312.203125 35.796875 L 312.902344 36.386719 L 313.601563 34.644531 L 314.300781 36.109375 L 315.003906 34.941406 L 315.703125 35.558594 L 316.402344 33.421875 L 317.101563 36.289063 L 317.800781 33.921875 L 318.5 34.738281 L 319.199219 37.199219 L 319.902344 31.492188 L 320.601563 32.410156 L 321.300781 35.433594 L 322 34.4375 L 322.699219 35.722656 L 323.398438 32.214844 L 324.101563 35.296875 L 324.800781 31.550781 L 325.5 35.136719 L 326.199219 34.671875 L 326.898438 33.492188 L 327.597656 33.882813 L 328.296875 33.808594 L 329.699219 35.042969 L 330.398438 34.996094 L 331.097656 35.644531 L 331.796875 34.183594 L 332.496094 34.484375 L 333.199219 33.90625 L 333.898438 36.007813 L 334.597656 38.714844 L 335.296875 34.585938 L 335.996094 37.15625 L 337.394531 38.914063 L 338.097656 39.527344 L 338.796875 41.4375 L 339.496094 40.746094 L 340.195313 40.890625 L 340.894531 38.328125 L 341.59375 41.316406 L 342.296875 47.363281 L 342.996094 45.332031 L 343.695313 44.121094 L 344.394531 44.476563 L 345.09375 43.996094 L 345.792969 44.457031 L 346.492188 44.507813 L 347.195313 47.109375 L 347.894531 50.3125 L 348.59375 50.800781 L 349.292969 50.542969 L 349.992188 50.609375 L 350.691406 51.03125 L 351.394531 54.90625 L 352.09375 48.832031 L 352.792969 55.734375 L 353.492188 56.195313 L 354.191406 55.441406 L 354.890625 55.136719 L 355.589844 58.464844 L 356.292969 58.9375 L 356.992188 59.953125 L 357.691406 59.9375 L 358.390625 60.785156 L 359.089844 58.378906 L 359.789063 61.914063 L 360.492188 63.160156 L 361.890625 66.46875 L 362.589844 66.992188 L 363.289063 65.878906 L 363.988281 67.921875 L 364.6875 66.996094 L 365.390625 70.234375 L 366.089844 74.195313 L 366.789063 72.921875 L 367.488281 73.308594 L 368.1875 74.585938 L 368.886719 74.847656 L 369.589844 78.289063 L 370.289063 76.605469 L 370.988281 76.046875 L 371.6875 81.019531 L 372.386719 83.519531 L 373.085938 79.863281 L 373.785156 81.617188 L 374.488281 83.726563 L 375.1875 82.523438 L 375.886719 86.421875 L 376.585938 88.722656 L 377.285156 88.945313 L 377.984375 86.761719 L 379.386719 91.46875 L 380.085938 88.148438 L 380.785156 93.066406 L 381.484375 90.539063 L 382.183594 94.160156 L 382.882813 94.59375 L 383.585938 94.691406 L 384.285156 97.859375 L 384.984375 95.839844 L 385.683594 96.480469 L 386.382813 98.042969 L 387.082031 97.722656 L 387.785156 98.871094 L 388.484375 102.683594 L 389.183594 102.296875 L 389.882813 101.351563 L 390.582031 106.414063 L 391.28125 103.421875 L 391.984375 106.328125 L 392.683594 106.453125 L 393.382813 104.847656 L 394.082031 103.925781 L 394.78125 103.945313 L 395.480469 107.691406 L 396.179688 107.667969 L 396.882813 107.085938 L 397.582031 110.152344 L 398.28125 108.152344 L 398.980469 108.761719 L 399.679688 109.148438 L 400.378906 107.542969 L 401.082031 110.144531 L 401.78125 111.738281 L 402.480469 109.25 L 403.179688 114.050781 L 403.878906 112.054688 L 404.578125 112.933594 L 405.980469 111.261719 L 406.679688 112.484375 L 408.078125 110.722656 L 408.777344 116.160156 L 409.476563 111.222656 L 410.179688 113.757813 L 410.878906 114.566406 L 411.578125 113.035156 L 412.277344 113.511719 " transform="matrix(1,0,0,-1,-13,134)"/>
<path style="fill-rule:nonzero;fill:rgb(100%,90.979004%,79.998779%);fill-opacity:1;stroke-width:0.75;stroke-linecap:butt;stroke-linejoin:round;stroke:rgb(100%,100%,100%);stroke-opacity:1;stroke-miterlimit:10;" d="M 233.824219 62.335938 L 233.824219 84.203125 L 234.523438 88.851563 L 235.222656 84.347656 L 235.921875 89.015625 L 236.621094 88.503906 L 237.320313 92.519531 L 238.023438 91.410156 L 238.722656 93.828125 L 239.421875 92.960938 L 240.121094 96.101563 L 240.820313 95.644531 L 241.519531 95.148438 L 242.21875 93.824219 L 242.921875 96.296875 L 243.621094 96.566406 L 244.320313 97.359375 L 245.019531 102.457031 L 245.71875 102.304688 L 246.417969 104.957031 L 247.121094 104.390625 L 247.820313 105.859375 L 248.519531 101.007813 L 249.21875 105.25 L 249.917969 106.230469 L 250.617188 108.746094 L 251.316406 109.527344 L 252.019531 106.363281 L 252.71875 112.070313 L 253.417969 108.707031 L 254.117188 112 L 254.816406 109.328125 L 255.515625 112.085938 L 256.21875 112.316406 L 256.917969 113.417969 L 257.617188 116.335938 L 258.316406 113.230469 L 259.015625 114.167969 L 259.714844 119.980469 L 260.414063 115.9375 L 261.117188 118.117188 L 261.816406 117.855469 L 262.515625 119.027344 L 263.214844 117.253906 L 263.914063 119.210938 L 264.613281 117.792969 L 265.316406 125.128906 L 266.015625 123.691406 L 266.714844 122.054688 L 267.414063 120.542969 L 268.113281 123.09375 L 268.8125 122.238281 L 269.511719 125.621094 L 270.214844 120.058594 L 270.914063 119.675781 L 271.613281 126.835938 L 272.3125 126.457031 L 273.011719 119.410156 L 273.710938 122.058594 L 274.414063 124.136719 L 275.113281 123.058594 L 275.8125 125.894531 L 276.511719 127.515625 L 277.210938 125.519531 L 277.910156 125.453125 L 278.609375 124.109375 L 279.3125 122.332031 L 280.011719 126.988281 L 280.710938 123.09375 L 281.410156 123.484375 L 282.109375 126.4375 L 282.808594 122.878906 L 283.511719 123.890625 L 284.210938 122.984375 L 284.910156 123.457031 L 285.609375 122.667969 L 286.308594 124.953125 L 287.007813 124.511719 L 287.710938 120.945313 L 288.410156 125.460938 L 289.109375 122.21875 L 289.808594 124.785156 L 290.507813 120.0625 L 291.207031 118.507813 L 291.90625 119.839844 L 292.609375 121.207031 L 293.308594 120.90625 L 294.007813 120.910156 L 294.707031 117.460938 L 295.40625 117.027344 L 296.105469 120.398438 L 296.808594 118.859375 L 297.507813 117.558594 L 298.207031 119.304688 L 298.90625 114.148438 L 299.605469 115.5625 L 300.304688 116.152344 L 301.003906 113.722656 L 301.707031 113.503906 L 302.40625 109.789063 L 303.105469 112.191406 L 303.804688 109.039063 L 304.503906 111.121094 L 305.203125 108.570313 L 305.90625 107.625 L 306.605469 108.996094 L 307.304688 104.644531 L 308.003906 105.910156 L 308.703125 104.953125 L 309.402344 102.570313 L 310.101563 100.292969 L 310.804688 101.535156 L 311.503906 98.597656 L 312.203125 98.074219 L 312.902344 101.011719 L 313.601563 98.378906 L 314.300781 96.988281 L 315.003906 98.394531 L 315.703125 93.835938 L 316.402344 93.855469 L 317.101563 92.128906 L 317.800781 88.304688 L 318.5 93.871094 L 319.199219 88.589844 L 319.902344 90.035156 L 320.601563 86.960938 L 321.300781 85.917969 L 322 84.636719 L 322.699219 81.601563 L 323.398438 88.128906 L 324.101563 83.796875 L 324.800781 83.5625 L 325.5 81.984375 L 326.199219 83.921875 L 326.898438 80.757813 L 327.597656 75.972656 L 328.296875 80.558594 L 329 77.851563 L 329.699219 75.769531 L 330.398438 70.339844 L 331.097656 70.710938 L 331.796875 75.863281 L 332.496094 71.238281 L 333.199219 73.21875 L 333.898438 68.570313 L 334.597656 70.554688 L 335.296875 69.277344 L 335.996094 68.011719 L 336.695313 67.9375 L 337.394531 65.203125 L 338.097656 63.042969 L 338.796875 64.910156 L 339.496094 65.898438 L 340.195313 60.960938 L 340.894531 59.207031 L 341.59375 60.078125 L 342.296875 63.007813 L 342.996094 60.761719 L 343.695313 56.066406 L 344.394531 57.976563 L 345.09375 58.902344 L 345.792969 57.609375 L 346.492188 54.144531 L 347.195313 54.980469 L 347.894531 57.386719 L 348.59375 53.804688 L 349.292969 51.871094 L 349.992188 56.070313 L 350.691406 53.386719 L 351.394531 48.894531 L 352.09375 50.703125 L 352.792969 49.160156 L 353.492188 49.351563 L 354.191406 54.179688 L 354.890625 51.824219 L 355.589844 50.019531 L 356.292969 46.171875 L 356.992188 47.363281 L 357.691406 50.585938 L 358.390625 47.40625 L 359.089844 46.882813 L 359.789063 47.347656 L 360.492188 48.4375 L 361.191406 47.707031 L 361.890625 44.335938 L 362.589844 45.398438 L 363.289063 45.140625 L 363.988281 47.332031 L 364.6875 47.957031 L 365.390625 46.050781 L 366.089844 43.84375 L 366.789063 46.792969 L 367.488281 44.4375 L 368.1875 44.621094 L 368.886719 43.234375 L 369.589844 46.457031 L 370.289063 44.15625 L 370.988281 44.261719 L 371.6875 47.734375 L 372.386719 43.828125 L 373.085938 47.78125 L 373.785156 45.3125 L 374.488281 44.957031 L 375.1875 46.128906 L 375.886719 48.304688 L 376.585938 48.628906 L 377.285156 50.320313 L 377.984375 48.804688 L 378.6875 49.496094 L 379.386719 47.617188 L 380.085938 47.457031 L 380.785156 51.527344 L 381.484375 49.09375 L 382.183594 48.921875 L 382.882813 51.421875 L 383.585938 54.917969 L 384.285156 51.730469 L 384.984375 54.027344 L 385.683594 52.777344 L 386.382813 53.164063 L 387.082031 54.445313 L 387.785156 53.839844 L 388.484375 55.921875 L 389.183594 54.785156 L 389.882813 55.789063 L 390.582031 58.460938 L 391.28125 57.609375 L 391.984375 60.707031 L 392.683594 59.773438 L 393.382813 62.351563 L 394.082031 58.140625 L 394.78125 62.027344 L 395.480469 61.863281 L 396.179688 60.839844 L 396.882813 62.683594 L 397.582031 65.539063 L 398.28125 66.003906 L 398.980469 67.648438 L 399.679688 66.734375 L 400.378906 70.480469 L 401.082031 71.988281 L 401.78125 70.757813 L 402.480469 74.289063 L 403.179688 73.925781 L 403.878906 72.449219 L 404.578125 73.941406 L 405.277344 76.253906 L 405.980469 76.890625 L 406.679688 77.433594 L 407.378906 80.765625 L 408.078125 78.394531 L 408.777344 81.269531 L 409.476563 80.519531 L 410.179688 84.898438 L 410.878906 82.019531 L 411.578125 85.859375 L 412.277344 84.988281 L 412.277344 63.128906 L 411.578125 62.578125 L 410.878906 61.171875 L 410.179688 61.1875 L 409.476563 60.730469 L 408.777344 57.738281 L 408.078125 56.660156 L 407.378906 55.703125 L 406.679688 55.683594 L 405.980469 53.394531 L 405.277344 53.867188 L 404.578125 49.871094 L 403.878906 49.828125 L 403.179688 50.40625 L 402.480469 50.410156 L 401.78125 47.605469 L 401.082031 48.890625 L 400.378906 47.742188 L 399.679688 44.730469 L 398.980469 42.988281 L 398.28125 43.78125 L 397.582031 42.339844 L 396.882813 42.464844 L 396.179688 41.226563 L 395.480469 37.886719 L 394.78125 39.570313 L 394.082031 37.234375 L 393.382813 39.613281 L 392.683594 36.261719 L 391.984375 39.445313 L 391.28125 39.085938 L 390.582031 34.191406 L 389.882813 35.367188 L 389.183594 32.292969 L 388.484375 32.691406 L 387.785156 32.6875 L 387.082031 32.421875 L 386.382813 30.84375 L 385.683594 30.699219 L 384.984375 30.160156 L 384.285156 28.128906 L 383.585938 31.671875 L 382.882813 29.910156 L 382.183594 26.816406 L 381.484375 25.875 L 380.785156 27.167969 L 380.085938 27.730469 L 379.386719 23.871094 L 378.6875 26.910156 L 377.984375 25.699219 L 377.285156 25.53125 L 376.585938 25.054688 L 375.886719 25.613281 L 375.1875 23.613281 L 374.488281 23.074219 L 373.785156 20.621094 L 373.085938 23.957031 L 372.386719 19.964844 L 371.6875 23.609375 L 370.988281 21.601563 L 370.289063 21.011719 L 369.589844 24.230469 L 368.886719 20.730469 L 368.1875 22.738281 L 367.488281 21.933594 L 366.789063 23.386719 L 366.089844 19.703125 L 365.390625 22.46875 L 364.6875 24.050781 L 363.988281 25.015625 L 363.289063 21.019531 L 362.589844 24.3125 L 361.890625 21.03125 L 361.191406 27.628906 L 360.492188 25.683594 L 359.789063 24.523438 L 359.089844 23.925781 L 358.390625 24.183594 L 357.691406 27.726563 L 356.992188 24.222656 L 356.292969 24.125 L 355.589844 26.539063 L 354.890625 25.589844 L 354.191406 31.609375 L 353.492188 26.726563 L 352.792969 27.136719 L 352.09375 26.027344 L 351.394531 27.179688 L 350.691406 29.320313 L 349.992188 30.222656 L 349.292969 27.992188 L 348.59375 31.199219 L 347.894531 33.535156 L 347.195313 31.554688 L 346.492188 33.363281 L 345.792969 34.75 L 345.09375 32.539063 L 344.394531 36.484375 L 343.695313 35.667969 L 342.996094 36.292969 L 342.296875 36.773438 L 341.59375 38.152344 L 340.894531 38.902344 L 340.195313 38.144531 L 339.496094 43.25 L 338.796875 40.988281 L 338.097656 42.378906 L 337.394531 40.78125 L 336.695313 47.191406 L 335.996094 46.007813 L 335.296875 46.96875 L 334.597656 47.042969 L 333.898438 44.621094 L 333.199219 47.921875 L 332.496094 50.320313 L 331.796875 52.199219 L 331.097656 52.195313 L 330.398438 49.21875 L 329.699219 53.003906 L 329 55.675781 L 328.296875 59.015625 L 327.597656 54.597656 L 326.898438 55.042969 L 326.199219 61.238281 L 325.5 59.011719 L 324.800781 58.636719 L 324.101563 59.140625 L 323.398438 66.664063 L 322.699219 60.957031 L 322 62.316406 L 321.300781 62.503906 L 320.601563 64.203125 L 319.902344 67.46875 L 319.199219 65.484375 L 318.5 67.960938 L 317.800781 67.214844 L 317.101563 70.660156 L 316.402344 70.480469 L 315.703125 69.699219 L 315.003906 75.585938 L 314.300781 72.039063 L 313.601563 76.949219 L 312.902344 75.75 L 312.203125 77.972656 L 311.503906 76.800781 L 310.804688 79.484375 L 310.101563 79.738281 L 309.402344 78.203125 L 308.703125 81.53125 L 308.003906 83.210938 L 307.304688 82.988281 L 306.605469 87.40625 L 305.90625 83.15625 L 305.203125 86.070313 L 304.503906 87.738281 L 303.804688 87.480469 L 303.105469 87.789063 L 302.40625 85.214844 L 301.707031 90.371094 L 301.003906 91.871094 L 300.304688 90.75 L 299.605469 90.722656 L 298.90625 92.003906 L 298.207031 95.503906 L 297.507813 91.40625 L 296.808594 95.722656 L 296.105469 99.960938 L 295.40625 93.699219 L 294.707031 96.230469 L 294.007813 97.8125 L 293.308594 96.363281 L 292.609375 97.71875 L 291.90625 98.222656 L 291.207031 93.410156 L 290.507813 97.761719 L 289.808594 100.011719 L 289.109375 98.816406 L 288.410156 100.0625 L 287.710938 97.003906 L 287.007813 103.136719 L 286.308594 103.703125 L 285.609375 100.351563 L 284.910156 100.160156 L 284.210938 101.144531 L 283.511719 100.152344 L 282.808594 100.042969 L 282.109375 102.304688 L 281.410156 102.03125 L 280.710938 101.511719 L 280.011719 105.03125 L 279.3125 101.839844 L 278.609375 99.339844 L 277.910156 101.726563 L 277.210938 103.535156 L 276.511719 103.640625 L 275.8125 100.359375 L 275.113281 100.402344 L 274.414063 100.089844 L 273.710938 102.386719 L 273.011719 98.265625 L 272.3125 101.089844 L 271.613281 100.785156 L 270.914063 97.925781 L 270.214844 98.777344 L 269.511719 101.351563 L 268.8125 100.003906 L 268.113281 100.945313 L 267.414063 98.503906 L 266.714844 100.734375 L 266.015625 99.152344 L 265.316406 101.738281 L 264.613281 98.457031 L 263.914063 99.0625 L 263.214844 95.503906 L 262.515625 94.195313 L 261.816406 98.550781 L 261.117188 93.597656 L 260.414063 93.109375 L 259.714844 95.488281 L 259.015625 92.316406 L 258.316406 94.152344 L 257.617188 91.84375 L 256.917969 92.46875 L 256.21875 91.558594 L 255.515625 88.550781 L 254.816406 89.082031 L 254.117188 89.136719 L 253.417969 87.679688 L 252.71875 88.535156 L 252.019531 84.628906 L 251.316406 85.640625 L 250.617188 84.664063 L 249.917969 82.824219 L 249.21875 83.820313 L 248.519531 77.308594 L 247.820313 81.8125 L 247.121094 79.59375 L 246.417969 79.847656 L 245.71875 81.933594 L 245.019531 80.917969 L 244.320313 75.191406 L 243.621094 75.460938 L 242.921875 72.988281 L 242.21875 69.515625 L 241.519531 71.425781 L 240.820313 73.628906 L 240.121094 73.066406 L 239.421875 71.9375 L 238.722656 71.507813 L 238.023438 68.660156 L 237.320313 71.824219 L 236.621094 64.078125 L 235.921875 65.476563 L 235.222656 62.59375 L 234.523438 66.476563 Z M 233.824219 62.335938 " transform="matrix(1,0,0,-1,-13,134)"/>
<path style="fill:none;stroke-width:1.5;stroke-linecap:square;stroke-linejoin:round;stroke:rgb(96.861267%,40.391541%,2.745056%);stroke-opacity:1;stroke-miterlimit:10;" d="M 233.824219 73.269531 L 234.523438 77.664063 L 235.222656 73.46875 L 235.921875 77.246094 L 236.621094 76.292969 L 237.320313 82.171875 L 238.023438 80.035156 L 238.722656 82.667969 L 239.421875 82.449219 L 240.121094 84.585938 L 240.820313 84.636719 L 241.519531 83.285156 L 242.21875 81.667969 L 242.921875 84.640625 L 243.621094 86.015625 L 244.320313 86.277344 L 245.019531 91.6875 L 245.71875 92.121094 L 246.417969 92.402344 L 247.121094 91.992188 L 247.820313 93.835938 L 248.519531 89.160156 L 249.21875 94.535156 L 249.917969 94.527344 L 250.617188 96.703125 L 251.316406 97.582031 L 252.019531 95.496094 L 252.71875 100.300781 L 253.417969 98.191406 L 254.117188 100.570313 L 254.816406 99.203125 L 255.515625 100.320313 L 256.21875 101.9375 L 257.617188 104.089844 L 259.015625 103.242188 L 259.714844 107.734375 L 260.414063 104.523438 L 261.117188 105.859375 L 261.816406 108.203125 L 262.515625 106.609375 L 263.214844 106.378906 L 263.914063 109.136719 L 264.613281 108.125 L 265.316406 113.433594 L 266.015625 111.421875 L 266.714844 111.394531 L 267.414063 109.523438 L 268.113281 112.019531 L 268.8125 111.121094 L 269.511719 113.488281 L 270.214844 109.417969 L 270.914063 108.800781 L 271.613281 113.8125 L 272.3125 113.773438 L 273.011719 108.835938 L 273.710938 112.222656 L 274.414063 112.113281 L 275.113281 111.730469 L 275.8125 113.128906 L 276.511719 115.578125 L 277.910156 113.589844 L 278.609375 111.726563 L 279.3125 112.085938 L 280.011719 116.007813 L 280.710938 112.300781 L 281.410156 112.757813 L 282.109375 114.371094 L 282.808594 111.460938 L 283.511719 112.023438 L 284.210938 112.066406 L 285.609375 111.507813 L 286.308594 114.328125 L 287.007813 113.824219 L 287.710938 108.976563 L 288.410156 112.761719 L 289.109375 110.519531 L 289.808594 112.398438 L 291.207031 105.957031 L 291.90625 109.03125 L 292.609375 109.464844 L 293.308594 108.632813 L 294.007813 109.363281 L 294.707031 106.847656 L 295.40625 105.363281 L 296.105469 110.179688 L 297.507813 104.484375 L 298.207031 107.402344 L 298.90625 103.078125 L 299.605469 103.144531 L 300.304688 103.449219 L 301.003906 102.796875 L 301.707031 101.9375 L 302.40625 97.5 L 303.105469 99.988281 L 303.804688 98.261719 L 304.503906 99.429688 L 305.90625 95.390625 L 306.605469 98.203125 L 307.304688 93.816406 L 308.003906 94.558594 L 308.703125 93.242188 L 309.402344 90.386719 L 310.101563 90.015625 L 310.804688 90.507813 L 311.503906 87.699219 L 312.902344 88.378906 L 313.601563 87.664063 L 314.300781 84.511719 L 315.003906 86.992188 L 315.703125 81.765625 L 316.402344 82.167969 L 317.101563 81.394531 L 317.800781 77.761719 L 318.5 80.917969 L 319.199219 77.035156 L 319.902344 78.753906 L 320.601563 75.582031 L 321.300781 74.210938 L 322 73.476563 L 322.699219 71.28125 L 323.398438 77.394531 L 324.101563 71.46875 L 324.800781 71.101563 L 325.5 70.496094 L 326.199219 72.578125 L 326.898438 67.902344 L 327.597656 65.285156 L 328.296875 69.785156 L 329 66.765625 L 329.699219 64.386719 L 330.398438 59.78125 L 331.097656 61.453125 L 331.796875 64.03125 L 332.496094 60.78125 L 333.199219 60.570313 L 333.898438 56.59375 L 334.597656 58.800781 L 335.296875 58.125 L 335.996094 57.011719 L 336.695313 57.5625 L 337.394531 52.992188 L 338.097656 52.710938 L 338.796875 52.949219 L 339.496094 54.574219 L 340.195313 49.550781 L 340.894531 49.054688 L 341.59375 49.113281 L 342.296875 49.890625 L 342.996094 48.527344 L 343.695313 45.867188 L 344.394531 47.230469 L 345.09375 45.722656 L 345.792969 46.179688 L 346.492188 43.753906 L 347.195313 43.269531 L 347.894531 45.460938 L 349.292969 39.929688 L 349.992188 43.144531 L 350.691406 41.351563 L 351.394531 38.035156 L 352.09375 38.363281 L 353.492188 38.039063 L 354.191406 42.894531 L 354.890625 38.707031 L 355.589844 38.277344 L 356.292969 35.148438 L 356.992188 35.792969 L 357.691406 39.15625 L 358.390625 35.792969 L 359.089844 35.40625 L 359.789063 35.9375 L 360.492188 37.058594 L 361.191406 37.667969 L 361.890625 32.683594 L 362.589844 34.855469 L 363.289063 33.082031 L 363.988281 36.171875 L 364.6875 36.003906 L 365.390625 34.261719 L 366.089844 31.773438 L 366.789063 35.089844 L 367.488281 33.1875 L 368.1875 33.679688 L 368.886719 31.984375 L 369.589844 35.34375 L 370.289063 32.585938 L 370.988281 32.933594 L 371.6875 35.671875 L 372.386719 31.898438 L 373.085938 35.867188 L 373.785156 32.964844 L 375.1875 34.871094 L 375.886719 36.960938 L 376.585938 36.84375 L 377.285156 37.925781 L 377.984375 37.253906 L 378.6875 38.203125 L 379.386719 35.746094 L 380.785156 39.347656 L 381.484375 37.484375 L 382.183594 37.867188 L 383.585938 43.296875 L 384.285156 39.929688 L 384.984375 42.09375 L 385.683594 41.738281 L 386.382813 42.003906 L 387.082031 43.433594 L 387.785156 43.265625 L 388.484375 44.308594 L 389.183594 43.539063 L 389.882813 45.578125 L 390.582031 46.324219 L 391.984375 50.078125 L 392.683594 48.015625 L 393.382813 50.980469 L 394.082031 47.6875 L 394.78125 50.800781 L 395.480469 49.875 L 396.179688 51.035156 L 397.582031 53.9375 L 398.28125 54.894531 L 399.679688 55.734375 L 400.378906 59.113281 L 401.082031 60.441406 L 401.78125 59.179688 L 402.480469 62.347656 L 403.179688 62.167969 L 403.878906 61.136719 L 404.578125 61.90625 L 405.277344 65.058594 L 405.980469 65.144531 L 406.679688 66.558594 L 407.378906 68.234375 L 408.078125 67.527344 L 408.777344 69.503906 L 409.476563 70.625 L 410.179688 73.042969 L 410.878906 71.59375 L 411.578125 74.21875 L 412.277344 74.058594 " transform="matrix(1,0,0,-1,-13,134)"/>
<path style="fill:none;stroke-width:0.8;stroke-linecap:square;stroke-linejoin:miter;stroke:rgb(0%,0%,0%);stroke-opacity:1;stroke-miterlimit:10;" d="M 224.898438 14.300781 L 224.898438 133.199219 " transform="matrix(1,0,0,-1,-13,134)"/>
<path style="fill:none;stroke-width:0.8;stroke-linecap:square;stroke-linejoin:miter;stroke:rgb(0%,0%,0%);stroke-opacity:1;stroke-miterlimit:10;" d="M 421.199219 14.300781 L 421.199219 133.199219 " transform="matrix(1,0,0,-1,-13,134)"/>
<path style="fill:none;stroke-width:0.8;stroke-linecap:square;stroke-linejoin:miter;stroke:rgb(0%,0%,0%);stroke-opacity:1;stroke-miterlimit:10;" d="M 224.898438 14.300781 L 421.199219 14.300781 " transform="matrix(1,0,0,-1,-13,134)"/>
<path style="fill:none;stroke-width:0.8;stroke-linecap:square;stroke-linejoin:miter;stroke:rgb(0%,0%,0%);stroke-opacity:1;stroke-miterlimit:10;" d="M 224.898438 133.199219 L 421.199219 133.199219 " transform="matrix(1,0,0,-1,-13,134)"/>
</g>
</defs>
<g id="surface1">
<use xlink:href="#surface4"/>
</g>
</svg>
