<?xml version="1.0" encoding="UTF-8"?>
<svg xmlns="http://www.w3.org/2000/svg" xmlns:xlink="http://www.w3.org/1999/xlink" width="365pt" height="335pt" viewBox="0 0 365 335" version="1.1">
<defs>
<clipPath id="clip1">
  <rect width="365" height="335"/>
</clipPath>
<g id="surface4" clip-path="url(#clip1)">
<rect x="0" y="0" width="365" height="335" style="fill:rgb(100%,100%,100%);fill-opacity:1;stroke:none;"/>
<path style=" stroke:none;fill-rule:nonzero;fill:rgb(100%,100%,100%);fill-opacity:1;" d="M 1.5 65.746094 L 98.808594 65.746094 L 98.808594 54.386719 L 1.5 54.386719 Z M 1.5 65.746094 "/>
<path style="fill:none;stroke-width:0.8;stroke-linecap:square;stroke-linejoin:miter;stroke:rgb(75%,75%,75%);stroke-opacity:1;stroke-miterlimit:10;" d="M 58.5 315.253906 L 58.5 326.613281 " transform="matrix(1,0,0,-1,-57,381)"/>
<path style="fill:none;stroke-width:0.8;stroke-linecap:square;stroke-linejoin:miter;stroke:rgb(75%,75%,75%);stroke-opacity:1;stroke-miterlimit:10;" d="M 155.808594 315.253906 L 155.808594 326.613281 " transform="matrix(1,0,0,-1,-57,381)"/>
<path style="fill:none;stroke-width:0.8;stroke-linecap:square;stroke-linejoin:miter;stroke:rgb(75%,75%,75%);stroke-opacity:1;stroke-miterlimit:10;" d="M 58.5 315.253906 L 155.808594 315.253906 " transform="matrix(1,0,0,-1,-57,381)"/>
<path style="fill:none;stroke-width:0.8;stroke-linecap:square;stroke-linejoin:miter;stroke:rgb(75%,75%,75%);stroke-opacity:1;stroke-miterlimit:10;" d="M 58.5 326.613281 L 155.808594 326.613281 " transform="matrix(1,0,0,-1,-57,381)"/>
<path style=" stroke:none;fill-rule:nonzero;fill:rgb(100%,100%,100%);fill-opacity:1;" d="M 107.65625 46.273438 L 204.964844 46.273438 L 204.964844 0.839844 L 107.65625 0.839844 Z M 107.65625 46.273438 "/>
<path style="fill:none;stroke-width:0.8;stroke-linecap:square;stroke-linejoin:miter;stroke:rgb(75%,75%,75%);stroke-opacity:1;stroke-miterlimit:10;" d="M 164.65625 334.726563 L 164.65625 380.160156 " transform="matrix(1,0,0,-1,-57,381)"/>
<path style="fill:none;stroke-width:0.8;stroke-linecap:square;stroke-linejoin:miter;stroke:rgb(75%,75%,75%);stroke-opacity:1;stroke-miterlimit:10;" d="M 261.964844 334.726563 L 261.964844 380.160156 " transform="matrix(1,0,0,-1,-57,381)"/>
<path style="fill:none;stroke-width:0.8;stroke-linecap:square;stroke-linejoin:miter;stroke:rgb(75%,75%,75%);stroke-opacity:1;stroke-miterlimit:10;" d="M 164.65625 334.726563 L 261.964844 334.726563 " transform="matrix(1,0,0,-1,-57,381)"/>
<path style="fill:none;stroke-width:0.8;stroke-linecap:square;stroke-linejoin:miter;stroke:rgb(75%,75%,75%);stroke-opacity:1;stroke-miterlimit:10;" d="M 164.65625 380.160156 L 261.964844 380.160156 " transform="matrix(1,0,0,-1,-57,381)"/>
<path style=" stroke:none;fill-rule:nonzero;fill:rgb(100%,100%,100%);fill-opacity:1;" d="M 266.890625 46.273438 L 364.199219 46.273438 L 364.199219 0.839844 L 266.890625 0.839844 Z M 266.890625 46.273438 "/>
<path style="fill:none;stroke-width:0.8;stroke-linecap:square;stroke-linejoin:miter;stroke:rgb(75%,75%,75%);stroke-opacity:1;stroke-miterlimit:10;" d="M 323.890625 334.726563 L 323.890625 380.160156 " transform="matrix(1,0,0,-1,-57,381)"/>
<path style="fill:none;stroke-width:0.8;stroke-linecap:square;stroke-linejoin:miter;stroke:rgb(75%,75%,75%);stroke-opacity:1;stroke-miterlimit:10;" d="M 421.199219 334.726563 L 421.199219 380.160156 " transform="matrix(1,0,0,-1,-57,381)"/>
<path style="fill:none;stroke-width:0.8;stroke-linecap:square;stroke-linejoin:miter;stroke:rgb(75%,75%,75%);stroke-opacity:1;stroke-miterlimit:10;" d="M 323.890625 334.726563 L 421.199219 334.726563 " transform="matrix(1,0,0,-1,-57,381)"/>
<path style="fill:none;stroke-width:0.8;stroke-linecap:square;stroke-linejoin:miter;stroke:rgb(75%,75%,75%);stroke-opacity:1;stroke-miterlimit:10;" d="M 323.890625 380.160156 L 421.199219 380.160156 " transform="matrix(1,0,0,-1,-57,381)"/>
<path style=" stroke:none;fill-rule:nonzero;fill:rgb(100%,100%,100%);fill-opacity:1;" d="M 107.65625 65.746094 L 151.886719 65.746094 L 151.886719 54.386719 L 107.65625 54.386719 Z M 107.65625 65.746094 "/>
<path style="fill:none;stroke-width:0.8;stroke-linecap:square;stroke-linejoin:miter;stroke:rgb(0%,0%,0%);stroke-opacity:1;stroke-miterlimit:10;" d="M 164.65625 315.253906 L 164.65625 326.613281 " transform="matrix(1,0,0,-1,-57,381)"/>
<path style="fill:none;stroke-width:0.8;stroke-linecap:square;stroke-linejoin:miter;stroke:rgb(0%,0%,0%);stroke-opacity:1;stroke-miterlimit:10;" d="M 208.886719 315.253906 L 208.886719 326.613281 " transform="matrix(1,0,0,-1,-57,381)"/>
<path style="fill:none;stroke-width:0.8;stroke-linecap:square;stroke-linejoin:miter;stroke:rgb(0%,0%,0%);stroke-opacity:1;stroke-miterlimit:10;" d="M 164.65625 315.253906 L 208.886719 315.253906 " transform="matrix(1,0,0,-1,-57,381)"/>
<path style="fill:none;stroke-width:0.8;stroke-linecap:square;stroke-linejoin:miter;stroke:rgb(0%,0%,0%);stroke-opacity:1;stroke-miterlimit:10;" d="M 164.65625 326.613281 L 208.886719 326.613281 " transform="matrix(1,0,0,-1,-57,381)"/>
<path style=" stroke:none;fill-rule:nonzero;fill:rgb(100%,100%,100%);fill-opacity:1;" d="M 160.734375 65.746094 L 204.964844 65.746094 L 204.964844 54.386719 L 160.734375 54.386719 Z M 160.734375 65.746094 "/>
<path style="fill:none;stroke-width:0.8;stroke-linecap:square;stroke-linejoin:miter;stroke:rgb(0%,0%,0%);stroke-opacity:1;stroke-miterlimit:10;" d="M 217.734375 315.253906 L 217.734375 326.613281 " transform="matrix(1,0,0,-1,-57,381)"/>
<path style="fill:none;stroke-width:0.8;stroke-linecap:square;stroke-linejoin:miter;stroke:rgb(0%,0%,0%);stroke-opacity:1;stroke-miterlimit:10;" d="M 261.964844 315.253906 L 261.964844 326.613281 " transform="matrix(1,0,0,-1,-57,381)"/>
<path style="fill:none;stroke-width:0.8;stroke-linecap:square;stroke-linejoin:miter;stroke:rgb(0%,0%,0%);stroke-opacity:1;stroke-miterlimit:10;" d="M 217.734375 315.253906 L 261.964844 315.253906 " transform="matrix(1,0,0,-1,-57,381)"/>
<path style="fill:none;stroke-width:0.8;stroke-linecap:square;stroke-linejoin:miter;stroke:rgb(0%,0%,0%);stroke-opacity:1;stroke-miterlimit:10;" d="M 217.734375 326.613281 L 261.964844 326.613281 " transform="matrix(1,0,0,-1,-57,381)"/>
<path style=" stroke:none;fill-rule:nonzero;fill:rgb(100%,100%,100%);fill-opacity:1;" d="M 213.8125 65.746094 L 258.042969 65.746094 L 258.042969 54.386719 L 213.8125 54.386719 Z M 213.8125 65.746094 "/>
<path style="fill:none;stroke-width:0.8;stroke-linecap:square;stroke-linejoin:miter;stroke:rgb(0%,0%,0%);stroke-opacity:1;stroke-miterlimit:10;" d="M 270.8125 315.253906 L 270.8125 326.613281 " transform="matrix(1,0,0,-1,-57,381)"/>
<path style="fill:none;stroke-width:0.8;stroke-linecap:square;stroke-linejoin:miter;stroke:rgb(0%,0%,0%);stroke-opacity:1;stroke-miterlimit:10;" d="M 315.042969 315.253906 L 315.042969 326.613281 " transform="matrix(1,0,0,-1,-57,381)"/>
<path style="fill:none;stroke-width:0.8;stroke-linecap:square;stroke-linejoin:miter;stroke:rgb(0%,0%,0%);stroke-opacity:1;stroke-miterlimit:10;" d="M 270.8125 315.253906 L 315.042969 315.253906 " transform="matrix(1,0,0,-1,-57,381)"/>
<path style="fill:none;stroke-width:0.8;stroke-linecap:square;stroke-linejoin:miter;stroke:rgb(0%,0%,0%);stroke-opacity:1;stroke-miterlimit:10;" d="M 270.8125 326.613281 L 315.042969 326.613281 " transform="matrix(1,0,0,-1,-57,381)"/>
<path style=" stroke:none;fill-rule:nonzero;fill:rgb(100%,100%,100%);fill-opacity:1;" d="M 266.890625 65.746094 L 311.121094 65.746094 L 311.121094 54.386719 L 266.890625 54.386719 Z M 266.890625 65.746094 "/>
<path style="fill:none;stroke-width:0.8;stroke-linecap:square;stroke-linejoin:miter;stroke:rgb(0%,0%,0%);stroke-opacity:1;stroke-miterlimit:10;" d="M 323.890625 315.253906 L 323.890625 326.613281 " transform="matrix(1,0,0,-1,-57,381)"/>
<path style="fill:none;stroke-width:0.8;stroke-linecap:square;stroke-linejoin:miter;stroke:rgb(0%,0%,0%);stroke-opacity:1;stroke-miterlimit:10;" d="M 368.121094 315.253906 L 368.121094 326.613281 " transform="matrix(1,0,0,-1,-57,381)"/>
<path style="fill:none;stroke-width:0.8;stroke-linecap:square;stroke-linejoin:miter;stroke:rgb(0%,0%,0%);stroke-opacity:1;stroke-miterlimit:10;" d="M 323.890625 315.253906 L 368.121094 315.253906 " transform="matrix(1,0,0,-1,-57,381)"/>
<path style="fill:none;stroke-width:0.8;stroke-linecap:square;stroke-linejoin:miter;stroke:rgb(0%,0%,0%);stroke-opacity:1;stroke-miterlimit:10;" d="M 323.890625 326.613281 L 368.121094 326.613281 " transform="matrix(1,0,0,-1,-57,381)"/>
<path style=" stroke:none;fill-rule:nonzero;fill:rgb(100%,100%,100%);fill-opacity:1;" d="M 319.96875 65.746094 L 364.199219 65.746094 L 364.199219 54.386719 L 319.96875 54.386719 Z M 319.96875 65.746094 "/>
<path style="fill:none;stroke-width:0.8;stroke-linecap:square;stroke-linejoin:miter;stroke:rgb(0%,0%,0%);stroke-opacity:1;stroke-miterlimit:10;" d="M 376.96875 315.253906 L 376.96875 326.613281 " transform="matrix(1,0,0,-1,-57,381)"/>
<path style="fill:none;stroke-width:0.8;stroke-linecap:square;stroke-linejoin:miter;stroke:rgb(0%,0%,0%);stroke-opacity:1;stroke-miterlimit:10;" d="M 421.199219 315.253906 L 421.199219 326.613281 " transform="matrix(1,0,0,-1,-57,381)"/>
<path style="fill:none;stroke-width:0.8;stroke-linecap:square;stroke-linejoin:miter;stroke:rgb(0%,0%,0%);stroke-opacity:1;stroke-miterlimit:10;" d="M 376.96875 315.253906 L 421.199219 315.253906 " transform="matrix(1,0,0,-1,-57,381)"/>
<path style="fill:none;stroke-width:0.8;stroke-linecap:square;stroke-linejoin:miter;stroke:rgb(0%,0%,0%);stroke-opacity:1;stroke-miterlimit:10;" d="M 376.96875 326.613281 L 421.199219 326.613281 " transform="matrix(1,0,0,-1,-57,381)"/>
<path style=" stroke:none;fill-rule:nonzero;fill:rgb(100%,100%,100%);fill-opacity:1;" d="M 1.5 119.292969 L 98.808594 119.292969 L 98.808594 73.859375 L 1.5 73.859375 Z M 1.5 119.292969 "/>
<path style="fill:none;stroke-width:0.8;stroke-linecap:square;stroke-linejoin:miter;stroke:rgb(0%,0%,0%);stroke-opacity:1;stroke-miterlimit:10;" d="M 58.5 261.707031 L 58.5 307.140625 " transform="matrix(1,0,0,-1,-57,381)"/>
<path style="fill:none;stroke-width:0.8;stroke-linecap:square;stroke-linejoin:miter;stroke:rgb(0%,0%,0%);stroke-opacity:1;stroke-miterlimit:10;" d="M 155.808594 261.707031 L 155.808594 307.140625 " transform="matrix(1,0,0,-1,-57,381)"/>
<path style="fill:none;stroke-width:0.8;stroke-linecap:square;stroke-linejoin:miter;stroke:rgb(0%,0%,0%);stroke-opacity:1;stroke-miterlimit:10;" d="M 58.5 261.707031 L 155.808594 261.707031 " transform="matrix(1,0,0,-1,-57,381)"/>
<path style="fill:none;stroke-width:0.8;stroke-linecap:square;stroke-linejoin:miter;stroke:rgb(0%,0%,0%);stroke-opacity:1;stroke-miterlimit:10;" d="M 58.5 307.140625 L 155.808594 307.140625 " transform="matrix(1,0,0,-1,-57,381)"/>
<path style=" stroke:none;fill-rule:nonzero;fill:rgb(100%,100%,100%);fill-opacity:1;" d="M 107.65625 118.691406 L 151.886719 118.691406 L 151.886719 74.460938 L 107.65625 74.460938 Z M 107.65625 118.691406 "/>
<path style="fill:none;stroke-width:0.8;stroke-linecap:square;stroke-linejoin:miter;stroke:rgb(0%,0%,0%);stroke-opacity:1;stroke-miterlimit:10;" d="M 164.65625 262.308594 L 164.65625 306.539063 " transform="matrix(1,0,0,-1,-57,381)"/>
<path style="fill:none;stroke-width:0.8;stroke-linecap:square;stroke-linejoin:miter;stroke:rgb(0%,0%,0%);stroke-opacity:1;stroke-miterlimit:10;" d="M 208.886719 262.308594 L 208.886719 306.539063 " transform="matrix(1,0,0,-1,-57,381)"/>
<path style="fill:none;stroke-width:0.8;stroke-linecap:square;stroke-linejoin:miter;stroke:rgb(0%,0%,0%);stroke-opacity:1;stroke-miterlimit:10;" d="M 164.65625 262.308594 L 208.886719 262.308594 " transform="matrix(1,0,0,-1,-57,381)"/>
<path style="fill:none;stroke-width:0.8;stroke-linecap:square;stroke-linejoin:miter;stroke:rgb(0%,0%,0%);stroke-opacity:1;stroke-miterlimit:10;" d="M 164.65625 306.539063 L 208.886719 306.539063 " transform="matrix(1,0,0,-1,-57,381)"/>
<path style=" stroke:none;fill-rule:nonzero;fill:rgb(100%,100%,100%);fill-opacity:1;" d="M 160.734375 118.691406 L 204.964844 118.691406 L 204.964844 74.460938 L 160.734375 74.460938 Z M 160.734375 118.691406 "/>
<path style="fill:none;stroke-width:0.8;stroke-linecap:square;stroke-linejoin:miter;stroke:rgb(0%,0%,0%);stroke-opacity:1;stroke-miterlimit:10;" d="M 217.734375 262.308594 L 217.734375 306.539063 " transform="matrix(1,0,0,-1,-57,381)"/>
<path style="fill:none;stroke-width:0.8;stroke-linecap:square;stroke-linejoin:miter;stroke:rgb(0%,0%,0%);stroke-opacity:1;stroke-miterlimit:10;" d="M 261.964844 262.308594 L 261.964844 306.539063 " transform="matrix(1,0,0,-1,-57,381)"/>
<path style="fill:none;stroke-width:0.8;stroke-linecap:square;stroke-linejoin:miter;stroke:rgb(0%,0%,0%);stroke-opacity:1;stroke-miterlimit:10;" d="M 217.734375 262.308594 L 261.964844 262.308594 " transform="matrix(1,0,0,-1,-57,381)"/>
<path style="fill:none;stroke-width:0.8;stroke-linecap:square;stroke-linejoin:miter;stroke:rgb(0%,0%,0%);stroke-opacity:1;stroke-miterlimit:10;" d="M 217.734375 306.539063 L 261.964844 306.539063 " transform="matrix(1,0,0,-1,-57,381)"/>
<path style=" stroke:none;fill-rule:nonzero;fill:rgb(100%,100%,100%);fill-opacity:1;" d="M 213.8125 118.691406 L 258.042969 118.691406 L 258.042969 74.460938 L 213.8125 74.460938 Z M 213.8125 118.691406 "/>
<path style="fill:none;stroke-width:0.8;stroke-linecap:square;stroke-linejoin:miter;stroke:rgb(0%,0%,0%);stroke-opacity:1;stroke-miterlimit:10;" d="M 270.8125 262.308594 L 270.8125 306.539063 " transform="matrix(1,0,0,-1,-57,381)"/>
<path style="fill:none;stroke-width:0.8;stroke-linecap:square;stroke-linejoin:miter;stroke:rgb(0%,0%,0%);stroke-opacity:1;stroke-miterlimit:10;" d="M 315.042969 262.308594 L 315.042969 306.539063 " transform="matrix(1,0,0,-1,-57,381)"/>
<path style="fill:none;stroke-width:0.8;stroke-linecap:square;stroke-linejoin:miter;stroke:rgb(0%,0%,0%);stroke-opacity:1;stroke-miterlimit:10;" d="M 270.8125 262.308594 L 315.042969 262.308594 " transform="matrix(1,0,0,-1,-57,381)"/>
<path style="fill:none;stroke-width:0.8;stroke-linecap:square;stroke-linejoin:miter;stroke:rgb(0%,0%,0%);stroke-opacity:1;stroke-miterlimit:10;" d="M 270.8125 306.539063 L 315.042969 306.539063 " transform="matrix(1,0,0,-1,-57,381)"/>
<path style=" stroke:none;fill-rule:nonzero;fill:rgb(100%,100%,100%);fill-opacity:1;" d="M 266.890625 118.691406 L 311.121094 118.691406 L 311.121094 74.460938 L 266.890625 74.460938 Z M 266.890625 118.691406 "/>
<path style="fill:none;stroke-width:0.8;stroke-linecap:square;stroke-linejoin:miter;stroke:rgb(0%,0%,0%);stroke-opacity:1;stroke-miterlimit:10;" d="M 323.890625 262.308594 L 323.890625 306.539063 " transform="matrix(1,0,0,-1,-57,381)"/>
<path style="fill:none;stroke-width:0.8;stroke-linecap:square;stroke-linejoin:miter;stroke:rgb(0%,0%,0%);stroke-opacity:1;stroke-miterlimit:10;" d="M 368.121094 262.308594 L 368.121094 306.539063 " transform="matrix(1,0,0,-1,-57,381)"/>
<path style="fill:none;stroke-width:0.8;stroke-linecap:square;stroke-linejoin:miter;stroke:rgb(0%,0%,0%);stroke-opacity:1;stroke-miterlimit:10;" d="M 323.890625 262.308594 L 368.121094 262.308594 " transform="matrix(1,0,0,-1,-57,381)"/>
<path style="fill:none;stroke-width:0.8;stroke-linecap:square;stroke-linejoin:miter;stroke:rgb(0%,0%,0%);stroke-opacity:1;stroke-miterlimit:10;" d="M 323.890625 306.539063 L 368.121094 306.539063 " transform="matrix(1,0,0,-1,-57,381)"/>
<path style=" stroke:none;fill-rule:nonzero;fill:rgb(100%,100%,100%);fill-opacity:1;" d="M 319.96875 118.691406 L 364.199219 118.691406 L 364.199219 74.460938 L 319.96875 74.460938 Z M 319.96875 118.691406 "/>
<path style="fill:none;stroke-width:0.8;stroke-linecap:square;stroke-linejoin:miter;stroke:rgb(0%,0%,0%);stroke-opacity:1;stroke-miterlimit:10;" d="M 376.96875 262.308594 L 376.96875 306.539063 " transform="matrix(1,0,0,-1,-57,381)"/>
<path style="fill:none;stroke-width:0.8;stroke-linecap:square;stroke-linejoin:miter;stroke:rgb(0%,0%,0%);stroke-opacity:1;stroke-miterlimit:10;" d="M 421.199219 262.308594 L 421.199219 306.539063 " transform="matrix(1,0,0,-1,-57,381)"/>
<path style="fill:none;stroke-width:0.8;stroke-linecap:square;stroke-linejoin:miter;stroke:rgb(0%,0%,0%);stroke-opacity:1;stroke-miterlimit:10;" d="M 376.96875 262.308594 L 421.199219 262.308594 " transform="matrix(1,0,0,-1,-57,381)"/>
<path style="fill:none;stroke-width:0.8;stroke-linecap:square;stroke-linejoin:miter;stroke:rgb(0%,0%,0%);stroke-opacity:1;stroke-miterlimit:10;" d="M 376.96875 306.539063 L 421.199219 306.539063 " transform="matrix(1,0,0,-1,-57,381)"/>
<path style=" stroke:none;fill-rule:nonzero;fill:rgb(100%,100%,100%);fill-opacity:1;" d="M 1.5 172.839844 L 98.808594 172.839844 L 98.808594 127.40625 L 1.5 127.40625 Z M 1.5 172.839844 "/>
<path style="fill:none;stroke-width:0.8;stroke-linecap:square;stroke-linejoin:miter;stroke:rgb(0%,0%,0%);stroke-opacity:1;stroke-miterlimit:10;" d="M 58.5 208.160156 L 58.5 253.59375 " transform="matrix(1,0,0,-1,-57,381)"/>
<path style="fill:none;stroke-width:0.8;stroke-linecap:square;stroke-linejoin:miter;stroke:rgb(0%,0%,0%);stroke-opacity:1;stroke-miterlimit:10;" d="M 155.808594 208.160156 L 155.808594 253.59375 " transform="matrix(1,0,0,-1,-57,381)"/>
<path style="fill:none;stroke-width:0.8;stroke-linecap:square;stroke-linejoin:miter;stroke:rgb(0%,0%,0%);stroke-opacity:1;stroke-miterlimit:10;" d="M 58.5 208.160156 L 155.808594 208.160156 " transform="matrix(1,0,0,-1,-57,381)"/>
<path style="fill:none;stroke-width:0.8;stroke-linecap:square;stroke-linejoin:miter;stroke:rgb(0%,0%,0%);stroke-opacity:1;stroke-miterlimit:10;" d="M 58.5 253.59375 L 155.808594 253.59375 " transform="matrix(1,0,0,-1,-57,381)"/>
<path style=" stroke:none;fill-rule:nonzero;fill:rgb(100%,100%,100%);fill-opacity:1;" d="M 107.65625 172.238281 L 151.886719 172.238281 L 151.886719 128.007813 L 107.65625 128.007813 Z M 107.65625 172.238281 "/>
<path style="fill:none;stroke-width:0.8;stroke-linecap:square;stroke-linejoin:miter;stroke:rgb(0%,0%,0%);stroke-opacity:1;stroke-miterlimit:10;" d="M 164.65625 208.761719 L 164.65625 252.992188 " transform="matrix(1,0,0,-1,-57,381)"/>
<path style="fill:none;stroke-width:0.8;stroke-linecap:square;stroke-linejoin:miter;stroke:rgb(0%,0%,0%);stroke-opacity:1;stroke-miterlimit:10;" d="M 208.886719 208.761719 L 208.886719 252.992188 " transform="matrix(1,0,0,-1,-57,381)"/>
<path style="fill:none;stroke-width:0.8;stroke-linecap:square;stroke-linejoin:miter;stroke:rgb(0%,0%,0%);stroke-opacity:1;stroke-miterlimit:10;" d="M 164.65625 208.761719 L 208.886719 208.761719 " transform="matrix(1,0,0,-1,-57,381)"/>
<path style="fill:none;stroke-width:0.8;stroke-linecap:square;stroke-linejoin:miter;stroke:rgb(0%,0%,0%);stroke-opacity:1;stroke-miterlimit:10;" d="M 164.65625 252.992188 L 208.886719 252.992188 " transform="matrix(1,0,0,-1,-57,381)"/>
<path style=" stroke:none;fill-rule:nonzero;fill:rgb(100%,100%,100%);fill-opacity:1;" d="M 160.734375 172.238281 L 204.964844 172.238281 L 204.964844 128.007813 L 160.734375 128.007813 Z M 160.734375 172.238281 "/>
<path style="fill:none;stroke-width:0.8;stroke-linecap:square;stroke-linejoin:miter;stroke:rgb(0%,0%,0%);stroke-opacity:1;stroke-miterlimit:10;" d="M 217.734375 208.761719 L 217.734375 252.992188 " transform="matrix(1,0,0,-1,-57,381)"/>
<path style="fill:none;stroke-width:0.8;stroke-linecap:square;stroke-linejoin:miter;stroke:rgb(0%,0%,0%);stroke-opacity:1;stroke-miterlimit:10;" d="M 261.964844 208.761719 L 261.964844 252.992188 " transform="matrix(1,0,0,-1,-57,381)"/>
<path style="fill:none;stroke-width:0.8;stroke-linecap:square;stroke-linejoin:miter;stroke:rgb(0%,0%,0%);stroke-opacity:1;stroke-miterlimit:10;" d="M 217.734375 208.761719 L 261.964844 208.761719 " transform="matrix(1,0,0,-1,-57,381)"/>
<path style="fill:none;stroke-width:0.8;stroke-linecap:square;stroke-linejoin:miter;stroke:rgb(0%,0%,0%);stroke-opacity:1;stroke-miterlimit:10;" d="M 217.734375 252.992188 L 261.964844 252.992188 " transform="matrix(1,0,0,-1,-57,381)"/>
<path style=" stroke:none;fill-rule:nonzero;fill:rgb(100%,100%,100%);fill-opacity:1;" d="M 213.8125 172.238281 L 258.042969 172.238281 L 258.042969 128.007813 L 213.8125 128.007813 Z M 213.8125 172.238281 "/>
<path style="fill:none;stroke-width:0.8;stroke-linecap:square;stroke-linejoin:miter;stroke:rgb(0%,0%,0%);stroke-opacity:1;stroke-miterlimit:10;" d="M 270.8125 208.761719 L 270.8125 252.992188 " transform="matrix(1,0,0,-1,-57,381)"/>
<path style="fill:none;stroke-width:0.8;stroke-linecap:square;stroke-linejoin:miter;stroke:rgb(0%,0%,0%);stroke-opacity:1;stroke-miterlimit:10;" d="M 315.042969 208.761719 L 315.042969 252.992188 " transform="matrix(1,0,0,-1,-57,381)"/>
<path style="fill:none;stroke-width:0.8;stroke-linecap:square;stroke-linejoin:miter;stroke:rgb(0%,0%,0%);stroke-opacity:1;stroke-miterlimit:10;" d="M 270.8125 208.761719 L 315.042969 208.761719 " transform="matrix(1,0,0,-1,-57,381)"/>
<path style="fill:none;stroke-width:0.8;stroke-linecap:square;stroke-linejoin:miter;stroke:rgb(0%,0%,0%);stroke-opacity:1;stroke-miterlimit:10;" d="M 270.8125 252.992188 L 315.042969 252.992188 " transform="matrix(1,0,0,-1,-57,381)"/>
<path style=" stroke:none;fill-rule:nonzero;fill:rgb(100%,100%,100%);fill-opacity:1;" d="M 266.890625 172.238281 L 311.121094 172.238281 L 311.121094 128.007813 L 266.890625 128.007813 Z M 266.890625 172.238281 "/>
<path style="fill:none;stroke-width:0.8;stroke-linecap:square;stroke-linejoin:miter;stroke:rgb(0%,0%,0%);stroke-opacity:1;stroke-miterlimit:10;" d="M 323.890625 208.761719 L 323.890625 252.992188 " transform="matrix(1,0,0,-1,-57,381)"/>
<path style="fill:none;stroke-width:0.8;stroke-linecap:square;stroke-linejoin:miter;stroke:rgb(0%,0%,0%);stroke-opacity:1;stroke-miterlimit:10;" d="M 368.121094 208.761719 L 368.121094 252.992188 " transform="matrix(1,0,0,-1,-57,381)"/>
<path style="fill:none;stroke-width:0.8;stroke-linecap:square;stroke-linejoin:miter;stroke:rgb(0%,0%,0%);stroke-opacity:1;stroke-miterlimit:10;" d="M 323.890625 208.761719 L 368.121094 208.761719 " transform="matrix(1,0,0,-1,-57,381)"/>
<path style="fill:none;stroke-width:0.8;stroke-linecap:square;stroke-linejoin:miter;stroke:rgb(0%,0%,0%);stroke-opacity:1;stroke-miterlimit:10;" d="M 323.890625 252.992188 L 368.121094 252.992188 " transform="matrix(1,0,0,-1,-57,381)"/>
<path style=" stroke:none;fill-rule:nonzero;fill:rgb(100%,100%,100%);fill-opacity:1;" d="M 319.96875 172.238281 L 364.199219 172.238281 L 364.199219 128.007813 L 319.96875 128.007813 Z M 319.96875 172.238281 "/>
<path style="fill:none;stroke-width:0.8;stroke-linecap:square;stroke-linejoin:miter;stroke:rgb(0%,0%,0%);stroke-opacity:1;stroke-miterlimit:10;" d="M 376.96875 208.761719 L 376.96875 252.992188 " transform="matrix(1,0,0,-1,-57,381)"/>
<path style="fill:none;stroke-width:0.8;stroke-linecap:square;stroke-linejoin:miter;stroke:rgb(0%,0%,0%);stroke-opacity:1;stroke-miterlimit:10;" d="M 421.199219 208.761719 L 421.199219 252.992188 " transform="matrix(1,0,0,-1,-57,381)"/>
<path style="fill:none;stroke-width:0.8;stroke-linecap:square;stroke-linejoin:miter;stroke:rgb(0%,0%,0%);stroke-opacity:1;stroke-miterlimit:10;" d="M 376.96875 208.761719 L 421.199219 208.761719 " transform="matrix(1,0,0,-1,-57,381)"/>
<path style="fill:none;stroke-width:0.8;stroke-linecap:square;stroke-linejoin:miter;stroke:rgb(0%,0%,0%);stroke-opacity:1;stroke-miterlimit:10;" d="M 376.96875 252.992188 L 421.199219 252.992188 " transform="matrix(1,0,0,-1,-57,381)"/>
<path style=" stroke:none;fill-rule:nonzero;fill:rgb(100%,100%,100%);fill-opacity:1;" d="M 1.5 226.386719 L 98.808594 226.386719 L 98.808594 180.953125 L 1.5 180.953125 Z M 1.5 226.386719 "/>
<path style="fill:none;stroke-width:0.8;stroke-linecap:square;stroke-linejoin:miter;stroke:rgb(0%,0%,0%);stroke-opacity:1;stroke-miterlimit:10;" d="M 58.5 154.613281 L 58.5 200.046875 " transform="matrix(1,0,0,-1,-57,381)"/>
<path style="fill:none;stroke-width:0.8;stroke-linecap:square;stroke-linejoin:miter;stroke:rgb(0%,0%,0%);stroke-opacity:1;stroke-miterlimit:10;" d="M 155.808594 154.613281 L 155.808594 200.046875 " transform="matrix(1,0,0,-1,-57,381)"/>
<path style="fill:none;stroke-width:0.8;stroke-linecap:square;stroke-linejoin:miter;stroke:rgb(0%,0%,0%);stroke-opacity:1;stroke-miterlimit:10;" d="M 58.5 154.613281 L 155.808594 154.613281 " transform="matrix(1,0,0,-1,-57,381)"/>
<path style="fill:none;stroke-width:0.8;stroke-linecap:square;stroke-linejoin:miter;stroke:rgb(0%,0%,0%);stroke-opacity:1;stroke-miterlimit:10;" d="M 58.5 200.046875 L 155.808594 200.046875 " transform="matrix(1,0,0,-1,-57,381)"/>
<path style=" stroke:none;fill-rule:nonzero;fill:rgb(100%,100%,100%);fill-opacity:1;" d="M 107.65625 225.785156 L 151.886719 225.785156 L 151.886719 181.554688 L 107.65625 181.554688 Z M 107.65625 225.785156 "/>
<path style="fill:none;stroke-width:0.8;stroke-linecap:square;stroke-linejoin:miter;stroke:rgb(0%,0%,0%);stroke-opacity:1;stroke-miterlimit:10;" d="M 164.65625 155.214844 L 164.65625 199.445313 " transform="matrix(1,0,0,-1,-57,381)"/>
<path style="fill:none;stroke-width:0.8;stroke-linecap:square;stroke-linejoin:miter;stroke:rgb(0%,0%,0%);stroke-opacity:1;stroke-miterlimit:10;" d="M 208.886719 155.214844 L 208.886719 199.445313 " transform="matrix(1,0,0,-1,-57,381)"/>
<path style="fill:none;stroke-width:0.8;stroke-linecap:square;stroke-linejoin:miter;stroke:rgb(0%,0%,0%);stroke-opacity:1;stroke-miterlimit:10;" d="M 164.65625 155.214844 L 208.886719 155.214844 " transform="matrix(1,0,0,-1,-57,381)"/>
<path style="fill:none;stroke-width:0.8;stroke-linecap:square;stroke-linejoin:miter;stroke:rgb(0%,0%,0%);stroke-opacity:1;stroke-miterlimit:10;" d="M 164.65625 199.445313 L 208.886719 199.445313 " transform="matrix(1,0,0,-1,-57,381)"/>
<path style=" stroke:none;fill-rule:nonzero;fill:rgb(100%,100%,100%);fill-opacity:1;" d="M 160.734375 225.785156 L 204.964844 225.785156 L 204.964844 181.554688 L 160.734375 181.554688 Z M 160.734375 225.785156 "/>
<path style="fill:none;stroke-width:0.8;stroke-linecap:square;stroke-linejoin:miter;stroke:rgb(0%,0%,0%);stroke-opacity:1;stroke-miterlimit:10;" d="M 217.734375 155.214844 L 217.734375 199.445313 " transform="matrix(1,0,0,-1,-57,381)"/>
<path style="fill:none;stroke-width:0.8;stroke-linecap:square;stroke-linejoin:miter;stroke:rgb(0%,0%,0%);stroke-opacity:1;stroke-miterlimit:10;" d="M 261.964844 155.214844 L 261.964844 199.445313 " transform="matrix(1,0,0,-1,-57,381)"/>
<path style="fill:none;stroke-width:0.8;stroke-linecap:square;stroke-linejoin:miter;stroke:rgb(0%,0%,0%);stroke-opacity:1;stroke-miterlimit:10;" d="M 217.734375 155.214844 L 261.964844 155.214844 " transform="matrix(1,0,0,-1,-57,381)"/>
<path style="fill:none;stroke-width:0.8;stroke-linecap:square;stroke-linejoin:miter;stroke:rgb(0%,0%,0%);stroke-opacity:1;stroke-miterlimit:10;" d="M 217.734375 199.445313 L 261.964844 199.445313 " transform="matrix(1,0,0,-1,-57,381)"/>
<path style=" stroke:none;fill-rule:nonzero;fill:rgb(100%,100%,100%);fill-opacity:1;" d="M 213.8125 225.785156 L 258.042969 225.785156 L 258.042969 181.554688 L 213.8125 181.554688 Z M 213.8125 225.785156 "/>
<path style="fill:none;stroke-width:0.8;stroke-linecap:square;stroke-linejoin:miter;stroke:rgb(0%,0%,0%);stroke-opacity:1;stroke-miterlimit:10;" d="M 270.8125 155.214844 L 270.8125 199.445313 " transform="matrix(1,0,0,-1,-57,381)"/>
<path style="fill:none;stroke-width:0.8;stroke-linecap:square;stroke-linejoin:miter;stroke:rgb(0%,0%,0%);stroke-opacity:1;stroke-miterlimit:10;" d="M 315.042969 155.214844 L 315.042969 199.445313 " transform="matrix(1,0,0,-1,-57,381)"/>
<path style="fill:none;stroke-width:0.8;stroke-linecap:square;stroke-linejoin:miter;stroke:rgb(0%,0%,0%);stroke-opacity:1;stroke-miterlimit:10;" d="M 270.8125 155.214844 L 315.042969 155.214844 " transform="matrix(1,0,0,-1,-57,381)"/>
<path style="fill:none;stroke-width:0.8;stroke-linecap:square;stroke-linejoin:miter;stroke:rgb(0%,0%,0%);stroke-opacity:1;stroke-miterlimit:10;" d="M 270.8125 199.445313 L 315.042969 199.445313 " transform="matrix(1,0,0,-1,-57,381)"/>
<path style=" stroke:none;fill-rule:nonzero;fill:rgb(100%,100%,100%);fill-opacity:1;" d="M 266.890625 225.785156 L 311.121094 225.785156 L 311.121094 181.554688 L 266.890625 181.554688 Z M 266.890625 225.785156 "/>
<path style="fill:none;stroke-width:0.8;stroke-linecap:square;stroke-linejoin:miter;stroke:rgb(0%,0%,0%);stroke-opacity:1;stroke-miterlimit:10;" d="M 323.890625 155.214844 L 323.890625 199.445313 " transform="matrix(1,0,0,-1,-57,381)"/>
<path style="fill:none;stroke-width:0.8;stroke-linecap:square;stroke-linejoin:miter;stroke:rgb(0%,0%,0%);stroke-opacity:1;stroke-miterlimit:10;" d="M 368.121094 155.214844 L 368.121094 199.445313 " transform="matrix(1,0,0,-1,-57,381)"/>
<path style="fill:none;stroke-width:0.8;stroke-linecap:square;stroke-linejoin:miter;stroke:rgb(0%,0%,0%);stroke-opacity:1;stroke-miterlimit:10;" d="M 323.890625 155.214844 L 368.121094 155.214844 " transform="matrix(1,0,0,-1,-57,381)"/>
<path style="fill:none;stroke-width:0.8;stroke-linecap:square;stroke-linejoin:miter;stroke:rgb(0%,0%,0%);stroke-opacity:1;stroke-miterlimit:10;" d="M 323.890625 199.445313 L 368.121094 199.445313 " transform="matrix(1,0,0,-1,-57,381)"/>
<path style=" stroke:none;fill-rule:nonzero;fill:rgb(100%,100%,100%);fill-opacity:1;" d="M 319.96875 225.785156 L 364.199219 225.785156 L 364.199219 181.554688 L 319.96875 181.554688 Z M 319.96875 225.785156 "/>
<path style="fill:none;stroke-width:0.8;stroke-linecap:square;stroke-linejoin:miter;stroke:rgb(0%,0%,0%);stroke-opacity:1;stroke-miterlimit:10;" d="M 376.96875 155.214844 L 376.96875 199.445313 " transform="matrix(1,0,0,-1,-57,381)"/>
<path style="fill:none;stroke-width:0.8;stroke-linecap:square;stroke-linejoin:miter;stroke:rgb(0%,0%,0%);stroke-opacity:1;stroke-miterlimit:10;" d="M 421.199219 155.214844 L 421.199219 199.445313 " transform="matrix(1,0,0,-1,-57,381)"/>
<path style="fill:none;stroke-width:0.8;stroke-linecap:square;stroke-linejoin:miter;stroke:rgb(0%,0%,0%);stroke-opacity:1;stroke-miterlimit:10;" d="M 376.96875 155.214844 L 421.199219 155.214844 " transform="matrix(1,0,0,-1,-57,381)"/>
<path style="fill:none;stroke-width:0.8;stroke-linecap:square;stroke-linejoin:miter;stroke:rgb(0%,0%,0%);stroke-opacity:1;stroke-miterlimit:10;" d="M 376.96875 199.445313 L 421.199219 199.445313 " transform="matrix(1,0,0,-1,-57,381)"/>
<path style=" stroke:none;fill-rule:nonzero;fill:rgb(100%,100%,100%);fill-opacity:1;" d="M 1.5 279.933594 L 98.808594 279.933594 L 98.808594 234.5 L 1.5 234.5 Z M 1.5 279.933594 "/>
<path style="fill:none;stroke-width:0.8;stroke-linecap:square;stroke-linejoin:miter;stroke:rgb(0%,0%,0%);stroke-opacity:1;stroke-miterlimit:10;" d="M 58.5 101.066406 L 58.5 146.5 " transform="matrix(1,0,0,-1,-57,381)"/>
<path style="fill:none;stroke-width:0.8;stroke-linecap:square;stroke-linejoin:miter;stroke:rgb(0%,0%,0%);stroke-opacity:1;stroke-miterlimit:10;" d="M 155.808594 101.066406 L 155.808594 146.5 " transform="matrix(1,0,0,-1,-57,381)"/>
<path style="fill:none;stroke-width:0.8;stroke-linecap:square;stroke-linejoin:miter;stroke:rgb(0%,0%,0%);stroke-opacity:1;stroke-miterlimit:10;" d="M 58.5 101.066406 L 155.808594 101.066406 " transform="matrix(1,0,0,-1,-57,381)"/>
<path style="fill:none;stroke-width:0.8;stroke-linecap:square;stroke-linejoin:miter;stroke:rgb(0%,0%,0%);stroke-opacity:1;stroke-miterlimit:10;" d="M 58.5 146.5 L 155.808594 146.5 " transform="matrix(1,0,0,-1,-57,381)"/>
<path style=" stroke:none;fill-rule:nonzero;fill:rgb(100%,100%,100%);fill-opacity:1;" d="M 107.65625 279.332031 L 151.886719 279.332031 L 151.886719 235.101563 L 107.65625 235.101563 Z M 107.65625 279.332031 "/>
<path style="fill:none;stroke-width:0.8;stroke-linecap:square;stroke-linejoin:miter;stroke:rgb(0%,0%,0%);stroke-opacity:1;stroke-miterlimit:10;" d="M 164.65625 101.667969 L 164.65625 145.898438 " transform="matrix(1,0,0,-1,-57,381)"/>
<path style="fill:none;stroke-width:0.8;stroke-linecap:square;stroke-linejoin:miter;stroke:rgb(0%,0%,0%);stroke-opacity:1;stroke-miterlimit:10;" d="M 208.886719 101.667969 L 208.886719 145.898438 " transform="matrix(1,0,0,-1,-57,381)"/>
<path style="fill:none;stroke-width:0.8;stroke-linecap:square;stroke-linejoin:miter;stroke:rgb(0%,0%,0%);stroke-opacity:1;stroke-miterlimit:10;" d="M 164.65625 101.667969 L 208.886719 101.667969 " transform="matrix(1,0,0,-1,-57,381)"/>
<path style="fill:none;stroke-width:0.8;stroke-linecap:square;stroke-linejoin:miter;stroke:rgb(0%,0%,0%);stroke-opacity:1;stroke-miterlimit:10;" d="M 164.65625 145.898438 L 208.886719 145.898438 " transform="matrix(1,0,0,-1,-57,381)"/>
<path style=" stroke:none;fill-rule:nonzero;fill:rgb(100%,100%,100%);fill-opacity:1;" d="M 160.734375 279.332031 L 204.964844 279.332031 L 204.964844 235.101563 L 160.734375 235.101563 Z M 160.734375 279.332031 "/>
<path style="fill:none;stroke-width:0.8;stroke-linecap:square;stroke-linejoin:miter;stroke:rgb(0%,0%,0%);stroke-opacity:1;stroke-miterlimit:10;" d="M 217.734375 101.667969 L 217.734375 145.898438 " transform="matrix(1,0,0,-1,-57,381)"/>
<path style="fill:none;stroke-width:0.8;stroke-linecap:square;stroke-linejoin:miter;stroke:rgb(0%,0%,0%);stroke-opacity:1;stroke-miterlimit:10;" d="M 261.964844 101.667969 L 261.964844 145.898438 " transform="matrix(1,0,0,-1,-57,381)"/>
<path style="fill:none;stroke-width:0.8;stroke-linecap:square;stroke-linejoin:miter;stroke:rgb(0%,0%,0%);stroke-opacity:1;stroke-miterlimit:10;" d="M 217.734375 101.667969 L 261.964844 101.667969 " transform="matrix(1,0,0,-1,-57,381)"/>
<path style="fill:none;stroke-width:0.8;stroke-linecap:square;stroke-linejoin:miter;stroke:rgb(0%,0%,0%);stroke-opacity:1;stroke-miterlimit:10;" d="M 217.734375 145.898438 L 261.964844 145.898438 " transform="matrix(1,0,0,-1,-57,381)"/>
<path style=" stroke:none;fill-rule:nonzero;fill:rgb(100%,100%,100%);fill-opacity:1;" d="M 213.8125 279.332031 L 258.042969 279.332031 L 258.042969 235.101563 L 213.8125 235.101563 Z M 213.8125 279.332031 "/>
<path style="fill:none;stroke-width:0.8;stroke-linecap:square;stroke-linejoin:miter;stroke:rgb(0%,0%,0%);stroke-opacity:1;stroke-miterlimit:10;" d="M 270.8125 101.667969 L 270.8125 145.898438 " transform="matrix(1,0,0,-1,-57,381)"/>
<path style="fill:none;stroke-width:0.8;stroke-linecap:square;stroke-linejoin:miter;stroke:rgb(0%,0%,0%);stroke-opacity:1;stroke-miterlimit:10;" d="M 315.042969 101.667969 L 315.042969 145.898438 " transform="matrix(1,0,0,-1,-57,381)"/>
<path style="fill:none;stroke-width:0.8;stroke-linecap:square;stroke-linejoin:miter;stroke:rgb(0%,0%,0%);stroke-opacity:1;stroke-miterlimit:10;" d="M 270.8125 101.667969 L 315.042969 101.667969 " transform="matrix(1,0,0,-1,-57,381)"/>
<path style="fill:none;stroke-width:0.8;stroke-linecap:square;stroke-linejoin:miter;stroke:rgb(0%,0%,0%);stroke-opacity:1;stroke-miterlimit:10;" d="M 270.8125 145.898438 L 315.042969 145.898438 " transform="matrix(1,0,0,-1,-57,381)"/>
<path style=" stroke:none;fill-rule:nonzero;fill:rgb(100%,100%,100%);fill-opacity:1;" d="M 266.890625 279.332031 L 311.121094 279.332031 L 311.121094 235.101563 L 266.890625 235.101563 Z M 266.890625 279.332031 "/>
<path style="fill:none;stroke-width:0.8;stroke-linecap:square;stroke-linejoin:miter;stroke:rgb(0%,0%,0%);stroke-opacity:1;stroke-miterlimit:10;" d="M 323.890625 101.667969 L 323.890625 145.898438 " transform="matrix(1,0,0,-1,-57,381)"/>
<path style="fill:none;stroke-width:0.8;stroke-linecap:square;stroke-linejoin:miter;stroke:rgb(0%,0%,0%);stroke-opacity:1;stroke-miterlimit:10;" d="M 368.121094 101.667969 L 368.121094 145.898438 " transform="matrix(1,0,0,-1,-57,381)"/>
<path style="fill:none;stroke-width:0.8;stroke-linecap:square;stroke-linejoin:miter;stroke:rgb(0%,0%,0%);stroke-opacity:1;stroke-miterlimit:10;" d="M 323.890625 101.667969 L 368.121094 101.667969 " transform="matrix(1,0,0,-1,-57,381)"/>
<path style="fill:none;stroke-width:0.8;stroke-linecap:square;stroke-linejoin:miter;stroke:rgb(0%,0%,0%);stroke-opacity:1;stroke-miterlimit:10;" d="M 323.890625 145.898438 L 368.121094 145.898438 " transform="matrix(1,0,0,-1,-57,381)"/>
<path style=" stroke:none;fill-rule:nonzero;fill:rgb(100%,100%,100%);fill-opacity:1;" d="M 319.96875 279.332031 L 364.199219 279.332031 L 364.199219 235.101563 L 319.96875 235.101563 Z M 319.96875 279.332031 "/>
<path style="fill:none;stroke-width:0.8;stroke-linecap:square;stroke-linejoin:miter;stroke:rgb(0%,0%,0%);stroke-opacity:1;stroke-miterlimit:10;" d="M 376.96875 101.667969 L 376.96875 145.898438 " transform="matrix(1,0,0,-1,-57,381)"/>
<path style="fill:none;stroke-width:0.8;stroke-linecap:square;stroke-linejoin:miter;stroke:rgb(0%,0%,0%);stroke-opacity:1;stroke-miterlimit:10;" d="M 421.199219 101.667969 L 421.199219 145.898438 " transform="matrix(1,0,0,-1,-57,381)"/>
<path style="fill:none;stroke-width:0.8;stroke-linecap:square;stroke-linejoin:miter;stroke:rgb(0%,0%,0%);stroke-opacity:1;stroke-miterlimit:10;" d="M 376.96875 101.667969 L 421.199219 101.667969 " transform="matrix(1,0,0,-1,-57,381)"/>
<path style="fill:none;stroke-width:0.8;stroke-linecap:square;stroke-linejoin:miter;stroke:rgb(0%,0%,0%);stroke-opacity:1;stroke-miterlimit:10;" d="M 376.96875 145.898438 L 421.199219 145.898438 " transform="matrix(1,0,0,-1,-57,381)"/>
<path style=" stroke:none;fill-rule:nonzero;fill:rgb(100%,100%,100%);fill-opacity:1;" d="M 1.5 333.480469 L 98.808594 333.480469 L 98.808594 288.046875 L 1.5 288.046875 Z M 1.5 333.480469 "/>
<path style="fill:none;stroke-width:0.8;stroke-linecap:square;stroke-linejoin:miter;stroke:rgb(0%,0%,0%);stroke-opacity:1;stroke-miterlimit:10;" d="M 58.5 47.519531 L 58.5 92.953125 " transform="matrix(1,0,0,-1,-57,381)"/>
<path style="fill:none;stroke-width:0.8;stroke-linecap:square;stroke-linejoin:miter;stroke:rgb(0%,0%,0%);stroke-opacity:1;stroke-miterlimit:10;" d="M 155.808594 47.519531 L 155.808594 92.953125 " transform="matrix(1,0,0,-1,-57,381)"/>
<path style="fill:none;stroke-width:0.8;stroke-linecap:square;stroke-linejoin:miter;stroke:rgb(0%,0%,0%);stroke-opacity:1;stroke-miterlimit:10;" d="M 58.5 47.519531 L 155.808594 47.519531 " transform="matrix(1,0,0,-1,-57,381)"/>
<path style="fill:none;stroke-width:0.8;stroke-linecap:square;stroke-linejoin:miter;stroke:rgb(0%,0%,0%);stroke-opacity:1;stroke-miterlimit:10;" d="M 58.5 92.953125 L 155.808594 92.953125 " transform="matrix(1,0,0,-1,-57,381)"/>
<path style=" stroke:none;fill-rule:nonzero;fill:rgb(100%,100%,100%);fill-opacity:1;" d="M 107.65625 332.878906 L 151.886719 332.878906 L 151.886719 288.648438 L 107.65625 288.648438 Z M 107.65625 332.878906 "/>
<path style="fill:none;stroke-width:0.8;stroke-linecap:square;stroke-linejoin:miter;stroke:rgb(0%,0%,0%);stroke-opacity:1;stroke-miterlimit:10;" d="M 164.65625 48.121094 L 164.65625 92.351563 " transform="matrix(1,0,0,-1,-57,381)"/>
<path style="fill:none;stroke-width:0.8;stroke-linecap:square;stroke-linejoin:miter;stroke:rgb(0%,0%,0%);stroke-opacity:1;stroke-miterlimit:10;" d="M 208.886719 48.121094 L 208.886719 92.351563 " transform="matrix(1,0,0,-1,-57,381)"/>
<path style="fill:none;stroke-width:0.8;stroke-linecap:square;stroke-linejoin:miter;stroke:rgb(0%,0%,0%);stroke-opacity:1;stroke-miterlimit:10;" d="M 164.65625 48.121094 L 208.886719 48.121094 " transform="matrix(1,0,0,-1,-57,381)"/>
<path style="fill:none;stroke-width:0.8;stroke-linecap:square;stroke-linejoin:miter;stroke:rgb(0%,0%,0%);stroke-opacity:1;stroke-miterlimit:10;" d="M 164.65625 92.351563 L 208.886719 92.351563 " transform="matrix(1,0,0,-1,-57,381)"/>
<path style=" stroke:none;fill-rule:nonzero;fill:rgb(100%,100%,100%);fill-opacity:1;" d="M 160.734375 332.878906 L 204.964844 332.878906 L 204.964844 288.648438 L 160.734375 288.648438 Z M 160.734375 332.878906 "/>
<path style="fill:none;stroke-width:0.8;stroke-linecap:square;stroke-linejoin:miter;stroke:rgb(0%,0%,0%);stroke-opacity:1;stroke-miterlimit:10;" d="M 217.734375 48.121094 L 217.734375 92.351563 " transform="matrix(1,0,0,-1,-57,381)"/>
<path style="fill:none;stroke-width:0.8;stroke-linecap:square;stroke-linejoin:miter;stroke:rgb(0%,0%,0%);stroke-opacity:1;stroke-miterlimit:10;" d="M 261.964844 48.121094 L 261.964844 92.351563 " transform="matrix(1,0,0,-1,-57,381)"/>
<path style="fill:none;stroke-width:0.8;stroke-linecap:square;stroke-linejoin:miter;stroke:rgb(0%,0%,0%);stroke-opacity:1;stroke-miterlimit:10;" d="M 217.734375 48.121094 L 261.964844 48.121094 " transform="matrix(1,0,0,-1,-57,381)"/>
<path style="fill:none;stroke-width:0.8;stroke-linecap:square;stroke-linejoin:miter;stroke:rgb(0%,0%,0%);stroke-opacity:1;stroke-miterlimit:10;" d="M 217.734375 92.351563 L 261.964844 92.351563 " transform="matrix(1,0,0,-1,-57,381)"/>
<path style=" stroke:none;fill-rule:nonzero;fill:rgb(100%,100%,100%);fill-opacity:1;" d="M 213.8125 332.878906 L 258.042969 332.878906 L 258.042969 288.648438 L 213.8125 288.648438 Z M 213.8125 332.878906 "/>
<path style="fill:none;stroke-width:0.8;stroke-linecap:square;stroke-linejoin:miter;stroke:rgb(0%,0%,0%);stroke-opacity:1;stroke-miterlimit:10;" d="M 270.8125 48.121094 L 270.8125 92.351563 " transform="matrix(1,0,0,-1,-57,381)"/>
<path style="fill:none;stroke-width:0.8;stroke-linecap:square;stroke-linejoin:miter;stroke:rgb(0%,0%,0%);stroke-opacity:1;stroke-miterlimit:10;" d="M 315.042969 48.121094 L 315.042969 92.351563 " transform="matrix(1,0,0,-1,-57,381)"/>
<path style="fill:none;stroke-width:0.8;stroke-linecap:square;stroke-linejoin:miter;stroke:rgb(0%,0%,0%);stroke-opacity:1;stroke-miterlimit:10;" d="M 270.8125 48.121094 L 315.042969 48.121094 " transform="matrix(1,0,0,-1,-57,381)"/>
<path style="fill:none;stroke-width:0.8;stroke-linecap:square;stroke-linejoin:miter;stroke:rgb(0%,0%,0%);stroke-opacity:1;stroke-miterlimit:10;" d="M 270.8125 92.351563 L 315.042969 92.351563 " transform="matrix(1,0,0,-1,-57,381)"/>
<path style=" stroke:none;fill-rule:nonzero;fill:rgb(100%,100%,100%);fill-opacity:1;" d="M 266.890625 332.878906 L 311.121094 332.878906 L 311.121094 288.648438 L 266.890625 288.648438 Z M 266.890625 332.878906 "/>
<path style="fill:none;stroke-width:0.8;stroke-linecap:square;stroke-linejoin:miter;stroke:rgb(0%,0%,0%);stroke-opacity:1;stroke-miterlimit:10;" d="M 323.890625 48.121094 L 323.890625 92.351563 " transform="matrix(1,0,0,-1,-57,381)"/>
<path style="fill:none;stroke-width:0.8;stroke-linecap:square;stroke-linejoin:miter;stroke:rgb(0%,0%,0%);stroke-opacity:1;stroke-miterlimit:10;" d="M 368.121094 48.121094 L 368.121094 92.351563 " transform="matrix(1,0,0,-1,-57,381)"/>
<path style="fill:none;stroke-width:0.8;stroke-linecap:square;stroke-linejoin:miter;stroke:rgb(0%,0%,0%);stroke-opacity:1;stroke-miterlimit:10;" d="M 323.890625 48.121094 L 368.121094 48.121094 " transform="matrix(1,0,0,-1,-57,381)"/>
<path style="fill:none;stroke-width:0.8;stroke-linecap:square;stroke-linejoin:miter;stroke:rgb(0%,0%,0%);stroke-opacity:1;stroke-miterlimit:10;" d="M 323.890625 92.351563 L 368.121094 92.351563 " transform="matrix(1,0,0,-1,-57,381)"/>
<path style=" stroke:none;fill-rule:nonzero;fill:rgb(100%,100%,100%);fill-opacity:1;" d="M 319.96875 332.878906 L 364.199219 332.878906 L 364.199219 288.648438 L 319.96875 288.648438 Z M 319.96875 332.878906 "/>
<path style="fill:none;stroke-width:0.8;stroke-linecap:square;stroke-linejoin:miter;stroke:rgb(0%,0%,0%);stroke-opacity:1;stroke-miterlimit:10;" d="M 376.96875 48.121094 L 376.96875 92.351563 " transform="matrix(1,0,0,-1,-57,381)"/>
<path style="fill:none;stroke-width:0.8;stroke-linecap:square;stroke-linejoin:miter;stroke:rgb(0%,0%,0%);stroke-opacity:1;stroke-miterlimit:10;" d="M 421.199219 48.121094 L 421.199219 92.351563 " transform="matrix(1,0,0,-1,-57,381)"/>
<path style="fill:none;stroke-width:0.8;stroke-linecap:square;stroke-linejoin:miter;stroke:rgb(0%,0%,0%);stroke-opacity:1;stroke-miterlimit:10;" d="M 376.96875 48.121094 L 421.199219 48.121094 " transform="matrix(1,0,0,-1,-57,381)"/>
<path style="fill:none;stroke-width:0.8;stroke-linecap:square;stroke-linejoin:miter;stroke:rgb(0%,0%,0%);stroke-opacity:1;stroke-miterlimit:10;" d="M 376.96875 92.351563 L 421.199219 92.351563 " transform="matrix(1,0,0,-1,-57,381)"/>
<path style=" stroke:none;fill-rule:nonzero;fill:rgb(100%,100%,100%);fill-opacity:1;" d="M 213.8125 45.671875 L 258.042969 45.671875 L 258.042969 1.441406 L 213.8125 1.441406 Z M 213.8125 45.671875 "/>
<path style="fill:none;stroke-width:0.8;stroke-linecap:square;stroke-linejoin:miter;stroke:rgb(0%,0%,0%);stroke-opacity:1;stroke-miterlimit:10;" d="M 270.8125 335.328125 L 270.8125 379.558594 " transform="matrix(1,0,0,-1,-57,381)"/>
<path style="fill:none;stroke-width:0.8;stroke-linecap:square;stroke-linejoin:miter;stroke:rgb(0%,0%,0%);stroke-opacity:1;stroke-miterlimit:10;" d="M 315.042969 335.328125 L 315.042969 379.558594 " transform="matrix(1,0,0,-1,-57,381)"/>
<path style="fill:none;stroke-width:0.8;stroke-linecap:square;stroke-linejoin:miter;stroke:rgb(0%,0%,0%);stroke-opacity:1;stroke-miterlimit:10;" d="M 270.8125 335.328125 L 315.042969 335.328125 " transform="matrix(1,0,0,-1,-57,381)"/>
<path style="fill:none;stroke-width:0.8;stroke-linecap:square;stroke-linejoin:miter;stroke:rgb(0%,0%,0%);stroke-opacity:1;stroke-miterlimit:10;" d="M 270.8125 379.558594 L 315.042969 379.558594 " transform="matrix(1,0,0,-1,-57,381)"/>
<path style=" stroke:none;fill-rule:nonzero;fill:rgb(100%,100%,100%);fill-opacity:1;" d="M 1.5 46.273438 L 98.808594 46.273438 L 98.808594 0.839844 L 1.5 0.839844 Z M 1.5 46.273438 "/>
<path style="fill:none;stroke-width:0.8;stroke-linecap:square;stroke-linejoin:miter;stroke:rgb(0%,0%,0%);stroke-opacity:1;stroke-miterlimit:10;" d="M 58.5 334.726563 L 58.5 380.160156 " transform="matrix(1,0,0,-1,-57,381)"/>
<path style="fill:none;stroke-width:0.8;stroke-linecap:square;stroke-linejoin:miter;stroke:rgb(0%,0%,0%);stroke-opacity:1;stroke-miterlimit:10;" d="M 155.808594 334.726563 L 155.808594 380.160156 " transform="matrix(1,0,0,-1,-57,381)"/>
<path style="fill:none;stroke-width:0.8;stroke-linecap:square;stroke-linejoin:miter;stroke:rgb(0%,0%,0%);stroke-opacity:1;stroke-miterlimit:10;" d="M 58.5 334.726563 L 155.808594 334.726563 " transform="matrix(1,0,0,-1,-57,381)"/>
<path style="fill:none;stroke-width:0.8;stroke-linecap:square;stroke-linejoin:miter;stroke:rgb(0%,0%,0%);stroke-opacity:1;stroke-miterlimit:10;" d="M 58.5 380.160156 L 155.808594 380.160156 " transform="matrix(1,0,0,-1,-57,381)"/>
</g>
</defs>
<g id="surface1">
<use xlink:href="#surface4"/>
</g>
</svg>
